<?xml version="1.0" encoding="UTF-8"?>
<!DOCTYPE svg PUBLIC "-//W3C//DTD SVG 1.1//EN" "http://www.w3.org/Graphics/SVG/1.1/DTD/svg11.dtd">
<!-- Creator: CorelDRAW X7 -->
<svg xmlns="http://www.w3.org/2000/svg" xml:space="preserve" width="1919px" height="1079px" version="1.1" style="shape-rendering:geometricPrecision; text-rendering:geometricPrecision; image-rendering:optimizeQuality; fill-rule:evenodd; clip-rule:evenodd"
viewBox="0 0 1919 1079"
 xmlns:xlink="http://www.w3.org/1999/xlink">
 <defs>
  <style type="text/css">
   <![CDATA[
    .str0 {stroke:white;stroke-width:5.61822}
    .fil1 {fill:none}
    .fil0 {fill:#31363D}
    .fil2 {fill:white}
    .fil3 {fill:white;fill-rule:nonzero}
   ]]>
  </style>
   <clipPath id="id0">
    <path d="M0 0l1919 0 0 1079 -1919 0 0 -1079z"/>
   </clipPath>
    <clipPath id="id1">
    </clipPath>
    <clipPath id="id2">
     <path d="M0 0l1919 0 0 1079 -1919 0 0 -1079z"/>
    </clipPath>
 </defs>
 <g id="Layer_x0020_1">
  <metadata id="CorelCorpID_0Corel-Layer"/>
  <polygon class="fil0" points="0,0 1919,0 1919,1079 0,1079 "/>
  <g style="clip-path:url(#id0)">
   <g id="_624905184">
   </g>
   <g style="clip-path:url(#id1)">
    <image id="wallpaper-1429495.jpg" x="12" y="1534" width="1919" height="1156" xlink:href="logo_Images\logo_ImgID1.png"/>
   </g>
   <g style="clip-path:url(#id2)">
   </g>
  </g>
  <polygon class="fil1" points="0,0 1919,0 1919,1079 0,1079 "/>
  <rect class="fil1 str0" transform="matrix(-0.116866 -0.0674727 -0.0674727 0.116866 1090.56 506.787)" width="1405" height="1405"/>
  <rect class="fil1 str0" transform="matrix(0.0954209 -0.0954209 0.0954209 0.0954209 827.032 541.482)" width="1405" height="1405"/>
  <path class="fil2" d="M892 444l138 0 0 195 -138 0 0 -195zm77 137c1,0 1,1 1,1 2,3 3,5 4,6 2,2 4,3 6,4 3,2 7,2 11,2 4,-1 7,-4 9,-7 1,0 1,-1 1,-1l-2 -1c-3,2 -5,4 -7,4 -2,1 -4,1 -5,0 -2,-1 -5,-4 -8,-9 0,-1 -1,-1 -1,-2 0,0 0,0 0,0 5,-2 10,-5 13,-9 8,-9 13,-19 14,-30l0 -5c-1,-12 -6,-22 -14,-31 -3,-4 -7,-7 -12,-10 -6,-3 -12,-4 -19,-4l0 0c-6,0 -12,1 -18,4 -5,3 -9,6 -12,10 -7,8 -11,18 -13,31l0 1 0 0c0,0 0,1 0,1 0,1 0,2 0,3l0 0 0 0c1,12 6,22 13,30 3,4 8,7 13,9 5,2 11,4 17,4l0 0 0 0c3,0 6,-1 9,-1zm-20 -6c-4,-2 -8,-6 -10,-11 -3,-6 -5,-15 -5,-25l0 0 0 0c0,-1 0,-2 0,-3 0,0 0,-1 0,-1l0 0 0 -1c0,-26 9,-40 27,-40 18,0 27,14 27,40l0 5c0,18 -4,30 -13,36 0,-1 0,-1 -1,-2 -1,-1 -2,-2 -4,-3 -5,-2 -9,-2 -13,-1 -3,2 -6,4 -8,6zm18 3c0,0 -1,0 -2,0 0,0 -1,0 -2,1 0,0 0,0 0,-1l0 0 -4 0c-3,0 -5,0 -8,-1 3,-2 4,-4 6,-4 2,0 4,0 5,1 2,0 3,1 4,3 1,0 1,0 1,1z"/>
  <path class="fil3" d="M789 535c2,-3 4,-4 7,-4 4,0 7,3 7,6 0,6 -7,13 -14,19 -7,-6 -15,-13 -15,-19 0,-3 4,-6 8,-6 3,0 5,1 7,4z"/>
  <path class="fil2" d="M1132 551c1,2 3,3 5,3 4,0 8,-3 8,-7 0,-6 -8,-13 -15,-19 -7,6 -14,13 -14,19 0,4 3,7 7,7 3,0 4,-1 6,-3l0 5 -5 0 0 3 13 0 0 -3 -5 0 0 -5z"/>
  <polygon class="fil2" points="960,702 963,702 963,713 968,713 968,716 955,716 955,713 960,713 "/>
  <circle class="fil2" cx="954" cy="704" r="7"/>
  <circle class="fil2" cx="961" cy="694" r="7"/>
  <circle class="fil2" cx="968" cy="704" r="7"/>
  <polygon class="fil2" points="961,362 967,371 973,379 967,388 961,396 955,388 949,379 955,371 "/>
 </g>
</svg>
