<svg width="328" height="164" viewBox="0 0 328 164" fill="none" xmlns="http://www.w3.org/2000/svg">
<path d="M124.625 2.3125H124.75C127.792 2.3125 129.312 4.72917 129.312 9.5625C129.312 19.6042 122.333 43.9792 108.375 82.6875H108.5C111.375 82.6875 112.812 83.0208 112.812 83.6875C112.312 84.5208 111.667 84.9375 110.875 84.9375C109.208 84.7708 108.104 84.6875 107.562 84.6875C98.6875 109.104 92.0833 128.479 87.75 142.812C86.4583 147.521 85.8125 150.917 85.8125 153V153.75L85.9375 154.375H86.375C86.8333 154.375 87.1667 154.604 87.375 155.062V155.312C86.8333 156.062 86.1042 156.438 85.1875 156.438C83.3958 156.438 82.5 155.542 82.5 153.75C82.5 147.375 89.6667 124.75 104 85.875L104.375 84.5625C98.25 84.4792 93.7292 84.4375 90.8125 84.4375C81.4375 84.4375 68.875 84.5208 53.125 84.6875C52.25 84.7708 51.5417 84.8125 51 84.8125C32.5833 110.062 17.7917 131.479 6.625 149.062C4.625 152.938 2.75 154.875 1 154.875C0.458333 154.875 0.125 154.5 0 153.75V153.5C0.333333 151.125 0.916667 149.938 1.75 149.938C2.66667 149.938 3.27083 149.562 3.5625 148.812C13.8542 132.646 26.4375 114.25 41.3125 93.625C41.5625 93.375 43.6875 90.4792 47.6875 84.9375V84.8125C38.7292 84.9792 33.0833 85.1667 30.75 85.375C30.75 86.25 29.2708 86.8333 26.3125 87.125H24.6875C23.3125 87.125 22.4167 86.75 22 86V85.5C22.5417 84.0417 25.2917 83.3125 30.25 83.3125C33.2917 83.1458 39.6458 82.9792 49.3125 82.8125C60.9375 66.8125 73.75 50.4375 87.75 33.6875C105.833 12.7708 118.125 2.3125 124.625 2.3125ZM52.625 82.6875V82.8125C52.6667 82.8125 52.8333 82.7708 53.125 82.6875C69.625 82.5208 82.6042 82.4375 92.0625 82.4375C94.6458 82.4375 99.0208 82.4792 105.188 82.5625C119.146 43.8125 126.125 19.6042 126.125 9.9375V9.4375C126.125 9.35417 126.167 9.3125 126.25 9.3125L126.125 9.0625V8.125C126.125 5.58333 125.375 4.3125 123.875 4.3125H123.5C117.667 4.8125 104.938 16.8958 85.3125 40.5625C72.6458 56.1042 61.75 70.1458 52.625 82.6875Z" fill="#4131FF"/>
<path d="M128.25 47.875H128.688C129.562 47.875 130.083 48.4792 130.25 49.6875C130.25 50.8125 129.688 52.2917 128.562 54.125C128.021 54.9167 127.458 55.4583 126.875 55.75C124.542 63.0417 121.562 74 117.938 88.625C120.812 85.0417 123.188 83.25 125.062 83.25H125.812C127.312 83.25 128.229 84.2292 128.562 86.1875V88.625C130.312 88.0833 131.979 87.8125 133.562 87.8125H134.312C134.938 87.8958 135.25 88.0625 135.25 88.3125V88.75C135.25 89.4583 133.521 89.9167 130.062 90.125C128.438 90.4167 127.625 91.0625 127.625 92.0625C126.708 94.7708 125.042 96.75 122.625 98C121.708 98.3333 121.104 98.5 120.812 98.5H120.188C118.896 98.2917 118.25 97.7292 118.25 96.8125C118.25 94.6875 120.625 92.25 125.375 89.5L125.5 88.625V86.5L125.25 85.4375H124.75C122.792 85.9375 120.375 89.0208 117.5 94.6875C116.167 97.5208 114.833 101.167 113.5 105.625C113 106.125 112.542 106.375 112.125 106.375H111.562C111.396 106.375 111.188 106.167 110.938 105.75V105.312C110.938 103.438 114.792 88.3333 122.5 60C124.792 52.4583 126.25 48.5625 126.875 48.3125C127.542 48.0208 128 47.875 128.25 47.875ZM121.25 96.375H121.438C123.146 95.0833 124.146 93.8542 124.438 92.6875H124.188C122.479 93.9375 121.5 95.1667 121.25 96.375Z" fill="#4131FF"/>
<path d="M138.312 83.375C139.896 83.375 141.271 84.2083 142.438 85.875C142.604 86.0833 142.812 86.9167 143.062 88.375C142.979 89.3333 142.854 90.1875 142.688 90.9375H142.812C143.438 90.9375 145.542 90.125 149.125 88.5C149.292 88.4167 149.458 88.375 149.625 88.375C150.375 88.5417 150.75 88.7292 150.75 88.9375V89.0625C150.75 90.1042 148.188 91.3958 143.062 92.9375C142.104 92.9375 141.479 93.4375 141.188 94.4375C139.438 96.7708 137.667 97.9375 135.875 97.9375H135.375C133.625 97.9375 132.625 96.5208 132.375 93.6875V92.1875C132.375 87.5625 134.083 84.625 137.5 83.375H138.312ZM137.688 85.375C137.146 86.125 136.875 86.875 136.875 87.625C137.125 89.8333 138.062 90.9375 139.688 90.9375C139.854 90.3125 139.938 89.7292 139.938 89.1875C139.938 87.3125 139.396 86.125 138.312 85.625L137.688 85.375ZM135.375 91.6875V92.1875C135.458 94.6875 135.792 95.9375 136.375 95.9375C137.167 95.5625 137.938 94.7292 138.688 93.4375V93.1875C137.646 93.1875 136.542 92.6875 135.375 91.6875Z" fill="#4131FF"/>
<path d="M152 83.375L152.625 83.4375C153.375 83.5625 153.646 84.0833 153.438 85V85.1875C152.271 88.6875 151.688 91.3125 151.688 93.0625V93.125C151.688 93.9583 151.833 94.5625 152.125 94.9375H152.188C152.979 94.2708 153.729 93.3125 154.438 92.0625C155.229 90.6875 156.208 88.9375 157.375 86.8125C157.75 86.3125 158.146 86.0625 158.562 86.0625H158.688C159.854 86.1875 160.438 86.4792 160.438 86.9375L160.5 87.0625C159.708 89.4792 159.312 91.3958 159.312 92.8125V92.9375C159.312 94.0625 159.583 94.7292 160.125 94.9375C161.083 94.9375 162.75 93.9375 165.125 91.9375C166.792 90.1042 167.708 89.1875 167.875 89.1875C168.333 89.0208 168.729 88.9375 169.062 88.9375C169.646 88.9375 170.083 89.1667 170.375 89.625V89.9375C170.167 90.5625 168.667 92.0625 165.875 94.4375C163.417 96.2292 161.312 97.125 159.562 97.125H159.312C157.604 97.125 156.5 96.2917 156 94.625V94.375H155.938C154.396 96.2083 152.875 97.125 151.375 97.125H151.062C149.812 97.125 148.938 96.4792 148.438 95.1875C148.312 94.7708 148.25 94.2917 148.25 93.75V93.0625C148.25 91.3958 148.875 88.7708 150.125 85.1875C150.625 83.8542 151.25 83.25 152 83.375Z" fill="#4131FF"/>
<path d="M174.625 68.5625H175.062C175.604 68.5625 175.979 68.7917 176.188 69.25L173.812 78.625C197.646 78.5417 215.917 78.5 228.625 78.5H279.125C286.375 78.5 290 78.7292 290 79.1875C290.292 79.2708 290.438 79.5625 290.438 80.0625V80.3125C290.438 81.1458 288.646 81.625 285.062 81.75H282.812C282.021 81.6667 281.625 81.3333 281.625 80.75C279.167 80.6667 277.479 80.625 276.562 80.625C251.146 80.625 216.646 80.6667 173.062 80.75C170.062 91.1667 163.417 112.896 153.125 145.938C153.125 149.979 151.896 152.583 149.438 153.75H148.438C148.104 153.667 147.917 153.25 147.875 152.5C147.958 151.583 149.521 146.417 152.562 137C161.146 109.583 166.896 90.8333 169.812 80.75H138.812C138.062 80.75 137.583 80.5208 137.375 80.0625V79.625C137.833 78.9583 138.354 78.625 138.938 78.625H170.25C170.458 78.625 171.354 75.5 172.938 69.25C173.521 68.7917 174.083 68.5625 174.625 68.5625Z" fill="#4131FF"/>
<path d="M321 0.5625H321.375C325.458 0.5625 327.5 3.125 327.5 8.25V9.0625C327.5 17.0208 322.333 34.9167 312 62.75C305.792 80.25 301.146 94.4167 298.062 105.25C293.188 121.958 290.75 135.521 290.75 145.938V146.562C290.75 152.396 291.667 157.583 293.5 162.125V162.312C293.083 162.979 292.521 163.312 291.812 163.312H291.062C290.312 163.312 289.604 161.833 288.938 158.875C287.938 155.583 287.438 151.458 287.438 146.5C287.438 130.375 293.583 105.25 305.875 71.125C312.875 51.7083 318.042 36.4583 321.375 25.375C323.417 18.2083 324.438 12.75 324.438 9V8.625C324.438 4.58333 322.958 2.5625 320 2.5625C312.5 2.5625 299.125 21.6458 279.875 59.8125C273.458 72.3958 268.25 81.8958 264.25 88.3125C261.25 92.8125 258.771 95.0625 256.812 95.0625C255.146 95.0625 254.312 92.3542 254.312 86.9375C254.312 83.1875 255.125 71.0625 256.75 50.5625C256.917 46.7292 257 43.2917 257 40.25V40.1875C257 32.4792 256.292 27.6042 254.875 25.5625C254.5 25.0625 253.938 24.8125 253.188 24.8125H253C248.083 24.8125 240.438 39.7292 230.062 69.5625L216.375 109.188C213.583 116.938 211.354 120.812 209.688 120.812C209.479 120.812 209.312 120.833 209.188 120.875C208.146 120.667 207.625 120.417 207.625 120.125V120.062C207.625 118.021 210.688 105.271 216.812 81.8125C219.479 72.4375 222.271 61.2708 225.188 48.3125C224.396 48.2708 224 47.9375 224 47.3125C224 44.8125 224.583 42.7917 225.75 41.25C226.5 40.75 227.146 40.5 227.688 40.5C228.771 40.7083 229.312 41.5 229.312 42.875C229.354 42.9583 229.375 43.1458 229.375 43.4375C228.333 49.4375 226.479 57.625 223.812 68C219.146 85.25 215.667 98.6042 213.375 108.062V108.125H213.5C220.875 86.4167 226.542 70.1458 230.5 59.3125C239.833 34.9375 247.562 22.75 253.688 22.75H254.438C258.396 22.75 260.375 28.5 260.375 40C260.375 47.125 259.479 60.625 257.688 80.5C257.562 82.9583 257.5 85.1458 257.5 87.0625V87.25C257.583 90.625 257.854 92.3125 258.312 92.3125C259.188 91.5625 260.312 90.0208 261.688 87.6875C266.521 79.1458 273.458 66.0625 282.5 48.4375C288.333 37.3125 294.354 27.1458 300.562 17.9375C308.729 6.35417 315.542 0.5625 321 0.5625ZM213.062 103.375V103.562H213.125V103.375H213.062Z" fill="#4131FF"/>
<path d="M315.062 83.6875H315.812C316.688 83.6875 317.229 84.3333 317.438 85.625V85.8125C317.438 87.1875 316.521 88.375 314.688 89.375C314.146 89.625 313.583 89.75 313 89.75H312.062L311.625 89.6875C310.875 91.5208 310.5 92.8958 310.5 93.8125V94.3125C310.583 95.6042 310.958 96.25 311.625 96.25C313.5 96.25 317.146 93.6458 322.562 88.4375C322.979 88.0625 323.479 87.8542 324.062 87.8125C324.562 87.8125 324.917 88.0208 325.125 88.4375V88.6875C325.125 89.1042 324.188 90.0833 322.312 91.625C317.521 96 313.854 98.1875 311.312 98.1875H310.625C308.583 97.8958 307.562 96.8333 307.562 95V94.3125C307.562 91.1875 309.146 88.0417 312.312 84.875C313.438 84.0833 314.354 83.6875 315.062 83.6875ZM312.812 87.75H313.062C314.062 87.75 314.562 87.1042 314.562 85.8125C313.771 86.5208 313.188 87.1667 312.812 87.75Z" fill="#4131FF"/>
</svg>
