<svg width="386" height="157" viewBox="0 0 386 157" fill="none" xmlns="http://www.w3.org/2000/svg">
<path d="M95.875 2.375H98.3125C106.812 2.375 112.438 5.35417 115.188 11.3125C116.104 13.7292 116.562 16.2292 116.562 18.8125V19.3125C116.562 25.0208 114.917 31.75 111.625 39.5C110.625 40.6667 109.604 41.25 108.562 41.25C107.562 41.125 107.062 40.7083 107.062 40V39.875C107.062 39 107.792 37.2083 109.25 34.5C110.167 34.0833 110.625 33.8125 110.625 33.6875C112.417 28.3542 113.312 23.6458 113.312 19.5625V19.4375C113.312 9.39583 107.688 4.375 96.4375 4.375H95.6875C84.8125 4.375 72.7708 9.33333 59.5625 19.25C56.2708 21.5833 51.1042 26.25 44.0625 33.25C44.0625 33.375 43.2083 34.3333 41.5 36.125C34.625 44.0833 29.5 50.75 26.125 56.125C20.4583 64.875 15.75 73.5833 12 82.25C6.16667 96.5 3.25 108.875 3.25 119.375V120.5C3.25 131.708 6.52083 140.458 13.0625 146.75C18.7292 151.667 25.6458 154.125 33.8125 154.125H34.4375C49.1042 154.125 65.9375 147.271 84.9375 133.562C89.6042 130.146 95.3958 125.125 102.312 118.5C108.396 112.208 112.833 107.333 115.625 103.875C116.083 103.458 116.562 103.25 117.062 103.25H117.688C118.104 103.25 118.396 103.417 118.562 103.75V104.25C109.521 115.167 99.9375 124.667 89.8125 132.75C74.5625 144.417 59.7917 151.792 45.5 154.875C41.2917 155.708 37.7083 156.125 34.75 156.125H31.9375C25.0208 156.125 18.4792 154.062 12.3125 149.938C9.02083 147.146 6.75 144.646 5.5 142.438C1.83333 136.104 0 129.396 0 122.312V117.875C0 108.083 3.16667 95.6458 9.5 80.5625C12.8333 72.9375 17.3542 64.6875 23.0625 55.8125C27.1042 49.5208 32.7708 42.3125 40.0625 34.1875C46.5625 27.3958 50.8333 23.2917 52.875 21.875C59.6667 16.2917 65.3333 12.3958 69.875 10.1875C79.4167 4.97917 88.0833 2.375 95.875 2.375Z" fill="#4131FF"/>
<path d="M131.875 83.6875H132.438C133.104 83.6875 133.438 83.9792 133.438 84.5625C132.188 88.7292 131.562 91.8125 131.562 93.8125V94.5625C131.604 95.7292 131.729 96.3542 131.938 96.4375C132.812 96.1458 135.25 93.375 139.25 88.125C139.875 87.9167 140.354 87.8125 140.688 87.8125C141.438 88.0208 141.812 88.2292 141.812 88.4375V88.875C137.062 94.75 133.812 98.1875 132.062 99.1875L130.375 99.25C129.083 98.5833 128.396 97.1875 128.312 95.0625C128.312 94.8125 128.271 94.625 128.188 94.5L128.438 91.9375C125.771 94.8125 123.729 96.25 122.312 96.25C120.812 96 120.062 95.25 120.062 94V92.8125C120.062 90.9375 121.021 88.7083 122.938 86.125C124.312 84.7917 125.583 84.125 126.75 84.125H127.562C128.146 84.125 128.917 84.4167 129.875 85C130.583 84.125 131.25 83.6875 131.875 83.6875ZM123.188 93.375C123.271 93.9583 123.375 94.25 123.5 94.25C124.792 93.0833 126.021 91.4583 127.188 89.375C127.479 89.0833 128.042 88.2083 128.875 86.75L128.312 86.875C127.396 86.5833 126.812 86.4375 126.562 86.4375C125.604 86.4375 124.583 88 123.5 91.125C123.292 92.4583 123.188 93.2083 123.188 93.375Z" fill="#4131FF"/>
<path d="M145.438 82.1875H146.25C147.083 82.1875 147.625 82.625 147.875 83.5V83.9375C147.875 85.3125 146.854 86.7708 144.812 88.3125C143.771 89.0208 143.083 89.375 142.75 89.375V89.4375C145.375 89.7292 146.812 90.0208 147.062 90.3125C147.396 90.6875 147.562 91 147.562 91.25V91.6875L147.5 92.25C151.625 89.75 153.604 88.5833 153.438 88.75C153.771 88.5833 154.104 88.5208 154.438 88.5625L154.812 89.5C154.479 90 154.104 90.375 153.688 90.625C153.062 90.9583 152.188 91.4792 151.062 92.1875C149.438 93.1875 147.438 94.7083 145.062 96.75C143.312 98.4167 141.812 100.042 140.562 101.625C140.146 102 139.667 102.188 139.125 102.188H138.812C138.396 102.188 138.083 102 137.875 101.625V101.375C137.875 101.083 139.125 99.5208 141.625 96.6875C143.583 94.3125 144.562 92.6875 144.562 91.8125C141.812 91.4792 140.021 91.0208 139.188 90.4375C138.438 89.8542 138.062 89.1875 138.062 88.4375V88.3125C138.062 86.4792 139.833 84.625 143.375 82.75C144.25 82.375 144.938 82.1875 145.438 82.1875ZM141 87.9375C141.917 87.9375 142.979 87.25 144.188 85.875C144.604 85.2917 144.833 84.7083 144.875 84.125H144.812C142.271 85.5833 141 86.8542 141 87.9375Z" fill="#4131FF"/>
<path d="M158.562 83.6875H159.312C160.188 83.6875 160.729 84.3333 160.938 85.625V85.8125C160.938 87.1875 160.021 88.375 158.188 89.375C157.646 89.625 157.083 89.75 156.5 89.75H155.562L155.125 89.6875C154.375 91.5208 154 92.8958 154 93.8125V94.3125C154.083 95.6042 154.458 96.25 155.125 96.25C157 96.25 160.646 93.6458 166.062 88.4375C166.479 88.0625 166.979 87.8542 167.562 87.8125C168.062 87.8125 168.417 88.0208 168.625 88.4375V88.6875C168.625 89.1042 167.688 90.0833 165.812 91.625C161.021 96 157.354 98.1875 154.812 98.1875H154.125C152.083 97.8958 151.062 96.8333 151.062 95V94.3125C151.062 91.1875 152.646 88.0417 155.812 84.875C156.938 84.0833 157.854 83.6875 158.562 83.6875ZM156.312 87.75H156.562C157.562 87.75 158.062 87.1042 158.062 85.8125C157.271 86.5208 156.688 87.1667 156.312 87.75Z" fill="#4131FF"/>
<path d="M273.875 0.375H276.938C284.104 0.375 291.667 2.85417 299.625 7.8125C299.833 8.60417 299.938 9.10417 299.938 9.3125V9.625C299.938 10.6667 298.854 11.1875 296.688 11.1875C295.729 11.1875 294.812 10.3542 293.938 8.6875V8.5625C293.938 8.3125 294.042 8.02083 294.25 7.6875C287.625 4.1875 281.479 2.4375 275.812 2.4375H273.562C262.312 2.4375 251.292 7.79167 240.5 18.5C234.625 25.4583 230.479 32.1042 228.062 38.4375C225.521 45.5625 224.25 52.0417 224.25 57.875V60.6875C224.25 67.8542 227.188 78.7292 233.062 93.3125C234.021 96.0625 234.5 97.5625 234.5 97.8125C241.958 94.0208 249.979 91 258.562 88.75L261.688 88.375C263.354 88.1667 264.542 88.2292 265.25 88.5625C265.375 89.8958 264.521 90.4792 262.688 90.3125C260.479 90.4792 258.125 90.9167 255.625 91.625C249.375 93.8333 242.583 96.5417 235.25 99.75V100C237.417 107.375 238.5 114.271 238.5 120.688C238.5 135.854 233.021 146.521 222.062 152.688C218.479 154.479 215.062 155.375 211.812 155.375H210.25C205.125 155.375 201.208 153.167 198.5 148.75C197.542 146.917 197.062 144.729 197.062 142.188C197.062 133.021 202.812 122.625 214.312 111C221.104 105.208 226.812 101.25 231.438 99.125L223.812 77.5C221.896 71.25 220.938 65.4375 220.938 60.0625V59.0625C220.938 44.1458 226.729 30.25 238.312 17.375C244.062 11.7917 248.562 8.27083 251.812 6.8125C259.479 2.52083 266.833 0.375 273.875 0.375ZM200.438 141.562V142.438C200.438 147.604 203.021 151.083 208.188 152.875C209.188 153.167 210.208 153.312 211.25 153.312H212.688C218.312 153.312 223.646 150.229 228.688 144.062C232.979 137.979 235.125 130.271 235.125 120.938C235.125 115.104 234.146 108.521 232.188 101.188C230.021 101.979 225.583 104.958 218.875 110.125C212.333 116.458 208.479 120.854 207.312 123.312C202.729 130.188 200.438 136.271 200.438 141.562Z" fill="#4131FF"/>
<path d="M269.875 68.5625H270.312C270.854 68.5625 271.229 68.7917 271.438 69.25L269.062 78.625C292.896 78.5417 311.167 78.5 323.875 78.5H374.375C381.625 78.5 385.25 78.7292 385.25 79.1875C385.542 79.2708 385.688 79.5625 385.688 80.0625V80.3125C385.688 81.1458 383.896 81.625 380.312 81.75H378.062C377.271 81.6667 376.875 81.3333 376.875 80.75C374.417 80.6667 372.729 80.625 371.812 80.625C346.396 80.625 311.896 80.6667 268.312 80.75C265.312 91.1667 258.667 112.896 248.375 145.938C248.375 149.979 247.146 152.583 244.688 153.75H243.688C243.354 153.667 243.167 153.25 243.125 152.5C243.208 151.583 244.771 146.417 247.812 137C256.396 109.583 262.146 90.8333 265.062 80.75H234.062C233.312 80.75 232.833 80.5208 232.625 80.0625V79.625C233.083 78.9583 233.604 78.625 234.188 78.625H265.5C265.708 78.625 266.604 75.5 268.188 69.25C268.771 68.7917 269.333 68.5625 269.875 68.5625Z" fill="#4131FF"/>
<path d="M273.625 83.375L274.25 83.4375C275 83.5625 275.271 84.0833 275.062 85V85.1875C273.896 88.6875 273.312 91.3125 273.312 93.0625V93.125C273.312 93.9583 273.458 94.5625 273.75 94.9375H273.812C274.604 94.2708 275.354 93.3125 276.062 92.0625C276.854 90.6875 277.833 88.9375 279 86.8125C279.375 86.3125 279.771 86.0625 280.188 86.0625H280.312C281.479 86.1875 282.062 86.4792 282.062 86.9375L282.125 87.0625C281.333 89.4792 280.938 91.3958 280.938 92.8125V92.9375C280.938 94.0625 281.208 94.7292 281.75 94.9375C282.708 94.9375 284.375 93.9375 286.75 91.9375C288.417 90.1042 289.333 89.1875 289.5 89.1875C289.958 89.0208 290.354 88.9375 290.688 88.9375C291.271 88.9375 291.708 89.1667 292 89.625V89.9375C291.792 90.5625 290.292 92.0625 287.5 94.4375C285.042 96.2292 282.938 97.125 281.188 97.125H280.938C279.229 97.125 278.125 96.2917 277.625 94.625V94.375H277.562C276.021 96.2083 274.5 97.125 273 97.125H272.688C271.438 97.125 270.562 96.4792 270.062 95.1875C269.938 94.7708 269.875 94.2917 269.875 93.75V93.0625C269.875 91.3958 270.5 88.7708 271.75 85.1875C272.25 83.8542 272.875 83.25 273.625 83.375Z" fill="#4131FF"/>
<path d="M317.062 46.625H317.562C317.938 46.7917 318.125 47.2083 318.125 47.875C317.667 49.875 315.125 56.4375 310.5 67.5625C306.125 79.4792 302.979 90.7708 301.062 101.438C300.562 104.062 300.104 107.729 299.688 112.438C299.104 112.938 298.583 113.188 298.125 113.188H297.375C296.833 113.188 296.479 112.979 296.312 112.562V112.438C296.312 107.354 297.479 100.062 299.812 90.5625V90.4375H299.688C296.646 96.3542 294.146 99.3125 292.188 99.3125H292.062C290.312 99.3125 289.292 98.0833 289 95.625V94.125C289 89.5833 290.979 86.0625 294.938 83.5625C296.021 83.1458 297.083 82.9375 298.125 82.9375C298.292 82.9375 298.917 83 300 83.125C305.333 71.2083 309.958 60.2083 313.875 50.125C315 47.7917 316.062 46.625 317.062 46.625ZM292.5 94.25C292.5 94.7083 292.604 95.5208 292.812 96.6875H292.938C293.979 95.2708 295.917 91.5625 298.75 85.5625L298 85.375H297.562C294.979 85.375 293.292 88.1875 292.5 93.8125V94.25Z" fill="#4131FF"/>
<path d="M312.75 83.125C313.542 83.1667 313.938 83.4167 313.938 83.875C312.521 88.125 311.812 91.3333 311.812 93.5C311.812 94.8333 312.104 95.6458 312.688 95.9375C313.521 95.9375 315.208 93.6667 317.75 89.125C318.542 87.7917 319.104 86.4583 319.438 85.125C319.729 83.7917 320.438 83.125 321.562 83.125H321.938C322.604 83.2083 322.938 83.4583 322.938 83.875C322.521 85.2917 322.271 86.2708 322.188 86.8125C322.021 86.8125 321.458 88.5208 320.5 91.9375C317.333 102.396 312.979 118.958 307.438 141.625C308.188 141.583 308.271 142.625 307.688 144.75C306.771 147.042 305.833 148.208 304.875 148.25L303.5 148.312C303 147.854 302.75 147.438 302.75 147.062C302.75 146.938 304 142 306.5 132.25C310.167 117.792 313.396 105.667 316.188 95.875H316.125C314 98.0833 312.042 98.875 310.25 98.25C309.125 98.0833 308.562 96.5417 308.562 93.625C308.562 91.5833 309.312 88.375 310.812 84C311.271 83.4167 311.917 83.125 312.75 83.125Z" fill="#4131FF"/>
</svg>
