<svg width="56" height="56" viewBox="0 0 56 56" fill="none" xmlns="http://www.w3.org/2000/svg">
<rect width="56" height="56" fill="#1A46D0"/>
<path d="M14 30L12.6938 29.2625L12.2774 30L12.6938 30.7375L14 30ZM41.9058 30L43.2119 30.7375L43.6284 30L43.2119 29.2625L41.9058 30ZM15.3062 30.7375C18.1769 25.6536 22.8369 22.5 27.9529 22.5V19.5C21.515 19.5 15.9672 23.4655 12.6938 29.2625L15.3062 30.7375ZM27.9529 22.5C33.0689 22.5 37.7289 25.6536 40.5996 30.7375L43.2119 29.2625C39.9386 23.4655 34.3908 19.5 27.9529 19.5V22.5ZM40.5996 29.2625C37.7289 34.3464 33.0689 37.5 27.9529 37.5V40.5C34.3908 40.5 39.9386 36.5345 43.2119 30.7375L40.5996 29.2625ZM27.9529 37.5C22.8369 37.5 18.1769 34.3464 15.3062 29.2625L12.6938 30.7375C15.9672 36.5345 21.515 40.5 27.9529 40.5V37.5Z" fill="white"/>
<circle cx="28" cy="30" r="4" stroke="white" stroke-width="2"/>
</svg>
