<svg width="56" height="56" viewBox="0 0 56 56" fill="none" xmlns="http://www.w3.org/2000/svg">
<rect width="56" height="56" fill="#1A46D0"/>
<path d="M16 27.7403L15.1292 27.2486L14.8516 27.7403L15.1292 28.232L16 27.7403ZM40 27.7403L40.8708 28.232L41.1484 27.7403L40.8708 27.2486L40 27.7403ZM16.8708 28.232C19.3786 23.7907 23.4722 21 28 21V19C22.591 19 17.9055 22.332 15.1292 27.2486L16.8708 28.232ZM28 21C32.5278 21 36.6214 23.7907 39.1292 28.232L40.8708 27.2486C38.0945 22.332 33.409 19 28 19V21ZM39.1292 27.2486C36.6214 31.6899 32.5278 34.4806 28 34.4806V36.4806C33.409 36.4806 38.0945 33.1487 40.8708 28.232L39.1292 27.2486ZM28 34.4806C23.4722 34.4806 19.3786 31.6899 16.8708 27.2486L15.1292 28.232C17.9055 33.1487 22.591 36.4806 28 36.4806V34.4806Z" fill="white"/>
<circle cx="28.0405" cy="27.7403" r="3.44015" stroke="white" stroke-width="2"/>
</svg>
