<svg width="16" height="16" viewBox="0 0 16 16" fill="none" xmlns="http://www.w3.org/2000/svg">
<path fill-rule="evenodd" clip-rule="evenodd" d="M12.6667 3.33333C13.4031 3.33333 14 3.93029 14 4.66667V5.33333C14.7364 5.33333 15.3334 5.93029 15.3334 6.66667L15.3175 6.81129L13.9973 12.7519C13.9534 13.4486 13.3744 14 12.6667 14H2.00002C1.26364 14 0.666687 13.403 0.666687 12.6667V3.33333C0.666687 2.59695 1.26364 2 2.00002 2H6.00002C6.74669 2 7.22198 2.31697 7.69934 2.91924C7.71253 2.93589 7.74468 2.97731 7.78029 3.02319L7.78041 3.02335L7.78048 3.02345C7.83077 3.08826 7.88792 3.16189 7.90834 3.18721C7.92901 3.21283 7.94643 3.23402 7.96083 3.25153L7.96084 3.25154C8.01947 3.32285 8.02797 3.33319 8.00121 3.33333H12.6667ZM12.6667 4.66667V5.33333H3.33335C2.55562 5.33333 2.20682 5.74764 2.01944 6.50694L2.00002 6.59431V3.33333H6.00002C6.25618 3.33333 6.4047 3.43238 6.65442 3.74744C6.66227 3.75734 6.68477 3.78634 6.7128 3.82248C6.76639 3.89156 6.8402 3.9867 6.87057 4.02436C7.20581 4.43994 7.51768 4.66409 7.99645 4.66666L12.6667 4.66667ZM12.6667 12.6667H2.01628L3.31748 6.81129C3.3333 6.74753 3.34714 6.6997 3.35756 6.66667H13.9838L12.6826 12.522L12.6667 12.6667Z" fill="white"/>
</svg>
