<svg width="315" height="156" viewBox="0 0 315 156" fill="none" xmlns="http://www.w3.org/2000/svg">
<path d="M41.8125 0.5625H42.4375C43.7708 0.5625 44.4375 1.625 44.4375 3.75C44.4792 4.04167 44.5 4.6875 44.5 5.6875V6.9375C44.5 22.9792 33.6667 63 12 127C7.70833 139.625 4.89583 148.354 3.5625 153.188C28.2708 146.521 58.8542 140.521 95.3125 135.188C113.062 132.729 127.375 131.5 138.25 131.5H138.312C145.938 131.667 149.75 132.021 149.75 132.562V132.938C149.75 133.729 149.125 134.125 147.875 134.125C144.208 133.667 140.729 133.438 137.438 133.438C116.688 133.438 82.7292 138.146 35.5625 147.562C23.5208 150.146 12.2083 152.854 1.625 155.688H1.1875C0.770833 155.688 0.479167 155.479 0.3125 155.062V154.688C0.3125 153.229 4.3125 140.562 12.3125 116.688C31.6875 58.9792 41.375 22.8333 41.375 8.25C41.4167 7.83333 41.4375 7.60417 41.4375 7.5625H41.25C39.7917 7.47917 39.0625 6.85417 39.0625 5.6875C39.0625 2.27083 39.9792 0.5625 41.8125 0.5625Z" fill="#4131FF"/>
<path d="M66.3125 83.6875H67.0625C67.9375 83.6875 68.4792 84.3333 68.6875 85.625V85.8125C68.6875 87.1875 67.7708 88.375 65.9375 89.375C65.3958 89.625 64.8333 89.75 64.25 89.75H63.3125L62.875 89.6875C62.125 91.5208 61.75 92.8958 61.75 93.8125V94.3125C61.8333 95.6042 62.2083 96.25 62.875 96.25C64.75 96.25 68.3958 93.6458 73.8125 88.4375C74.2292 88.0625 74.7292 87.8542 75.3125 87.8125C75.8125 87.8125 76.1667 88.0208 76.375 88.4375V88.6875C76.375 89.1042 75.4375 90.0833 73.5625 91.625C68.7708 96 65.1042 98.1875 62.5625 98.1875H61.875C59.8333 97.8958 58.8125 96.8333 58.8125 95V94.3125C58.8125 91.1875 60.3958 88.0417 63.5625 84.875C64.6875 84.0833 65.6042 83.6875 66.3125 83.6875ZM64.0625 87.75H64.3125C65.3125 87.75 65.8125 87.1042 65.8125 85.8125C65.0208 86.5208 64.4375 87.1667 64.0625 87.75Z" fill="#4131FF"/>
<path d="M80.875 68.5625H81.3125C81.8542 68.5625 82.2292 68.7917 82.4375 69.25L80.0625 78.625C103.896 78.5417 122.167 78.5 134.875 78.5H185.375C192.625 78.5 196.25 78.7292 196.25 79.1875C196.542 79.2708 196.688 79.5625 196.688 80.0625V80.3125C196.688 81.1458 194.896 81.625 191.312 81.75H189.062C188.271 81.6667 187.875 81.3333 187.875 80.75C185.417 80.6667 183.729 80.625 182.812 80.625C157.396 80.625 122.896 80.6667 79.3125 80.75C76.3125 91.1667 69.6667 112.896 59.375 145.938C59.375 149.979 58.1458 152.583 55.6875 153.75H54.6875C54.3542 153.667 54.1667 153.25 54.125 152.5C54.2083 151.583 55.7708 146.417 58.8125 137C67.3958 109.583 73.1458 90.8333 76.0625 80.75H45.0625C44.3125 80.75 43.8333 80.5208 43.625 80.0625V79.625C44.0833 78.9583 44.6042 78.625 45.1875 78.625H76.5C76.7083 78.625 77.6042 75.5 79.1875 69.25C79.7708 68.7917 80.3333 68.5625 80.875 68.5625Z" fill="#4131FF"/>
<path d="M87.6875 82.1875H88.5C89.3333 82.1875 89.875 82.625 90.125 83.5V83.9375C90.125 85.3125 89.1042 86.7708 87.0625 88.3125C86.0208 89.0208 85.3333 89.375 85 89.375V89.4375C87.625 89.7292 89.0625 90.0208 89.3125 90.3125C89.6458 90.6875 89.8125 91 89.8125 91.25V91.6875L89.75 92.25C93.875 89.75 95.8542 88.5833 95.6875 88.75C96.0208 88.5833 96.3542 88.5208 96.6875 88.5625L97.0625 89.5C96.7292 90 96.3542 90.375 95.9375 90.625C95.3125 90.9583 94.4375 91.4792 93.3125 92.1875C91.6875 93.1875 89.6875 94.7083 87.3125 96.75C85.5625 98.4167 84.0625 100.042 82.8125 101.625C82.3958 102 81.9167 102.188 81.375 102.188H81.0625C80.6458 102.188 80.3333 102 80.125 101.625V101.375C80.125 101.083 81.375 99.5208 83.875 96.6875C85.8333 94.3125 86.8125 92.6875 86.8125 91.8125C84.0625 91.4792 82.2708 91.0208 81.4375 90.4375C80.6875 89.8542 80.3125 89.1875 80.3125 88.4375V88.3125C80.3125 86.4792 82.0833 84.625 85.625 82.75C86.5 82.375 87.1875 82.1875 87.6875 82.1875ZM83.25 87.9375C84.1667 87.9375 85.2292 87.25 86.4375 85.875C86.8542 85.2917 87.0833 84.7083 87.125 84.125H87.0625C84.5208 85.5833 83.25 86.8542 83.25 87.9375Z" fill="#4131FF"/>
<path d="M266.312 3.75L272.625 3.875C300.25 4.25 314.062 4.75 314.062 5.375C314.479 5.70833 314.688 5.91667 314.688 6V6.625C313.812 7.83333 311.938 8.41667 309.062 8.375H307.562C307.021 8.375 306.667 8.16667 306.5 7.75C306.5 7.45833 306.604 7.14583 306.812 6.8125H306.625C291.042 6.39583 278.458 6.125 268.875 6L268.562 5.9375C236.438 5.47917 192.583 6.14583 137 7.9375C137 8.5625 135.854 8.89583 133.562 8.9375H133.25C131.708 8.9375 130.958 8.52083 131 7.6875C131 6.27083 134.646 5.60417 141.938 5.6875C194.062 3.97917 235.521 3.33333 266.312 3.75ZM205 10.875H205.5C206.208 10.875 206.562 11.125 206.562 11.625C202.854 25.9583 195.917 49.6042 185.75 82.5625C177.5 108.812 170.917 132.146 166 152.562C165.5 153.396 164.729 153.812 163.688 153.812C163.146 153.812 162.729 153.562 162.438 153.062C166.646 135.312 172.146 115.521 178.938 93.6875C190.479 56.2708 198.5 29.1667 203 12.375C203.208 11.375 203.875 10.875 205 10.875Z" fill="#4131FF"/>
<path d="M205.375 83.6875H205.938C206.604 83.6875 206.938 83.9792 206.938 84.5625C205.688 88.7292 205.062 91.8125 205.062 93.8125V94.5625C205.104 95.7292 205.229 96.3542 205.438 96.4375C206.312 96.1458 208.75 93.375 212.75 88.125C213.375 87.9167 213.854 87.8125 214.188 87.8125C214.938 88.0208 215.312 88.2292 215.312 88.4375V88.875C210.562 94.75 207.312 98.1875 205.562 99.1875L203.875 99.25C202.583 98.5833 201.896 97.1875 201.812 95.0625C201.812 94.8125 201.771 94.625 201.688 94.5L201.938 91.9375C199.271 94.8125 197.229 96.25 195.812 96.25C194.312 96 193.562 95.25 193.562 94V92.8125C193.562 90.9375 194.521 88.7083 196.438 86.125C197.812 84.7917 199.083 84.125 200.25 84.125H201.062C201.646 84.125 202.417 84.4167 203.375 85C204.083 84.125 204.75 83.6875 205.375 83.6875ZM196.688 93.375C196.771 93.9583 196.875 94.25 197 94.25C198.292 93.0833 199.521 91.4583 200.688 89.375C200.979 89.0833 201.542 88.2083 202.375 86.75L201.812 86.875C200.896 86.5833 200.312 86.4375 200.062 86.4375C199.104 86.4375 198.083 88 197 91.125C196.792 92.4583 196.688 93.2083 196.688 93.375Z" fill="#4131FF"/>
<path d="M227.938 46.125H228.812C229.188 46.1667 229.375 46.3542 229.375 46.6875V47.5625C229.375 49.9792 228.417 51.7083 226.5 52.75C218.042 78.3333 213.812 93.8958 213.812 99.4375V100.562L214.125 102.625H215C217.5 100.458 221.229 95.5417 226.188 87.875L226.812 87.625H228.25C228.625 87.625 228.812 87.9167 228.812 88.5C221.979 99.625 217.167 105.188 214.375 105.188H212.688C211.521 104.562 210.938 103.5 210.938 102V99.125C210.938 92.6667 215.25 76.625 223.875 51C225.042 47.75 226.396 46.125 227.938 46.125Z" fill="#4131FF"/>
<path d="M246.625 32H247.062C248.271 32 248.875 32.6875 248.875 34.0625C248.042 38.2708 246.688 40.375 244.812 40.375C238.354 60.4583 233.167 77.375 229.25 91.125H229.688C233.438 84.6667 236.375 81.4375 238.5 81.4375H239.188C240.396 81.4375 241.146 82.2708 241.438 83.9375V85.0625C241.104 87.7708 237.938 90.8542 231.938 94.3125C233.688 96.1042 235.208 97 236.5 97H236.938C239.229 97 242.312 94.0625 246.188 88.1875L247.312 88H248.188C248.438 88 248.667 88.2292 248.875 88.6875V89.125C244.292 95.875 240.312 99.25 236.938 99.25H235.375C234 99.25 232.104 98.3542 229.688 96.5625C227.479 100.729 225.604 105.25 224.062 110.125C223.562 110.417 223.104 110.562 222.688 110.562H221.812C221.438 110.562 221.208 110.271 221.125 109.688C225.5 91.7292 232.875 66.7292 243.25 34.6875C243.25 33.3125 244.375 32.4167 246.625 32ZM237.625 84.375C234.75 88.3333 233.312 90.375 233.312 90.5V90.6875C236.479 88.6458 238.062 86.6875 238.062 84.8125V84.375H237.625Z" fill="#4131FF"/>
</svg>
