<!--?xml version="1.0" encoding="UTF-8" standalone="no"?--><svg width="100%" height="100%" viewBox="0 0 360 640" version="1.1" xmlns="http://www.w3.org/2000/svg" xmlns:xlink="http://www.w3.org/1999/xlink" xml:space="preserve" xmlns:serif="http://www.serif.com/" style="fill-rule: evenodd; clip-rule: evenodd; stroke-linecap: round; stroke-linejoin: round; stroke-miterlimit: 1.5;"><path width="360" height="640" style="fill:none;" d="M0 0 L360 0 L360 640 L0 640 Z" class="pTRmHxCr_0"></path><clipPath id="_clip1"><path width="360" height="640" d="M0 0 L360 0 L360 640 L0 640 Z" class="pTRmHxCr_1"></path></clipPath><g clip-path="url(#_clip1)"><g><path style="fill:#f6ff2f;" d="M202.58499999999998,323.113A108,108 0,1,1 418.585,323.113A108,108 0,1,1 202.58499999999998,323.113" class="pTRmHxCr_2"></path><g><g><g><path d="M167.646,461.302c0.671,0.689 7.843,-6.817 15.612,-11.431c6.195,-3.68 10.255,-7.27 10.383,-8.157" style="fill:none;stroke:#2258ff;stroke-width:1.5px;" class="pTRmHxCr_3"></path><path d="M108.437,456.84c0,0 18.408,-5.345 27.827,9.805" style="fill:none;stroke:#2258ff;stroke-width:1.5px;" class="pTRmHxCr_4"></path><path d="M132.095,467.117c0,0 4.858,0.492 8.212,-0.849c3.354,-1.34 2.649,-5.641 9.634,1.318c6.985,6.959 6.363,3.968 6.363,3.968" style="fill:none;stroke:#2258ff;stroke-width:1.5px;" class="pTRmHxCr_5"></path><path d="M11.919,461.614c0,0 33.273,-34.176 59.068,-43.697c25.795,-9.52 36.872,-14.21 50.941,-22.471c14.069,-8.26 21.975,-6.681 27.45,-5.729c4.887,0.85 13.781,5.393 4.761,10.822c-13.785,8.297 -17.19,-3.321 -17.19,-3.321" style="fill:none;stroke:#2258ff;stroke-width:1.5px;" class="pTRmHxCr_6"></path><path d="M142.975,403.535c0,0 -6.735,5.16 -9.474,5.606c-2.739,0.446 -7.448,-8.483 -7.448,-8.483" style="fill:none;stroke:#2258ff;stroke-width:1.5px;" class="pTRmHxCr_7"></path><path d="M132.915,409.204c0,0 -6.833,6.44 -9.875,7.38c-3.041,0.94 -10.967,-8.119 -10.967,-8.119" style="fill:none;stroke:#2258ff;stroke-width:1.5px;" class="pTRmHxCr_8"></path><path d="M123.337,416.582l2.317,0.692c0,0 24.689,-13.378 48.072,-24.077" style="fill:none;stroke:#2258ff;stroke-width:1.5px;" class="pTRmHxCr_9"></path><path d="M131.599,424.374c0,0 7.195,4.529 9.518,11.16c2.323,6.632 2.982,10.517 6.647,12.036" style="fill:none;stroke:#2258ff;stroke-width:1.5px;" class="pTRmHxCr_10"></path><path d="M139.681,432.255c0,0 8.743,-2.613 15.251,-7.402c4.907,-3.611 17.549,-13.763 22.493,-16.494" style="fill:none;stroke:#2258ff;stroke-width:1.5px;" class="pTRmHxCr_11"></path><path d="M147.764,447.57c0,0 0.603,-0.457 13.794,-9.523c5.461,-3.753 21.316,-12.332 25.095,-16.58" style="fill:none;stroke:#2258ff;stroke-width:1.5px;" class="pTRmHxCr_12"></path><path d="M163.837,441.282c0,0 8.051,-0.418 9.15,3.68c1.098,4.098 -7.014,15.136 -6.351,22.054c0.664,6.919 1.385,8.241 -1.373,10.552c-5.776,4.838 -31.735,15.262 -33.284,18.477c-1.548,3.215 -34.12,1.426 -55.466,-0.049c-19.485,-1.346 -42.722,23.367 -53.565,41.971" style="fill:none;stroke:#2258ff;stroke-width:1.5px;" class="pTRmHxCr_13"></path><path d="M147.764,447.57c2.711,3.403 1.311,2.238 1.392,4.376" style="fill:none;stroke:#2258ff;stroke-width:1.5px;" class="pTRmHxCr_14"></path><path d="M96.583,418.741c0,0 25.876,30.125 37.104,30.284c11.228,0.159 11.064,1.932 11.704,3.995" style="fill:none;stroke:#2258ff;stroke-width:1.5px;" class="pTRmHxCr_15"></path><path d="M96.583,418.741c0,0 -6.743,26.905 11.45,34.382" style="fill:none;stroke:#2258ff;stroke-width:1.5px;" class="pTRmHxCr_16"></path></g><path d="M161.346,441.539c0,0 -15.868,6.897 -14.817,22.566" style="fill:none;stroke:#2258ff;stroke-width:1.5px;" class="pTRmHxCr_17"></path></g><path d="M353.67,471.696c0,0 19.694,5.59 31.091,14.93c8.55,7.007 9.654,23.294 9.563,37.712c-0.212,33.638 -4.447,48.307 -4.447,48.307c0,0 -31.289,-22.285 -37.348,-17.341c-6.059,4.943 -24.904,5.172 -16.646,19.199c8.258,14.027 30.491,20.438 30.491,20.438c0,0 17.526,4.346 6.54,9.289c-10.986,4.944 -25.23,-0.402 -30.707,8.051c-5.477,8.453 0,27.719 0,27.719" style="fill:none;stroke:#2258ff;stroke-width:1.5px;" class="pTRmHxCr_18"></path><path d="M234.247,470.822c26.21,-4.003 29.817,-2.224 34.162,12.73c1.673,5.76 18.211,10.114 18.562,18.955" style="fill:none;stroke:#2258ff;stroke-width:1.5px;" class="pTRmHxCr_19"></path><path d="M221.118,282.803c0,0 -13.552,4.512 -5.082,18.58c8.471,14.068 29.611,12.191 23.598,21.057" style="fill:none;stroke:#2258ff;stroke-width:1.5px;" class="pTRmHxCr_20"></path><path d="M291.538,356.432c8.808,-4.63 16.301,-9.577 15.971,-18.57c5.041,7.642 5.046,15.302 1.27,22.975c5.898,-3.029 9.412,-6.782 10.618,-11.234" style="fill:none;stroke:#2258ff;stroke-width:1.5px;" class="pTRmHxCr_21"></path><path d="M232.552,280.326c0,0 -19.65,17.228 17.787,35.92c37.436,18.692 52.638,13.1 40.019,37.779" style="fill:none;stroke:#2258ff;stroke-width:1.5px;" class="pTRmHxCr_22"></path><path d="M333.786,352.162c0,0 6.136,-1.276 2.904,5.902c-3.231,7.177 -8.309,12.169 -1.231,14.021c6.662,1.744 8.121,-4.452 10.805,-7.744c2.685,-3.293 8.574,-5.878 5.301,-12.01c-3.272,-6.132 -8.404,-6.811 -8.404,-6.811" style="fill:none;stroke:#2258ff;stroke-width:1.5px;" class="pTRmHxCr_23"></path><path d="M199.424,367.146c-2.493,3.341 -16.925,5.182 -14.494,0.619" style="fill:none;stroke:#2258ff;stroke-width:1.5px;" class="pTRmHxCr_24"></path><path d="M244.897,357.961l80.398,-20.12" style="fill:none;stroke:#2258ff;stroke-width:1.5px;" class="pTRmHxCr_25"></path><path d="M255.542,341.418c-13.438,-12.905 -59.417,-5.186 -59.711,7.432c-0.051,2.198 4.193,4.52 5.826,1.794c6.407,-10.694 39.793,-15.885 53.885,-9.226Z" style="fill:none;stroke:#2258ff;stroke-width:1.5px;" class="pTRmHxCr_26"></path><g><path d="M204.413,361.937c2.271,-0.547 7.424,-9.681 13.034,-10.439" style="fill:none;stroke:#2258ff;stroke-width:1.5px;" class="pTRmHxCr_27"></path><path d="M206.95,367.478c0,0 4.272,-12.432 27.222,-16.202c22.949,-3.771 16.859,-0.224 16.859,-0.224c-9.67,3.576 -20.356,5.128 -31.935,4.901" style="fill:none;stroke:#2258ff;stroke-width:1.5px;" class="pTRmHxCr_28"></path><path d="M236.149,360.122c-1.433,3.733 -4.936,6.077 -9.379,7.789" style="fill:none;stroke:#2258ff;stroke-width:1.5px;" class="pTRmHxCr_29"></path><path d="M211.933,366.018c3.589,-6.73 12.377,-8.733 24.187,-7.986c-3.663,3.749 -10.74,8.489 -14.485,8.641c-3.749,0.153 -6.194,-1.077 -8.475,-2.531" style="fill:none;stroke:#2258ff;stroke-width:1.5px;" class="pTRmHxCr_30"></path><path d="M217.576,360.879c0,0 -0.135,6.493 2.958,5.733c3.094,-0.76 3.261,-8.282 2.972,-7.915" style="fill:none;stroke:#2258ff;stroke-width:1.5px;" class="pTRmHxCr_31"></path></g><path d="M217.942,437.014c-3.983,5.888 -6.318,8.966 -14.782,11.148" style="fill:none;stroke:#2258ff;stroke-width:1.5px;" class="pTRmHxCr_32"></path><path d="M212.225,431.369c0,0 -9.037,6.468 -14.292,3.787" style="fill:none;stroke:#2258ff;stroke-width:1.5px;" class="pTRmHxCr_33"></path><path d="M196.344,432.679c0,0 -5.345,-3.488 6.353,-2.478c11.697,1.011 10.959,2.637 15.245,1.239" style="fill:none;stroke:#2258ff;stroke-width:1.5px;" class="pTRmHxCr_34"></path><path d="M193.964,408.783c0,0 3.936,1.542 6.657,-2.684c0.774,-1.202 1.184,-2.297 1.373,-3.25c0.485,-2.437 -0.47,-3.949 -0.47,-3.949" style="fill:none;stroke:#2258ff;stroke-width:1.5px;" class="pTRmHxCr_35"></path><path d="M189.633,403.073c0,0 -4.027,0.001 -3.94,1.416c0.086,1.415 4.557,-0.071 5.658,0.933c1.102,1.003 2.904,0.804 2.122,-0.149c-0.781,-0.954 -3.84,-2.2 -3.84,-2.2Z" style="fill:none;stroke:#2258ff;stroke-width:1px;" class="pTRmHxCr_36"></path><path d="M172.514,346.593c0,0 8.013,-5.512 11.761,2.477c3.748,7.99 2.817,14.21 2.817,14.21c-3.385,9.85 -11.508,26.149 -14.578,32.239c-3.036,6.023 3.159,13.644 12.396,16.103" style="fill:none;stroke:#2258ff;stroke-width:1.5px;" class="pTRmHxCr_37"></path><path d="M182.369,302.002c0,0 -11.963,38.088 -9.528,45.83c2.435,7.741 8.893,27.642 8.893,27.642" style="fill:none;stroke:#2258ff;stroke-width:1.5px;" class="pTRmHxCr_38"></path><path d="M180.3,407.182c13.543,4.982 4.862,14.303 5.881,19.074c1.697,7.951 11.295,8.982 8.893,10.758c-2.901,3.324 0.558,10.016 4.447,12.41c13.727,8.449 0.901,22.899 27.452,21.652c30.831,-1.447 91.576,-44.646 93.875,-67.505l3.177,-17.961c2.686,10.603 8.06,10.534 15.66,1.624c0,0 14.121,-14.133 17.757,-22.042c3.597,-7.823 11.684,-18.905 3.426,-37.179c-2.563,-5.67 -27.844,-14.595 -33.032,3.882c-5.188,18.476 -10.164,13.625 -10.164,13.625" style="fill:none;stroke:#2258ff;stroke-width:1.5px;" class="pTRmHxCr_39"></path><path d="M188.841,425.247c0,0 3.537,-0.494 5.717,-3.097c1.907,-2.277 12.008,1.667 18.819,4.106" style="fill:none;stroke:#2258ff;stroke-width:1.5px;" class="pTRmHxCr_40"></path><path style="fill:none;stroke:#2258ff;stroke-width:1.5px;" d="M199.423,367.146A23.69,21.573 0,1,1 246.803,367.146A23.69,21.573 0,1,1 199.423,367.146" class="pTRmHxCr_41"></path><path d="M172.958,345.595c5.442,-0.484 10.58,6.82 11.465,16.3c0.886,9.48 -2.814,17.568 -8.256,18.052c-5.443,0.483 -10.58,-6.821 -11.465,-16.301c-0.886,-9.48 2.814,-17.568 8.256,-18.051Z" style="fill:none;stroke:#2258ff;stroke-width:1.5px;" class="pTRmHxCr_42"></path><path d="M347.528,327.9c0,0 -8.216,-6.69 -14.61,6.718c-6.394,13.409 -6.819,14.753 -8.893,16.31" style="fill:none;stroke:#2258ff;stroke-width:1.5px;" class="pTRmHxCr_43"></path><path d="M218.577,280.326c0,0 -19.396,3.768 -10.163,19.199c9.232,15.43 33.938,17.455 30.974,22.915" style="fill:none;stroke:#2258ff;stroke-width:1.5px;" class="pTRmHxCr_44"></path><path d="M186.816,280.326c0,0 -50.867,22.128 -14.302,59.96" style="fill:none;stroke:#2258ff;stroke-width:1.5px;" class="pTRmHxCr_45"></path><path d="M333.824,405.235c0,0 12.413,90.446 -3.023,123.438" style="fill:none;stroke:#2258ff;stroke-width:1.5px;" class="pTRmHxCr_46"></path><path d="M229.817,470.822c14.907,-2.832 38.788,46.796 40.638,57.851" style="fill:none;stroke:#2258ff;stroke-width:1.5px;" class="pTRmHxCr_47"></path><path d="M342.098,385.913c0,0 9.865,51.425 11.572,103.743" style="fill:none;stroke:#2258ff;stroke-width:1.5px;" class="pTRmHxCr_48"></path><path d="M323.209,240c0,0 71.632,15.807 42.911,118.909" style="fill:none;stroke:#2258ff;stroke-width:1.5px;" class="pTRmHxCr_49"></path><path d="M205.951,500.338c-16.376,3.482 -33.331,5.292 -46.66,3.63c-32.956,-4.108 -92.108,42.665 -92.108,42.665" style="fill:none;stroke:#2258ff;stroke-width:1.5px;" class="pTRmHxCr_50"></path><path d="M279.921,568.255c13.047,5.437 27.601,7.649 43.288,4.005c3.818,-0.887 7.359,-2.121 10.642,-3.641" style="fill:none;stroke:#2258ff;stroke-width:1.5px;" class="pTRmHxCr_51"></path><path d="M232.342,493.529c0,0 32.715,69.029 83.849,64.576c38.472,-3.351 41.925,-72.695 41.925,-72.695" style="fill:none;stroke:#2258ff;stroke-width:1.5px;" class="pTRmHxCr_52"></path><path d="M246.803,482.224c-18.899,-0.668 -30.368,5.432 -40.852,15.004c0,0 5.943,71.63 12.697,77.118c18.023,14.646 22.046,14.244 22.046,14.244c0,0 -5.928,-55.336 17.787,-45.438c23.715,9.898 21.503,30.731 21.503,30.731" style="fill:none;stroke:#2258ff;stroke-width:1.5px;" class="pTRmHxCr_53"></path><path d="M342.207,612.281c0,0 -1.454,-9.898 11.463,-12.386c12.916,-2.489 19.244,-1.239 19.244,-1.239" style="fill:none;stroke:#2258ff;stroke-width:1.5px;" class="pTRmHxCr_54"></path><path d="M275.537,581.315c0,0 -19.48,16.939 -13.34,34.682c6.141,17.743 16.516,14.987 13.34,24.003" style="fill:none;stroke:#2258ff;stroke-width:1.5px;" class="pTRmHxCr_55"></path><path d="M360.9,486.029c0,0 16.326,38.062 -2.784,56.888" style="fill:none;stroke:#2258ff;stroke-width:1.5px;" class="pTRmHxCr_56"></path><path d="M229.166,495.23c0,0 -2.753,22.1 10.798,35.92" style="fill:none;stroke:#2258ff;stroke-width:1.5px;" class="pTRmHxCr_57"></path><path d="M97.691,543.537c-4.522,-2.184 -47.942,5.246 -60.363,13.005c-17.467,10.912 -28.328,7.432 -28.328,7.432" style="fill:none;stroke:#2258ff;stroke-width:1.5px;" class="pTRmHxCr_58"></path><path d="M18.906,563.974c10.778,0.216 66.331,45.726 78.785,67.356c12.455,21.629 -49.456,-37.009 -54.646,-37.009c-5.191,0 15.054,30.242 23.503,37.009c8.448,6.766 -49.442,-31.435 -54.629,-31.435c-5.188,0 23.503,31.435 23.503,31.435" style="fill:none;stroke:#2258ff;stroke-width:1.5px;" class="pTRmHxCr_59"></path><path d="M232.342,470.822c-5.53,-1.332 23.264,4.543 47.696,-34.428c18.588,-29.648 -3.219,-82.78 31.072,-87.044" style="fill:none;stroke:#2258ff;stroke-width:1.5px;" class="pTRmHxCr_60"></path><g><path d="M245.046,400.474l-14.61,17.96" style="fill:none;stroke:#2258ff;stroke-width:1.5px;" class="pTRmHxCr_61"></path><path d="M255.167,397.997l-14.61,17.96" style="fill:none;stroke:#2258ff;stroke-width:1.5px;" class="pTRmHxCr_62"></path><path d="M259.656,400.01l-8.978,11.036" style="fill:none;stroke:#2258ff;stroke-width:1.5px;" class="pTRmHxCr_63"></path><path d="M264.145,403.936l-8.978,11.036" style="fill:none;stroke:#2258ff;stroke-width:1.5px;" class="pTRmHxCr_64"></path><path d="M271.768,402.277l-5.802,6.503" style="fill:none;stroke:#2258ff;stroke-width:1.5px;" class="pTRmHxCr_65"></path><path d="M237.741,398.418l-8.978,11.036" style="fill:none;stroke:#2258ff;stroke-width:1.5px;" class="pTRmHxCr_66"></path></g><path d="M184.554,349.69c-1.129,3.591 -5.692,4.325 -9.992,2.477" style="fill:none;stroke:#2258ff;stroke-width:1.5px;" class="pTRmHxCr_67"></path></g></g></g><style data-made-with="vivus-instant">.pTRmHxCr_0{stroke-dasharray:2000 2002;stroke-dashoffset:2001;animation:pTRmHxCr_draw 1000ms ease-in-out 0ms forwards;}.pTRmHxCr_1{stroke-dasharray:2000 2002;stroke-dashoffset:2001;animation:pTRmHxCr_draw 1000ms ease-in-out 7ms forwards;}.pTRmHxCr_2{stroke-dasharray:679 681;stroke-dashoffset:680;animation:pTRmHxCr_draw 1000ms ease-in-out 14ms forwards;}.pTRmHxCr_3{stroke-dasharray:33 35;stroke-dashoffset:34;animation:pTRmHxCr_draw 1000ms ease-in-out 22ms forwards;}.pTRmHxCr_4{stroke-dasharray:32 34;stroke-dashoffset:33;animation:pTRmHxCr_draw 1000ms ease-in-out 29ms forwards;}.pTRmHxCr_5{stroke-dasharray:29 31;stroke-dashoffset:30;animation:pTRmHxCr_draw 1000ms ease-in-out 37ms forwards;}.pTRmHxCr_6{stroke-dasharray:197 199;stroke-dashoffset:198;animation:pTRmHxCr_draw 1000ms ease-in-out 44ms forwards;}.pTRmHxCr_7{stroke-dasharray:23 25;stroke-dashoffset:24;animation:pTRmHxCr_draw 1000ms ease-in-out 52ms forwards;}.pTRmHxCr_8{stroke-dasharray:27 29;stroke-dashoffset:28;animation:pTRmHxCr_draw 1000ms ease-in-out 59ms forwards;}.pTRmHxCr_9{stroke-dasharray:57 59;stroke-dashoffset:58;animation:pTRmHxCr_draw 1000ms ease-in-out 67ms forwards;}.pTRmHxCr_10{stroke-dasharray:30 32;stroke-dashoffset:31;animation:pTRmHxCr_draw 1000ms ease-in-out 74ms forwards;}.pTRmHxCr_11{stroke-dasharray:45 47;stroke-dashoffset:46;animation:pTRmHxCr_draw 1000ms ease-in-out 82ms forwards;}.pTRmHxCr_12{stroke-dasharray:47 49;stroke-dashoffset:48;animation:pTRmHxCr_draw 1000ms ease-in-out 89ms forwards;}.pTRmHxCr_13{stroke-dasharray:210 212;stroke-dashoffset:211;animation:pTRmHxCr_draw 1000ms ease-in-out 97ms forwards;}.pTRmHxCr_14{stroke-dasharray:5 7;stroke-dashoffset:6;animation:pTRmHxCr_draw 1000ms ease-in-out 104ms forwards;}.pTRmHxCr_15{stroke-dasharray:63 65;stroke-dashoffset:64;animation:pTRmHxCr_draw 1000ms ease-in-out 111ms forwards;}.pTRmHxCr_16{stroke-dasharray:40 42;stroke-dashoffset:41;animation:pTRmHxCr_draw 1000ms ease-in-out 119ms forwards;}.pTRmHxCr_17{stroke-dasharray:29 31;stroke-dashoffset:30;animation:pTRmHxCr_draw 1000ms ease-in-out 126ms forwards;}.pTRmHxCr_18{stroke-dasharray:313 315;stroke-dashoffset:314;animation:pTRmHxCr_draw 1000ms ease-in-out 134ms forwards;}.pTRmHxCr_19{stroke-dasharray:70 72;stroke-dashoffset:71;animation:pTRmHxCr_draw 1000ms ease-in-out 141ms forwards;}.pTRmHxCr_20{stroke-dasharray:58 60;stroke-dashoffset:59;animation:pTRmHxCr_draw 1000ms ease-in-out 149ms forwards;}.pTRmHxCr_21{stroke-dasharray:67 69;stroke-dashoffset:68;animation:pTRmHxCr_draw 1000ms ease-in-out 156ms forwards;}.pTRmHxCr_22{stroke-dasharray:115 117;stroke-dashoffset:116;animation:pTRmHxCr_draw 1000ms ease-in-out 164ms forwards;}.pTRmHxCr_23{stroke-dasharray:67 69;stroke-dashoffset:68;animation:pTRmHxCr_draw 1000ms ease-in-out 171ms forwards;}.pTRmHxCr_24{stroke-dasharray:18 20;stroke-dashoffset:19;animation:pTRmHxCr_draw 1000ms ease-in-out 179ms forwards;}.pTRmHxCr_25{stroke-dasharray:83 85;stroke-dashoffset:84;animation:pTRmHxCr_draw 1000ms ease-in-out 186ms forwards;}.pTRmHxCr_26{stroke-dasharray:132 134;stroke-dashoffset:133;animation:pTRmHxCr_draw 1000ms ease-in-out 194ms forwards;}.pTRmHxCr_27{stroke-dasharray:17 19;stroke-dashoffset:18;animation:pTRmHxCr_draw 1000ms ease-in-out 201ms forwards;}.pTRmHxCr_28{stroke-dasharray:85 87;stroke-dashoffset:86;animation:pTRmHxCr_draw 1000ms ease-in-out 208ms forwards;}.pTRmHxCr_29{stroke-dasharray:13 15;stroke-dashoffset:14;animation:pTRmHxCr_draw 1000ms ease-in-out 216ms forwards;}.pTRmHxCr_30{stroke-dasharray:54 56;stroke-dashoffset:55;animation:pTRmHxCr_draw 1000ms ease-in-out 223ms forwards;}.pTRmHxCr_31{stroke-dasharray:17 19;stroke-dashoffset:18;animation:pTRmHxCr_draw 1000ms ease-in-out 231ms forwards;}.pTRmHxCr_32{stroke-dasharray:20 22;stroke-dashoffset:21;animation:pTRmHxCr_draw 1000ms ease-in-out 238ms forwards;}.pTRmHxCr_33{stroke-dasharray:16 18;stroke-dashoffset:17;animation:pTRmHxCr_draw 1000ms ease-in-out 246ms forwards;}.pTRmHxCr_34{stroke-dasharray:26 28;stroke-dashoffset:27;animation:pTRmHxCr_draw 1000ms ease-in-out 253ms forwards;}.pTRmHxCr_35{stroke-dasharray:16 18;stroke-dashoffset:17;animation:pTRmHxCr_draw 1000ms ease-in-out 261ms forwards;}.pTRmHxCr_36{stroke-dasharray:19 21;stroke-dashoffset:20;animation:pTRmHxCr_draw 1000ms ease-in-out 268ms forwards;}.pTRmHxCr_37{stroke-dasharray:88 90;stroke-dashoffset:89;animation:pTRmHxCr_draw 1000ms ease-in-out 276ms forwards;}.pTRmHxCr_38{stroke-dasharray:77 79;stroke-dashoffset:78;animation:pTRmHxCr_draw 1000ms ease-in-out 283ms forwards;}.pTRmHxCr_39{stroke-dasharray:380 382;stroke-dashoffset:381;animation:pTRmHxCr_draw 1000ms ease-in-out 291ms forwards;}.pTRmHxCr_40{stroke-dasharray:27 29;stroke-dashoffset:28;animation:pTRmHxCr_draw 1000ms ease-in-out 298ms forwards;}.pTRmHxCr_41{stroke-dasharray:143 145;stroke-dashoffset:144;animation:pTRmHxCr_draw 1000ms ease-in-out 305ms forwards;}.pTRmHxCr_42{stroke-dasharray:87 89;stroke-dashoffset:88;animation:pTRmHxCr_draw 1000ms ease-in-out 313ms forwards;}.pTRmHxCr_43{stroke-dasharray:38 40;stroke-dashoffset:39;animation:pTRmHxCr_draw 1000ms ease-in-out 320ms forwards;}.pTRmHxCr_44{stroke-dasharray:67 69;stroke-dashoffset:68;animation:pTRmHxCr_draw 1000ms ease-in-out 328ms forwards;}.pTRmHxCr_45{stroke-dasharray:76 78;stroke-dashoffset:77;animation:pTRmHxCr_draw 1000ms ease-in-out 335ms forwards;}.pTRmHxCr_46{stroke-dasharray:125 127;stroke-dashoffset:126;animation:pTRmHxCr_draw 1000ms ease-in-out 343ms forwards;}.pTRmHxCr_47{stroke-dasharray:74 76;stroke-dashoffset:75;animation:pTRmHxCr_draw 1000ms ease-in-out 350ms forwards;}.pTRmHxCr_48{stroke-dasharray:105 107;stroke-dashoffset:106;animation:pTRmHxCr_draw 1000ms ease-in-out 358ms forwards;}.pTRmHxCr_49{stroke-dasharray:142 144;stroke-dashoffset:143;animation:pTRmHxCr_draw 1000ms ease-in-out 365ms forwards;}.pTRmHxCr_50{stroke-dasharray:151 153;stroke-dashoffset:152;animation:pTRmHxCr_draw 1000ms ease-in-out 373ms forwards;}.pTRmHxCr_51{stroke-dasharray:56 58;stroke-dashoffset:57;animation:pTRmHxCr_draw 1000ms ease-in-out 380ms forwards;}.pTRmHxCr_52{stroke-dasharray:203 205;stroke-dashoffset:204;animation:pTRmHxCr_draw 1000ms ease-in-out 388ms forwards;}.pTRmHxCr_53{stroke-dasharray:248 250;stroke-dashoffset:249;animation:pTRmHxCr_draw 1000ms ease-in-out 395ms forwards;}.pTRmHxCr_54{stroke-dasharray:39 41;stroke-dashoffset:40;animation:pTRmHxCr_draw 1000ms ease-in-out 402ms forwards;}.pTRmHxCr_55{stroke-dasharray:69 71;stroke-dashoffset:70;animation:pTRmHxCr_draw 1000ms ease-in-out 410ms forwards;}.pTRmHxCr_56{stroke-dasharray:61 63;stroke-dashoffset:62;animation:pTRmHxCr_draw 1000ms ease-in-out 417ms forwards;}.pTRmHxCr_57{stroke-dasharray:39 41;stroke-dashoffset:40;animation:pTRmHxCr_draw 1000ms ease-in-out 425ms forwards;}.pTRmHxCr_58{stroke-dasharray:93 95;stroke-dashoffset:94;animation:pTRmHxCr_draw 1000ms ease-in-out 432ms forwards;}.pTRmHxCr_59{stroke-dasharray:332 334;stroke-dashoffset:333;animation:pTRmHxCr_draw 1000ms ease-in-out 440ms forwards;}.pTRmHxCr_60{stroke-dasharray:162 164;stroke-dashoffset:163;animation:pTRmHxCr_draw 1000ms ease-in-out 447ms forwards;}.pTRmHxCr_61{stroke-dasharray:24 26;stroke-dashoffset:25;animation:pTRmHxCr_draw 1000ms ease-in-out 455ms forwards;}.pTRmHxCr_62{stroke-dasharray:24 26;stroke-dashoffset:25;animation:pTRmHxCr_draw 1000ms ease-in-out 462ms forwards;}.pTRmHxCr_63{stroke-dasharray:15 17;stroke-dashoffset:16;animation:pTRmHxCr_draw 1000ms ease-in-out 470ms forwards;}.pTRmHxCr_64{stroke-dasharray:15 17;stroke-dashoffset:16;animation:pTRmHxCr_draw 1000ms ease-in-out 477ms forwards;}.pTRmHxCr_65{stroke-dasharray:9 11;stroke-dashoffset:10;animation:pTRmHxCr_draw 1000ms ease-in-out 485ms forwards;}.pTRmHxCr_66{stroke-dasharray:15 17;stroke-dashoffset:16;animation:pTRmHxCr_draw 1000ms ease-in-out 492ms forwards;}.pTRmHxCr_67{stroke-dasharray:12 14;stroke-dashoffset:13;animation:pTRmHxCr_draw 1000ms ease-in-out 500ms forwards;}@keyframes pTRmHxCr_draw{100%{stroke-dashoffset:0;}}@keyframes pTRmHxCr_fade{0%{stroke-opacity:1;}92.98245614035088%{stroke-opacity:1;}100%{stroke-opacity:0;}}</style></svg>