<!--?xml version="1.0" encoding="UTF-8" standalone="no"?--><svg width="100%" height="100%" viewBox="0 0 479 426" version="1.1" xmlns="http://www.w3.org/2000/svg" xmlns:xlink="http://www.w3.org/1999/xlink" xml:space="preserve" xmlns:serif="http://www.serif.com/" style="fill-rule: evenodd; clip-rule: evenodd; stroke-linecap: round; stroke-linejoin: round; stroke-miterlimit: 1.5;"><path style="fill:#f6ff2f;" d="M194.33499999999998,108A108,108 0,1,1 410.335,108A108,108 0,1,1 194.33499999999998,108" class="TZUaphbV_0"></path><g><g><g><path d="M159.396,246.189c0.671,0.689 7.843,-6.817 15.612,-11.432c6.195,-3.679 10.255,-7.269 10.383,-8.156" style="fill:none;stroke:#2258ff;stroke-width:1.5px;" class="TZUaphbV_1"></path><path d="M100.187,241.727c0,0 18.408,-5.346 27.827,9.805" style="fill:none;stroke:#2258ff;stroke-width:1.5px;" class="TZUaphbV_2"></path><path d="M123.845,252.004c0,0 4.858,0.491 8.212,-0.849c3.354,-1.34 2.649,-5.642 9.634,1.317c6.985,6.959 6.363,3.969 6.363,3.969" style="fill:none;stroke:#2258ff;stroke-width:1.5px;" class="TZUaphbV_3"></path><path d="M3.669,246.501c0,0 33.273,-34.176 59.068,-43.697c25.795,-9.521 36.872,-14.21 50.941,-22.471c14.069,-8.26 21.975,-6.681 27.45,-5.729c4.887,0.85 13.781,5.393 4.761,10.822c-13.785,8.297 -17.19,-3.321 -17.19,-3.321" style="fill:none;stroke:#2258ff;stroke-width:1.5px;" class="TZUaphbV_4"></path><path d="M134.725,188.422c0,0 -6.735,5.16 -9.474,5.606c-2.739,0.446 -7.448,-8.483 -7.448,-8.483" style="fill:none;stroke:#2258ff;stroke-width:1.5px;" class="TZUaphbV_5"></path><path d="M124.665,194.091c0,0 -6.833,6.439 -9.875,7.38c-3.041,0.94 -10.967,-8.119 -10.967,-8.119" style="fill:none;stroke:#2258ff;stroke-width:1.5px;" class="TZUaphbV_6"></path><path d="M115.087,201.469l2.317,0.692c0,0 24.689,-13.379 48.072,-24.077" style="fill:none;stroke:#2258ff;stroke-width:1.5px;" class="TZUaphbV_7"></path><path d="M123.349,209.261c0,0 7.195,4.529 9.518,11.16c2.323,6.631 2.982,10.516 6.647,12.036" style="fill:none;stroke:#2258ff;stroke-width:1.5px;" class="TZUaphbV_8"></path><path d="M131.431,217.141c0,0 8.743,-2.612 15.251,-7.401c4.907,-3.611 17.549,-13.763 22.493,-16.494" style="fill:none;stroke:#2258ff;stroke-width:1.5px;" class="TZUaphbV_9"></path><path d="M139.514,232.457c0,0 0.603,-0.457 13.794,-9.523c5.461,-3.754 21.316,-12.332 25.095,-16.58" style="fill:none;stroke:#2258ff;stroke-width:1.5px;" class="TZUaphbV_10"></path><path d="M155.587,226.168c0,0 8.051,-0.417 9.15,3.681c1.098,4.098 -7.014,15.135 -6.351,22.054c0.664,6.919 1.385,8.241 -1.373,10.552c-5.776,4.838 -31.735,15.262 -33.284,18.477c-1.548,3.214 -34.12,1.426 -55.466,-0.049c-19.485,-1.347 -42.722,23.367 -53.565,41.971" style="fill:none;stroke:#2258ff;stroke-width:1.5px;" class="TZUaphbV_11"></path><path d="M139.514,232.457c2.711,3.403 1.311,2.238 1.392,4.375" style="fill:none;stroke:#2258ff;stroke-width:1.5px;" class="TZUaphbV_12"></path><path d="M88.333,203.628c0,0 25.876,30.125 37.104,30.284c11.228,0.159 11.064,1.932 11.704,3.995" style="fill:none;stroke:#2258ff;stroke-width:1.5px;" class="TZUaphbV_13"></path><path d="M88.333,203.628c0,0 -6.743,26.905 11.45,34.382" style="fill:none;stroke:#2258ff;stroke-width:1.5px;" class="TZUaphbV_14"></path></g><path d="M153.096,226.426c0,0 -15.868,6.897 -14.817,22.566" style="fill:none;stroke:#2258ff;stroke-width:1.5px;" class="TZUaphbV_15"></path></g><path d="M345.42,256.582c0,0 19.694,5.591 31.091,14.931c8.55,7.006 9.654,23.294 9.563,37.712c-0.212,33.638 -4.447,48.307 -4.447,48.307c0,0 -31.289,-22.285 -37.348,-17.341c-6.059,4.943 -24.904,5.172 -16.646,19.199c8.258,14.026 30.491,20.438 30.491,20.438c0,0 17.526,4.346 6.54,9.289c-10.986,4.943 -25.23,-0.402 -30.707,8.051c-5.477,8.453 0,27.719 0,27.719" style="fill:none;stroke:#2258ff;stroke-width:1.5px;" class="TZUaphbV_16"></path><path d="M225.997,255.709c26.21,-4.003 29.817,-2.224 34.162,12.73c1.673,5.76 18.211,10.114 18.562,18.955" style="fill:none;stroke:#2258ff;stroke-width:1.5px;" class="TZUaphbV_17"></path><path d="M212.868,67.69c0,0 -13.552,4.512 -5.082,18.58c8.471,14.067 29.611,12.191 23.598,21.056" style="fill:none;stroke:#2258ff;stroke-width:1.5px;" class="TZUaphbV_18"></path><path d="M283.288,141.319c8.808,-4.631 16.301,-9.578 15.971,-18.57c5.041,7.642 5.046,15.302 1.27,22.975c5.898,-3.03 9.412,-6.782 10.618,-11.234" style="fill:none;stroke:#2258ff;stroke-width:1.5px;" class="TZUaphbV_19"></path><path d="M224.302,65.213c0,0 -19.65,17.228 17.787,35.92c37.436,18.692 52.638,13.1 40.019,37.779" style="fill:none;stroke:#2258ff;stroke-width:1.5px;" class="TZUaphbV_20"></path><path d="M325.536,137.049c0,0 6.136,-1.276 2.904,5.901c-3.231,7.177 -8.309,12.17 -1.231,14.022c6.662,1.744 8.121,-4.452 10.805,-7.745c2.685,-3.292 8.574,-5.877 5.301,-12.009c-3.272,-6.132 -8.404,-6.812 -8.404,-6.812" style="fill:none;stroke:#2258ff;stroke-width:1.5px;" class="TZUaphbV_21"></path><path d="M191.174,152.033c-2.493,3.341 -16.925,5.182 -14.494,0.619" style="fill:none;stroke:#2258ff;stroke-width:1.5px;" class="TZUaphbV_22"></path><path d="M236.647,142.848l80.398,-20.121" style="fill:none;stroke:#2258ff;stroke-width:1.5px;" class="TZUaphbV_23"></path><path d="M247.292,126.305c-13.438,-12.905 -59.417,-5.186 -59.711,7.432c-0.051,2.198 4.193,4.52 5.826,1.794c6.407,-10.694 39.793,-15.885 53.885,-9.226Z" style="fill:none;stroke:#2258ff;stroke-width:1.5px;" class="TZUaphbV_24"></path><g><path d="M196.163,146.824c2.271,-0.547 7.424,-9.681 13.034,-10.439" style="fill:none;stroke:#2258ff;stroke-width:1.5px;" class="TZUaphbV_25"></path><path d="M198.7,152.364c0,0 4.272,-12.431 27.222,-16.201c22.949,-3.771 16.859,-0.224 16.859,-0.224c-9.67,3.575 -20.356,5.128 -31.935,4.901" style="fill:none;stroke:#2258ff;stroke-width:1.5px;" class="TZUaphbV_26"></path><path d="M227.899,145.009c-1.433,3.733 -4.936,6.077 -9.379,7.789" style="fill:none;stroke:#2258ff;stroke-width:1.5px;" class="TZUaphbV_27"></path><path d="M203.683,150.905c3.589,-6.73 12.377,-8.733 24.187,-7.986c-3.663,3.749 -10.74,8.488 -14.485,8.641c-3.749,0.153 -6.194,-1.077 -8.475,-2.531" style="fill:none;stroke:#2258ff;stroke-width:1.5px;" class="TZUaphbV_28"></path><path d="M209.326,145.766c0,0 -0.135,6.492 2.958,5.732c3.094,-0.76 3.261,-8.281 2.972,-7.914" style="fill:none;stroke:#2258ff;stroke-width:1.5px;" class="TZUaphbV_29"></path></g><path d="M209.692,221.901c-3.983,5.888 -6.318,8.966 -14.782,11.147" style="fill:none;stroke:#2258ff;stroke-width:1.5px;" class="TZUaphbV_30"></path><path d="M203.975,216.256c0,0 -9.037,6.468 -14.292,3.787" style="fill:none;stroke:#2258ff;stroke-width:1.5px;" class="TZUaphbV_31"></path><path d="M188.094,217.565c0,0 -5.345,-3.487 6.353,-2.477c11.697,1.01 10.959,2.637 15.245,1.239" style="fill:none;stroke:#2258ff;stroke-width:1.5px;" class="TZUaphbV_32"></path><path d="M185.714,193.67c0,0 3.936,1.541 6.657,-2.685c0.774,-1.201 1.184,-2.296 1.373,-3.249c0.485,-2.437 -0.47,-3.949 -0.47,-3.949" style="fill:none;stroke:#2258ff;stroke-width:1.5px;" class="TZUaphbV_33"></path><path d="M181.383,187.96c0,0 -4.027,0.001 -3.94,1.416c0.086,1.415 4.557,-0.071 5.658,0.932c1.102,1.004 2.904,0.805 2.122,-0.148c-0.781,-0.954 -3.84,-2.2 -3.84,-2.2Z" style="fill:none;stroke:#2258ff;stroke-width:1px;" class="TZUaphbV_34"></path><path d="M164.264,131.48c0,0 8.013,-5.512 11.761,2.477c3.748,7.989 2.817,14.21 2.817,14.21c-3.385,9.85 -11.508,26.149 -14.578,32.239c-3.036,6.023 3.159,13.644 12.396,16.102" style="fill:none;stroke:#2258ff;stroke-width:1.5px;" class="TZUaphbV_35"></path><path d="M174.119,86.889c0,0 -11.963,38.088 -9.528,45.83c2.435,7.741 8.893,27.642 8.893,27.642" style="fill:none;stroke:#2258ff;stroke-width:1.5px;" class="TZUaphbV_36"></path><path d="M172.05,192.069c13.543,4.982 4.862,14.303 5.881,19.074c1.697,7.951 11.295,8.981 8.893,10.758c-2.901,3.323 0.558,10.016 4.447,12.409c13.727,8.45 0.901,22.9 27.452,21.653c30.831,-1.447 91.576,-44.646 93.875,-67.506l3.177,-17.96c2.686,10.603 8.06,10.534 15.66,1.624c0,0 14.121,-14.134 17.757,-22.043c3.597,-7.822 11.684,-18.905 3.426,-37.178c-2.563,-5.67 -27.844,-14.595 -33.032,3.881c-5.188,18.477 -10.164,13.625 -10.164,13.625" style="fill:none;stroke:#2258ff;stroke-width:1.5px;" class="TZUaphbV_37"></path><path d="M180.591,210.134c0,0 3.537,-0.494 5.717,-3.097c1.907,-2.277 12.008,1.666 18.819,4.106" style="fill:none;stroke:#2258ff;stroke-width:1.5px;" class="TZUaphbV_38"></path><path style="fill:none;stroke:#2258ff;stroke-width:1.5px;" d="M191.173,152.033A23.69,21.573 0,1,1 238.553,152.033A23.69,21.573 0,1,1 191.173,152.033" class="TZUaphbV_39"></path><path d="M164.708,130.481c5.442,-0.483 10.58,6.821 11.465,16.301c0.886,9.48 -2.814,17.568 -8.256,18.051c-5.443,0.484 -10.58,-6.82 -11.465,-16.3c-0.886,-9.48 2.814,-17.568 8.256,-18.052Z" style="fill:none;stroke:#2258ff;stroke-width:1.5px;" class="TZUaphbV_40"></path><path d="M339.278,112.787c0,0 -8.216,-6.69 -14.61,6.718c-6.394,13.409 -6.819,14.753 -8.893,16.31" style="fill:none;stroke:#2258ff;stroke-width:1.5px;" class="TZUaphbV_41"></path><path d="M210.327,65.213c0,0 -19.396,3.768 -10.163,19.199c9.232,15.43 33.938,17.455 30.974,22.914" style="fill:none;stroke:#2258ff;stroke-width:1.5px;" class="TZUaphbV_42"></path><path d="M178.566,65.213c0,0 -50.867,22.128 -14.302,59.96" style="fill:none;stroke:#2258ff;stroke-width:1.5px;" class="TZUaphbV_43"></path><path d="M325.574,190.122c0,0 12.413,90.446 -3.023,123.438" style="fill:none;stroke:#2258ff;stroke-width:1.5px;" class="TZUaphbV_44"></path><path d="M221.567,255.709c14.907,-2.832 38.788,46.796 40.638,57.851" style="fill:none;stroke:#2258ff;stroke-width:1.5px;" class="TZUaphbV_45"></path><path d="M333.848,170.8c0,0 9.865,51.425 11.572,103.743" style="fill:none;stroke:#2258ff;stroke-width:1.5px;" class="TZUaphbV_46"></path><path d="M314.959,24.887c0,0 71.632,15.807 42.911,118.909" style="fill:none;stroke:#2258ff;stroke-width:1.5px;" class="TZUaphbV_47"></path><path d="M384.795,289.24c20.609,7.212 38.176,7.78 50.827,10.695c11.053,2.547 47.305,-9.152 40.911,0c-14.186,20.309 -66.491,110.15 -119.044,124.952" style="fill:none;stroke:#2258ff;stroke-width:1.5px;" class="TZUaphbV_48"></path><path d="M380.992,424.887c56.205,-4.586 75.438,-43.075 86.013,-74.168" style="fill:none;stroke:#2258ff;stroke-width:1.5px;" class="TZUaphbV_49"></path><path d="M197.701,285.225c-16.376,3.482 -33.331,5.292 -46.66,3.63c-32.956,-4.108 -92.108,42.665 -92.108,42.665" style="fill:none;stroke:#2258ff;stroke-width:1.5px;" class="TZUaphbV_50"></path><path d="M271.671,353.142c13.047,5.437 27.601,7.649 43.288,4.005c3.818,-0.887 7.359,-2.121 10.642,-3.641" style="fill:none;stroke:#2258ff;stroke-width:1.5px;" class="TZUaphbV_51"></path><path d="M224.092,278.416c0,0 32.715,69.029 83.849,64.575c38.472,-3.35 41.925,-72.694 41.925,-72.694" style="fill:none;stroke:#2258ff;stroke-width:1.5px;" class="TZUaphbV_52"></path><path d="M238.553,267.111c-18.899,-0.668 -30.368,5.431 -40.852,15.004c0,0 5.943,71.63 12.697,77.118c18.023,14.646 22.046,14.244 22.046,14.244c0,0 -5.928,-55.336 17.787,-45.438c23.715,9.898 21.503,30.731 21.503,30.731" style="fill:none;stroke:#2258ff;stroke-width:1.5px;" class="TZUaphbV_53"></path><path d="M333.957,397.168c0,0 -1.454,-9.898 11.463,-12.386c12.916,-2.489 19.244,-1.239 19.244,-1.239" style="fill:none;stroke:#2258ff;stroke-width:1.5px;" class="TZUaphbV_54"></path><path d="M267.287,366.202c0,0 -19.48,16.939 -13.34,34.682c6.141,17.743 16.516,14.986 13.34,24.003" style="fill:none;stroke:#2258ff;stroke-width:1.5px;" class="TZUaphbV_55"></path><path d="M352.65,270.916c0,0 16.326,38.062 -2.784,56.888" style="fill:none;stroke:#2258ff;stroke-width:1.5px;" class="TZUaphbV_56"></path><path d="M220.916,280.117c0,0 -2.753,22.1 10.798,35.92" style="fill:none;stroke:#2258ff;stroke-width:1.5px;" class="TZUaphbV_57"></path><path d="M89.441,328.424c-4.522,-2.184 -47.942,5.246 -60.363,13.005c-17.467,10.912 -28.328,7.432 -28.328,7.432" style="fill:none;stroke:#2258ff;stroke-width:1.5px;" class="TZUaphbV_58"></path><path d="M10.656,348.861c10.778,0.216 66.331,45.725 78.785,67.355c12.455,21.63 -49.456,-37.008 -54.646,-37.008c-5.191,0 15.054,30.242 23.503,37.008c8.448,6.767 -49.442,-31.434 -54.629,-31.434c-5.188,0 23.503,31.434 23.503,31.434" style="fill:none;stroke:#2258ff;stroke-width:1.5px;" class="TZUaphbV_59"></path><path d="M224.092,255.709c-5.53,-1.332 23.264,4.542 47.696,-34.428c18.588,-29.648 -3.219,-82.78 31.072,-87.045" style="fill:none;stroke:#2258ff;stroke-width:1.5px;" class="TZUaphbV_60"></path><g><path d="M236.796,185.361l-14.61,17.96" style="fill:none;stroke:#2258ff;stroke-width:1.5px;" class="TZUaphbV_61"></path><path d="M246.917,182.883l-14.61,17.961" style="fill:none;stroke:#2258ff;stroke-width:1.5px;" class="TZUaphbV_62"></path><path d="M251.406,184.897l-8.978,11.036" style="fill:none;stroke:#2258ff;stroke-width:1.5px;" class="TZUaphbV_63"></path><path d="M255.895,188.823l-8.978,11.036" style="fill:none;stroke:#2258ff;stroke-width:1.5px;" class="TZUaphbV_64"></path><path d="M263.518,187.163l-5.802,6.503" style="fill:none;stroke:#2258ff;stroke-width:1.5px;" class="TZUaphbV_65"></path><path d="M229.491,183.304l-8.978,11.037" style="fill:none;stroke:#2258ff;stroke-width:1.5px;" class="TZUaphbV_66"></path></g><path d="M176.304,134.577c-1.129,3.591 -5.692,4.325 -9.992,2.477" style="fill:none;stroke:#2258ff;stroke-width:1.5px;" class="TZUaphbV_67"></path></g><style data-made-with="vivus-instant">.TZUaphbV_0{stroke-dasharray:679 681;stroke-dashoffset:680;animation:TZUaphbV_draw 666ms ease-in-out 0ms forwards;}.TZUaphbV_1{stroke-dasharray:33 35;stroke-dashoffset:34;animation:TZUaphbV_draw 666ms ease-in-out 4ms forwards;}.TZUaphbV_2{stroke-dasharray:32 34;stroke-dashoffset:33;animation:TZUaphbV_draw 666ms ease-in-out 9ms forwards;}.TZUaphbV_3{stroke-dasharray:29 31;stroke-dashoffset:30;animation:TZUaphbV_draw 666ms ease-in-out 14ms forwards;}.TZUaphbV_4{stroke-dasharray:197 199;stroke-dashoffset:198;animation:TZUaphbV_draw 666ms ease-in-out 19ms forwards;}.TZUaphbV_5{stroke-dasharray:23 25;stroke-dashoffset:24;animation:TZUaphbV_draw 666ms ease-in-out 24ms forwards;}.TZUaphbV_6{stroke-dasharray:27 29;stroke-dashoffset:28;animation:TZUaphbV_draw 666ms ease-in-out 29ms forwards;}.TZUaphbV_7{stroke-dasharray:57 59;stroke-dashoffset:58;animation:TZUaphbV_draw 666ms ease-in-out 34ms forwards;}.TZUaphbV_8{stroke-dasharray:30 32;stroke-dashoffset:31;animation:TZUaphbV_draw 666ms ease-in-out 39ms forwards;}.TZUaphbV_9{stroke-dasharray:45 47;stroke-dashoffset:46;animation:TZUaphbV_draw 666ms ease-in-out 44ms forwards;}.TZUaphbV_10{stroke-dasharray:47 49;stroke-dashoffset:48;animation:TZUaphbV_draw 666ms ease-in-out 49ms forwards;}.TZUaphbV_11{stroke-dasharray:210 212;stroke-dashoffset:211;animation:TZUaphbV_draw 666ms ease-in-out 54ms forwards;}.TZUaphbV_12{stroke-dasharray:5 7;stroke-dashoffset:6;animation:TZUaphbV_draw 666ms ease-in-out 59ms forwards;}.TZUaphbV_13{stroke-dasharray:63 65;stroke-dashoffset:64;animation:TZUaphbV_draw 666ms ease-in-out 64ms forwards;}.TZUaphbV_14{stroke-dasharray:40 42;stroke-dashoffset:41;animation:TZUaphbV_draw 666ms ease-in-out 69ms forwards;}.TZUaphbV_15{stroke-dasharray:29 31;stroke-dashoffset:30;animation:TZUaphbV_draw 666ms ease-in-out 74ms forwards;}.TZUaphbV_16{stroke-dasharray:313 315;stroke-dashoffset:314;animation:TZUaphbV_draw 666ms ease-in-out 79ms forwards;}.TZUaphbV_17{stroke-dasharray:70 72;stroke-dashoffset:71;animation:TZUaphbV_draw 666ms ease-in-out 84ms forwards;}.TZUaphbV_18{stroke-dasharray:58 60;stroke-dashoffset:59;animation:TZUaphbV_draw 666ms ease-in-out 89ms forwards;}.TZUaphbV_19{stroke-dasharray:67 69;stroke-dashoffset:68;animation:TZUaphbV_draw 666ms ease-in-out 94ms forwards;}.TZUaphbV_20{stroke-dasharray:115 117;stroke-dashoffset:116;animation:TZUaphbV_draw 666ms ease-in-out 99ms forwards;}.TZUaphbV_21{stroke-dasharray:67 69;stroke-dashoffset:68;animation:TZUaphbV_draw 666ms ease-in-out 104ms forwards;}.TZUaphbV_22{stroke-dasharray:18 20;stroke-dashoffset:19;animation:TZUaphbV_draw 666ms ease-in-out 109ms forwards;}.TZUaphbV_23{stroke-dasharray:83 85;stroke-dashoffset:84;animation:TZUaphbV_draw 666ms ease-in-out 114ms forwards;}.TZUaphbV_24{stroke-dasharray:132 134;stroke-dashoffset:133;animation:TZUaphbV_draw 666ms ease-in-out 119ms forwards;}.TZUaphbV_25{stroke-dasharray:17 19;stroke-dashoffset:18;animation:TZUaphbV_draw 666ms ease-in-out 124ms forwards;}.TZUaphbV_26{stroke-dasharray:85 87;stroke-dashoffset:86;animation:TZUaphbV_draw 666ms ease-in-out 129ms forwards;}.TZUaphbV_27{stroke-dasharray:13 15;stroke-dashoffset:14;animation:TZUaphbV_draw 666ms ease-in-out 134ms forwards;}.TZUaphbV_28{stroke-dasharray:54 56;stroke-dashoffset:55;animation:TZUaphbV_draw 666ms ease-in-out 139ms forwards;}.TZUaphbV_29{stroke-dasharray:17 19;stroke-dashoffset:18;animation:TZUaphbV_draw 666ms ease-in-out 144ms forwards;}.TZUaphbV_30{stroke-dasharray:20 22;stroke-dashoffset:21;animation:TZUaphbV_draw 666ms ease-in-out 149ms forwards;}.TZUaphbV_31{stroke-dasharray:16 18;stroke-dashoffset:17;animation:TZUaphbV_draw 666ms ease-in-out 154ms forwards;}.TZUaphbV_32{stroke-dasharray:26 28;stroke-dashoffset:27;animation:TZUaphbV_draw 666ms ease-in-out 159ms forwards;}.TZUaphbV_33{stroke-dasharray:16 18;stroke-dashoffset:17;animation:TZUaphbV_draw 666ms ease-in-out 164ms forwards;}.TZUaphbV_34{stroke-dasharray:19 21;stroke-dashoffset:20;animation:TZUaphbV_draw 666ms ease-in-out 169ms forwards;}.TZUaphbV_35{stroke-dasharray:88 90;stroke-dashoffset:89;animation:TZUaphbV_draw 666ms ease-in-out 174ms forwards;}.TZUaphbV_36{stroke-dasharray:77 79;stroke-dashoffset:78;animation:TZUaphbV_draw 666ms ease-in-out 179ms forwards;}.TZUaphbV_37{stroke-dasharray:380 382;stroke-dashoffset:381;animation:TZUaphbV_draw 666ms ease-in-out 184ms forwards;}.TZUaphbV_38{stroke-dasharray:27 29;stroke-dashoffset:28;animation:TZUaphbV_draw 666ms ease-in-out 189ms forwards;}.TZUaphbV_39{stroke-dasharray:143 145;stroke-dashoffset:144;animation:TZUaphbV_draw 666ms ease-in-out 194ms forwards;}.TZUaphbV_40{stroke-dasharray:87 89;stroke-dashoffset:88;animation:TZUaphbV_draw 666ms ease-in-out 199ms forwards;}.TZUaphbV_41{stroke-dasharray:38 40;stroke-dashoffset:39;animation:TZUaphbV_draw 666ms ease-in-out 203ms forwards;}.TZUaphbV_42{stroke-dasharray:67 69;stroke-dashoffset:68;animation:TZUaphbV_draw 666ms ease-in-out 208ms forwards;}.TZUaphbV_43{stroke-dasharray:76 78;stroke-dashoffset:77;animation:TZUaphbV_draw 666ms ease-in-out 213ms forwards;}.TZUaphbV_44{stroke-dasharray:125 127;stroke-dashoffset:126;animation:TZUaphbV_draw 666ms ease-in-out 218ms forwards;}.TZUaphbV_45{stroke-dasharray:74 76;stroke-dashoffset:75;animation:TZUaphbV_draw 666ms ease-in-out 223ms forwards;}.TZUaphbV_46{stroke-dasharray:105 107;stroke-dashoffset:106;animation:TZUaphbV_draw 666ms ease-in-out 228ms forwards;}.TZUaphbV_47{stroke-dasharray:142 144;stroke-dashoffset:143;animation:TZUaphbV_draw 666ms ease-in-out 233ms forwards;}.TZUaphbV_48{stroke-dasharray:273 275;stroke-dashoffset:274;animation:TZUaphbV_draw 666ms ease-in-out 238ms forwards;}.TZUaphbV_49{stroke-dasharray:122 124;stroke-dashoffset:123;animation:TZUaphbV_draw 666ms ease-in-out 243ms forwards;}.TZUaphbV_50{stroke-dasharray:151 153;stroke-dashoffset:152;animation:TZUaphbV_draw 666ms ease-in-out 248ms forwards;}.TZUaphbV_51{stroke-dasharray:56 58;stroke-dashoffset:57;animation:TZUaphbV_draw 666ms ease-in-out 253ms forwards;}.TZUaphbV_52{stroke-dasharray:203 205;stroke-dashoffset:204;animation:TZUaphbV_draw 666ms ease-in-out 258ms forwards;}.TZUaphbV_53{stroke-dasharray:248 250;stroke-dashoffset:249;animation:TZUaphbV_draw 666ms ease-in-out 263ms forwards;}.TZUaphbV_54{stroke-dasharray:39 41;stroke-dashoffset:40;animation:TZUaphbV_draw 666ms ease-in-out 268ms forwards;}.TZUaphbV_55{stroke-dasharray:69 71;stroke-dashoffset:70;animation:TZUaphbV_draw 666ms ease-in-out 273ms forwards;}.TZUaphbV_56{stroke-dasharray:61 63;stroke-dashoffset:62;animation:TZUaphbV_draw 666ms ease-in-out 278ms forwards;}.TZUaphbV_57{stroke-dasharray:39 41;stroke-dashoffset:40;animation:TZUaphbV_draw 666ms ease-in-out 283ms forwards;}.TZUaphbV_58{stroke-dasharray:93 95;stroke-dashoffset:94;animation:TZUaphbV_draw 666ms ease-in-out 288ms forwards;}.TZUaphbV_59{stroke-dasharray:332 334;stroke-dashoffset:333;animation:TZUaphbV_draw 666ms ease-in-out 293ms forwards;}.TZUaphbV_60{stroke-dasharray:162 164;stroke-dashoffset:163;animation:TZUaphbV_draw 666ms ease-in-out 298ms forwards;}.TZUaphbV_61{stroke-dasharray:24 26;stroke-dashoffset:25;animation:TZUaphbV_draw 666ms ease-in-out 303ms forwards;}.TZUaphbV_62{stroke-dasharray:24 26;stroke-dashoffset:25;animation:TZUaphbV_draw 666ms ease-in-out 308ms forwards;}.TZUaphbV_63{stroke-dasharray:15 17;stroke-dashoffset:16;animation:TZUaphbV_draw 666ms ease-in-out 313ms forwards;}.TZUaphbV_64{stroke-dasharray:15 17;stroke-dashoffset:16;animation:TZUaphbV_draw 666ms ease-in-out 318ms forwards;}.TZUaphbV_65{stroke-dasharray:9 11;stroke-dashoffset:10;animation:TZUaphbV_draw 666ms ease-in-out 323ms forwards;}.TZUaphbV_66{stroke-dasharray:15 17;stroke-dashoffset:16;animation:TZUaphbV_draw 666ms ease-in-out 328ms forwards;}.TZUaphbV_67{stroke-dasharray:12 14;stroke-dashoffset:13;animation:TZUaphbV_draw 666ms ease-in-out 333ms forwards;}@keyframes TZUaphbV_draw{100%{stroke-dashoffset:0;}}@keyframes TZUaphbV_fade{0%{stroke-opacity:1;}92.3076923076923%{stroke-opacity:1;}100%{stroke-opacity:0;}}</style></svg>