<!--?xml version="1.0" encoding="UTF-8" standalone="no"?--><svg width="100%" height="100%" viewBox="0 0 479 402" version="1.1" xmlns="http://www.w3.org/2000/svg" xmlns:xlink="http://www.w3.org/1999/xlink" xml:space="preserve" xmlns:serif="http://www.serif.com/" style="fill-rule: evenodd; clip-rule: evenodd; stroke-linecap: round; stroke-linejoin: round; stroke-miterlimit: 1.5;"><g><g><g><path d="M159.396,222.052c0.671,0.689 7.843,-6.817 15.612,-11.431c6.195,-3.68 10.255,-7.27 10.383,-8.157" style="fill:none;stroke:#2258ff;stroke-width:1.5px;" class="gBWYLghX_0"></path><path d="M100.187,217.59c0,0 18.408,-5.345 27.827,9.805" style="fill:none;stroke:#2258ff;stroke-width:1.5px;" class="gBWYLghX_1"></path><path d="M123.845,227.867c0,0 4.858,0.492 8.212,-0.849c3.354,-1.34 2.649,-5.641 9.634,1.318c6.985,6.959 6.363,3.968 6.363,3.968" style="fill:none;stroke:#2258ff;stroke-width:1.5px;" class="gBWYLghX_2"></path><path d="M3.669,222.364c0,0 33.273,-34.176 59.068,-43.697c25.795,-9.52 36.872,-14.21 50.941,-22.471c14.069,-8.26 21.975,-6.681 27.45,-5.729c4.887,0.85 13.781,5.393 4.761,10.822c-13.785,8.297 -17.19,-3.321 -17.19,-3.321" style="fill:none;stroke:#2258ff;stroke-width:1.5px;" class="gBWYLghX_3"></path><path d="M134.725,164.285c0,0 -6.735,5.16 -9.474,5.606c-2.739,0.446 -7.448,-8.483 -7.448,-8.483" style="fill:none;stroke:#2258ff;stroke-width:1.5px;" class="gBWYLghX_4"></path><path d="M124.665,169.954c0,0 -6.833,6.44 -9.875,7.38c-3.041,0.94 -10.967,-8.119 -10.967,-8.119" style="fill:none;stroke:#2258ff;stroke-width:1.5px;" class="gBWYLghX_5"></path><path d="M115.087,177.332l2.317,0.692c0,0 24.689,-13.378 48.072,-24.077" style="fill:none;stroke:#2258ff;stroke-width:1.5px;" class="gBWYLghX_6"></path><path d="M123.349,185.124c0,0 7.195,4.529 9.518,11.16c2.323,6.632 2.982,10.517 6.647,12.036" style="fill:none;stroke:#2258ff;stroke-width:1.5px;" class="gBWYLghX_7"></path><path d="M131.431,193.005c0,0 8.743,-2.613 15.251,-7.402c4.907,-3.611 17.549,-13.763 22.493,-16.494" style="fill:none;stroke:#2258ff;stroke-width:1.5px;" class="gBWYLghX_8"></path><path d="M139.514,208.32c0,0 0.603,-0.457 13.794,-9.523c5.461,-3.753 21.316,-12.332 25.095,-16.58" style="fill:none;stroke:#2258ff;stroke-width:1.5px;" class="gBWYLghX_9"></path><path d="M155.587,202.032c0,0 8.051,-0.418 9.15,3.68c1.098,4.098 -7.014,15.136 -6.351,22.054c0.664,6.919 1.385,8.241 -1.373,10.552c-5.776,4.838 -31.735,15.262 -33.284,18.477c-1.548,3.215 -34.12,1.426 -55.466,-0.049c-19.485,-1.346 -42.722,23.367 -53.565,41.971" style="fill:none;stroke:#2258ff;stroke-width:1.5px;" class="gBWYLghX_10"></path><path d="M139.514,208.32c2.711,3.403 1.311,2.238 1.392,4.376" style="fill:none;stroke:#2258ff;stroke-width:1.5px;" class="gBWYLghX_11"></path><path d="M88.333,179.491c0,0 25.876,30.125 37.104,30.284c11.228,0.159 11.064,1.932 11.704,3.995" style="fill:none;stroke:#2258ff;stroke-width:1.5px;" class="gBWYLghX_12"></path><path d="M88.333,179.491c0,0 -6.743,26.905 11.45,34.382" style="fill:none;stroke:#2258ff;stroke-width:1.5px;" class="gBWYLghX_13"></path></g><path d="M153.096,202.289c0,0 -15.868,6.897 -14.817,22.566" style="fill:none;stroke:#2258ff;stroke-width:1.5px;" class="gBWYLghX_14"></path></g><path d="M345.42,232.446c0,0 19.694,5.59 31.091,14.93c8.55,7.007 9.654,23.294 9.563,37.712c-0.212,33.638 -4.447,48.307 -4.447,48.307c0,0 -31.289,-22.285 -37.348,-17.341c-6.059,4.943 -24.904,5.172 -16.646,19.199c8.258,14.027 30.491,20.438 30.491,20.438c0,0 17.526,4.346 6.54,9.289c-10.986,4.944 -25.23,-0.402 -30.707,8.051c-5.477,8.453 0,27.719 0,27.719" style="fill:none;stroke:#2258ff;stroke-width:1.5px;" class="gBWYLghX_15"></path><path d="M225.997,231.572c26.21,-4.003 29.817,-2.224 34.162,12.73c1.673,5.76 18.211,10.114 18.562,18.955" style="fill:none;stroke:#2258ff;stroke-width:1.5px;" class="gBWYLghX_16"></path><path d="M212.868,43.553c0,0 -13.552,4.512 -5.082,18.58c8.471,14.068 29.611,12.191 23.598,21.057" style="fill:none;stroke:#2258ff;stroke-width:1.5px;" class="gBWYLghX_17"></path><path d="M283.288,117.182c8.808,-4.63 16.301,-9.577 15.971,-18.57c5.041,7.642 5.046,15.302 1.27,22.975c5.898,-3.029 9.412,-6.782 10.618,-11.234" style="fill:none;stroke:#2258ff;stroke-width:1.5px;" class="gBWYLghX_18"></path><path d="M224.302,41.076c0,0 -19.65,17.228 17.787,35.92c37.436,18.692 52.638,13.1 40.019,37.779" style="fill:none;stroke:#2258ff;stroke-width:1.5px;" class="gBWYLghX_19"></path><path d="M325.536,112.912c0,0 6.136,-1.276 2.904,5.902c-3.231,7.177 -8.309,12.169 -1.231,14.021c6.662,1.744 8.121,-4.452 10.805,-7.744c2.685,-3.293 8.574,-5.878 5.301,-12.01c-3.272,-6.132 -8.404,-6.811 -8.404,-6.811" style="fill:none;stroke:#2258ff;stroke-width:1.5px;" class="gBWYLghX_20"></path><path d="M191.174,127.896c-2.493,3.341 -16.925,5.182 -14.494,0.619" style="fill:none;stroke:#2258ff;stroke-width:1.5px;" class="gBWYLghX_21"></path><path d="M236.647,118.711l80.398,-20.12" style="fill:none;stroke:#2258ff;stroke-width:1.5px;" class="gBWYLghX_22"></path><path d="M247.292,102.168c-13.438,-12.905 -59.417,-5.186 -59.711,7.432c-0.051,2.198 4.193,4.52 5.826,1.794c6.407,-10.694 39.793,-15.885 53.885,-9.226Z" style="fill:none;stroke:#2258ff;stroke-width:1.5px;" class="gBWYLghX_23"></path><g><path d="M196.163,122.687c2.271,-0.547 7.424,-9.681 13.034,-10.439" style="fill:none;stroke:#2258ff;stroke-width:1.5px;" class="gBWYLghX_24"></path><path d="M198.7,128.228c0,0 4.272,-12.432 27.222,-16.202c22.949,-3.771 16.859,-0.224 16.859,-0.224c-9.67,3.576 -20.356,5.128 -31.935,4.901" style="fill:none;stroke:#2258ff;stroke-width:1.5px;" class="gBWYLghX_25"></path><path d="M227.899,120.872c-1.433,3.733 -4.936,6.077 -9.379,7.789" style="fill:none;stroke:#2258ff;stroke-width:1.5px;" class="gBWYLghX_26"></path><path d="M203.683,126.768c3.589,-6.73 12.377,-8.733 24.187,-7.986c-3.663,3.749 -10.74,8.489 -14.485,8.641c-3.749,0.153 -6.194,-1.077 -8.475,-2.531" style="fill:none;stroke:#2258ff;stroke-width:1.5px;" class="gBWYLghX_27"></path><path d="M209.326,121.629c0,0 -0.135,6.493 2.958,5.733c3.094,-0.76 3.261,-8.282 2.972,-7.915" style="fill:none;stroke:#2258ff;stroke-width:1.5px;" class="gBWYLghX_28"></path></g><path d="M209.692,197.764c-3.983,5.888 -6.318,8.966 -14.782,11.148" style="fill:none;stroke:#2258ff;stroke-width:1.5px;" class="gBWYLghX_29"></path><path d="M203.975,192.119c0,0 -9.037,6.468 -14.292,3.787" style="fill:none;stroke:#2258ff;stroke-width:1.5px;" class="gBWYLghX_30"></path><path d="M188.094,193.429c0,0 -5.345,-3.488 6.353,-2.478c11.697,1.011 10.959,2.637 15.245,1.239" style="fill:none;stroke:#2258ff;stroke-width:1.5px;" class="gBWYLghX_31"></path><path d="M185.714,169.533c0,0 3.936,1.542 6.657,-2.684c0.774,-1.202 1.184,-2.297 1.373,-3.25c0.485,-2.437 -0.47,-3.949 -0.47,-3.949" style="fill:none;stroke:#2258ff;stroke-width:1.5px;" class="gBWYLghX_32"></path><path d="M181.383,163.823c0,0 -4.027,0.001 -3.94,1.416c0.086,1.415 4.557,-0.071 5.658,0.933c1.102,1.003 2.904,0.804 2.122,-0.149c-0.781,-0.954 -3.84,-2.2 -3.84,-2.2Z" style="fill:none;stroke:#2258ff;stroke-width:1px;" class="gBWYLghX_33"></path><path d="M164.264,107.343c0,0 8.013,-5.512 11.761,2.477c3.748,7.99 2.817,14.21 2.817,14.21c-3.385,9.85 -11.508,26.149 -14.578,32.239c-3.036,6.023 3.159,13.644 12.396,16.103" style="fill:none;stroke:#2258ff;stroke-width:1.5px;" class="gBWYLghX_34"></path><path d="M174.119,62.752c0,0 -11.963,38.088 -9.528,45.83c2.435,7.741 8.893,27.642 8.893,27.642" style="fill:none;stroke:#2258ff;stroke-width:1.5px;" class="gBWYLghX_35"></path><path d="M172.05,167.932c13.543,4.982 4.862,14.303 5.881,19.074c1.697,7.951 11.295,8.982 8.893,10.758c-2.901,3.324 0.558,10.016 4.447,12.41c13.727,8.449 0.901,22.899 27.452,21.652c30.831,-1.447 91.576,-44.646 93.875,-67.505l3.177,-17.961c2.686,10.603 8.06,10.534 15.66,1.624c0,0 14.121,-14.133 17.757,-22.042c3.597,-7.823 11.684,-18.905 3.426,-37.179c-2.563,-5.67 -27.844,-14.595 -33.032,3.882c-5.188,18.476 -10.164,13.625 -10.164,13.625" style="fill:none;stroke:#2258ff;stroke-width:1.5px;" class="gBWYLghX_36"></path><path d="M180.591,185.997c0,0 3.537,-0.494 5.717,-3.097c1.907,-2.277 12.008,1.667 18.819,4.106" style="fill:none;stroke:#2258ff;stroke-width:1.5px;" class="gBWYLghX_37"></path><path style="fill:none;stroke:#2258ff;stroke-width:1.5px;" d="M191.173,127.896A23.69,21.573 0,1,1 238.553,127.896A23.69,21.573 0,1,1 191.173,127.896" class="gBWYLghX_38"></path><path d="M164.708,106.345c5.442,-0.484 10.58,6.82 11.465,16.3c0.886,9.48 -2.814,17.568 -8.256,18.052c-5.443,0.483 -10.58,-6.821 -11.465,-16.301c-0.886,-9.48 2.814,-17.568 8.256,-18.051Z" style="fill:none;stroke:#2258ff;stroke-width:1.5px;" class="gBWYLghX_39"></path><path d="M339.278,88.65c0,0 -8.216,-6.69 -14.61,6.718c-6.394,13.409 -6.819,14.753 -8.893,16.31" style="fill:none;stroke:#2258ff;stroke-width:1.5px;" class="gBWYLghX_40"></path><path d="M210.327,41.076c0,0 -19.396,3.768 -10.163,19.199c9.232,15.43 33.938,17.455 30.974,22.915" style="fill:none;stroke:#2258ff;stroke-width:1.5px;" class="gBWYLghX_41"></path><path d="M178.566,41.076c0,0 -50.867,22.128 -14.302,59.96" style="fill:none;stroke:#2258ff;stroke-width:1.5px;" class="gBWYLghX_42"></path><path d="M325.574,165.985c0,0 12.413,90.446 -3.023,123.438" style="fill:none;stroke:#2258ff;stroke-width:1.5px;" class="gBWYLghX_43"></path><path d="M221.567,231.572c14.907,-2.832 38.788,46.796 40.638,57.851" style="fill:none;stroke:#2258ff;stroke-width:1.5px;" class="gBWYLghX_44"></path><path d="M333.848,146.663c0,0 9.865,51.425 11.572,103.743" style="fill:none;stroke:#2258ff;stroke-width:1.5px;" class="gBWYLghX_45"></path><path d="M314.959,0.75c0,0 71.632,15.807 42.911,118.909" style="fill:none;stroke:#2258ff;stroke-width:1.5px;" class="gBWYLghX_46"></path><path d="M384.795,265.103c20.609,7.212 38.176,7.78 50.827,10.695c11.053,2.547 47.305,-9.152 40.911,0c-14.186,20.309 -66.491,110.15 -119.044,124.952" style="fill:none;stroke:#2258ff;stroke-width:1.5px;" class="gBWYLghX_47"></path><path d="M380.992,400.75c56.205,-4.586 75.438,-43.074 86.013,-74.168" style="fill:none;stroke:#2258ff;stroke-width:1.5px;" class="gBWYLghX_48"></path><path d="M197.701,261.088c-16.376,3.482 -33.331,5.292 -46.66,3.63c-32.956,-4.108 -92.108,42.665 -92.108,42.665" style="fill:none;stroke:#2258ff;stroke-width:1.5px;" class="gBWYLghX_49"></path><path d="M271.671,329.005c13.047,5.437 27.601,7.649 43.288,4.005c3.818,-0.887 7.359,-2.121 10.642,-3.641" style="fill:none;stroke:#2258ff;stroke-width:1.5px;" class="gBWYLghX_50"></path><path d="M224.092,254.279c0,0 32.715,69.029 83.849,64.576c38.472,-3.351 41.925,-72.695 41.925,-72.695" style="fill:none;stroke:#2258ff;stroke-width:1.5px;" class="gBWYLghX_51"></path><path d="M238.553,242.974c-18.899,-0.668 -30.368,5.432 -40.852,15.004c0,0 5.943,71.63 12.697,77.118c18.023,14.646 22.046,14.244 22.046,14.244c0,0 -5.928,-55.336 17.787,-45.438c23.715,9.898 21.503,30.731 21.503,30.731" style="fill:none;stroke:#2258ff;stroke-width:1.5px;" class="gBWYLghX_52"></path><path d="M333.957,373.031c0,0 -1.454,-9.898 11.463,-12.386c12.916,-2.489 19.244,-1.239 19.244,-1.239" style="fill:none;stroke:#2258ff;stroke-width:1.5px;" class="gBWYLghX_53"></path><path d="M267.287,342.065c0,0 -19.48,16.939 -13.34,34.682c6.141,17.743 16.516,14.987 13.34,24.003" style="fill:none;stroke:#2258ff;stroke-width:1.5px;" class="gBWYLghX_54"></path><path d="M352.65,246.779c0,0 16.326,38.062 -2.784,56.888" style="fill:none;stroke:#2258ff;stroke-width:1.5px;" class="gBWYLghX_55"></path><path d="M220.916,255.98c0,0 -2.753,22.1 10.798,35.92" style="fill:none;stroke:#2258ff;stroke-width:1.5px;" class="gBWYLghX_56"></path><path d="M89.441,304.287c-4.522,-2.184 -47.942,5.246 -60.363,13.005c-17.467,10.912 -28.328,7.432 -28.328,7.432" style="fill:none;stroke:#2258ff;stroke-width:1.5px;" class="gBWYLghX_57"></path><path d="M10.656,324.724c10.778,0.216 66.331,45.726 78.785,67.356c12.455,21.629 -49.456,-37.009 -54.646,-37.009c-5.191,0 15.054,30.242 23.503,37.009c8.448,6.766 -49.442,-31.435 -54.629,-31.435c-5.188,0 23.503,31.435 23.503,31.435" style="fill:none;stroke:#2258ff;stroke-width:1.5px;" class="gBWYLghX_58"></path><path d="M224.092,231.572c-5.53,-1.332 23.264,4.543 47.696,-34.428c18.588,-29.648 -3.219,-82.78 31.072,-87.044" style="fill:none;stroke:#2258ff;stroke-width:1.5px;" class="gBWYLghX_59"></path><g><path d="M236.796,161.224l-14.61,17.96" style="fill:none;stroke:#2258ff;stroke-width:1.5px;" class="gBWYLghX_60"></path><path d="M246.917,158.747l-14.61,17.96" style="fill:none;stroke:#2258ff;stroke-width:1.5px;" class="gBWYLghX_61"></path><path d="M251.406,160.76l-8.978,11.036" style="fill:none;stroke:#2258ff;stroke-width:1.5px;" class="gBWYLghX_62"></path><path d="M255.895,164.686l-8.978,11.036" style="fill:none;stroke:#2258ff;stroke-width:1.5px;" class="gBWYLghX_63"></path><path d="M263.518,163.027l-5.802,6.503" style="fill:none;stroke:#2258ff;stroke-width:1.5px;" class="gBWYLghX_64"></path><path d="M229.491,159.168l-8.978,11.036" style="fill:none;stroke:#2258ff;stroke-width:1.5px;" class="gBWYLghX_65"></path></g><path d="M176.304,110.44c-1.129,3.591 -5.692,4.325 -9.992,2.477" style="fill:none;stroke:#2258ff;stroke-width:1.5px;" class="gBWYLghX_66"></path></g><style data-made-with="vivus-instant">.gBWYLghX_0{stroke-dasharray:33 35;stroke-dashoffset:34;animation:gBWYLghX_draw 666ms linear 0ms forwards;}.gBWYLghX_1{stroke-dasharray:32 34;stroke-dashoffset:33;animation:gBWYLghX_draw 666ms linear 5ms forwards;}.gBWYLghX_2{stroke-dasharray:29 31;stroke-dashoffset:30;animation:gBWYLghX_draw 666ms linear 10ms forwards;}.gBWYLghX_3{stroke-dasharray:197 199;stroke-dashoffset:198;animation:gBWYLghX_draw 666ms linear 15ms forwards;}.gBWYLghX_4{stroke-dasharray:23 25;stroke-dashoffset:24;animation:gBWYLghX_draw 666ms linear 20ms forwards;}.gBWYLghX_5{stroke-dasharray:27 29;stroke-dashoffset:28;animation:gBWYLghX_draw 666ms linear 25ms forwards;}.gBWYLghX_6{stroke-dasharray:57 59;stroke-dashoffset:58;animation:gBWYLghX_draw 666ms linear 30ms forwards;}.gBWYLghX_7{stroke-dasharray:30 32;stroke-dashoffset:31;animation:gBWYLghX_draw 666ms linear 35ms forwards;}.gBWYLghX_8{stroke-dasharray:45 47;stroke-dashoffset:46;animation:gBWYLghX_draw 666ms linear 40ms forwards;}.gBWYLghX_9{stroke-dasharray:47 49;stroke-dashoffset:48;animation:gBWYLghX_draw 666ms linear 45ms forwards;}.gBWYLghX_10{stroke-dasharray:210 212;stroke-dashoffset:211;animation:gBWYLghX_draw 666ms linear 50ms forwards;}.gBWYLghX_11{stroke-dasharray:5 7;stroke-dashoffset:6;animation:gBWYLghX_draw 666ms linear 55ms forwards;}.gBWYLghX_12{stroke-dasharray:63 65;stroke-dashoffset:64;animation:gBWYLghX_draw 666ms linear 60ms forwards;}.gBWYLghX_13{stroke-dasharray:40 42;stroke-dashoffset:41;animation:gBWYLghX_draw 666ms linear 65ms forwards;}.gBWYLghX_14{stroke-dasharray:29 31;stroke-dashoffset:30;animation:gBWYLghX_draw 666ms linear 70ms forwards;}.gBWYLghX_15{stroke-dasharray:313 315;stroke-dashoffset:314;animation:gBWYLghX_draw 666ms linear 75ms forwards;}.gBWYLghX_16{stroke-dasharray:70 72;stroke-dashoffset:71;animation:gBWYLghX_draw 666ms linear 80ms forwards;}.gBWYLghX_17{stroke-dasharray:58 60;stroke-dashoffset:59;animation:gBWYLghX_draw 666ms linear 85ms forwards;}.gBWYLghX_18{stroke-dasharray:67 69;stroke-dashoffset:68;animation:gBWYLghX_draw 666ms linear 90ms forwards;}.gBWYLghX_19{stroke-dasharray:115 117;stroke-dashoffset:116;animation:gBWYLghX_draw 666ms linear 95ms forwards;}.gBWYLghX_20{stroke-dasharray:67 69;stroke-dashoffset:68;animation:gBWYLghX_draw 666ms linear 101ms forwards;}.gBWYLghX_21{stroke-dasharray:18 20;stroke-dashoffset:19;animation:gBWYLghX_draw 666ms linear 106ms forwards;}.gBWYLghX_22{stroke-dasharray:83 85;stroke-dashoffset:84;animation:gBWYLghX_draw 666ms linear 111ms forwards;}.gBWYLghX_23{stroke-dasharray:132 134;stroke-dashoffset:133;animation:gBWYLghX_draw 666ms linear 116ms forwards;}.gBWYLghX_24{stroke-dasharray:17 19;stroke-dashoffset:18;animation:gBWYLghX_draw 666ms linear 121ms forwards;}.gBWYLghX_25{stroke-dasharray:85 87;stroke-dashoffset:86;animation:gBWYLghX_draw 666ms linear 126ms forwards;}.gBWYLghX_26{stroke-dasharray:13 15;stroke-dashoffset:14;animation:gBWYLghX_draw 666ms linear 131ms forwards;}.gBWYLghX_27{stroke-dasharray:54 56;stroke-dashoffset:55;animation:gBWYLghX_draw 666ms linear 136ms forwards;}.gBWYLghX_28{stroke-dasharray:17 19;stroke-dashoffset:18;animation:gBWYLghX_draw 666ms linear 141ms forwards;}.gBWYLghX_29{stroke-dasharray:20 22;stroke-dashoffset:21;animation:gBWYLghX_draw 666ms linear 146ms forwards;}.gBWYLghX_30{stroke-dasharray:16 18;stroke-dashoffset:17;animation:gBWYLghX_draw 666ms linear 151ms forwards;}.gBWYLghX_31{stroke-dasharray:26 28;stroke-dashoffset:27;animation:gBWYLghX_draw 666ms linear 156ms forwards;}.gBWYLghX_32{stroke-dasharray:16 18;stroke-dashoffset:17;animation:gBWYLghX_draw 666ms linear 161ms forwards;}.gBWYLghX_33{stroke-dasharray:19 21;stroke-dashoffset:20;animation:gBWYLghX_draw 666ms linear 166ms forwards;}.gBWYLghX_34{stroke-dasharray:88 90;stroke-dashoffset:89;animation:gBWYLghX_draw 666ms linear 171ms forwards;}.gBWYLghX_35{stroke-dasharray:77 79;stroke-dashoffset:78;animation:gBWYLghX_draw 666ms linear 176ms forwards;}.gBWYLghX_36{stroke-dasharray:380 382;stroke-dashoffset:381;animation:gBWYLghX_draw 666ms linear 181ms forwards;}.gBWYLghX_37{stroke-dasharray:27 29;stroke-dashoffset:28;animation:gBWYLghX_draw 666ms linear 186ms forwards;}.gBWYLghX_38{stroke-dasharray:143 145;stroke-dashoffset:144;animation:gBWYLghX_draw 666ms linear 191ms forwards;}.gBWYLghX_39{stroke-dasharray:87 89;stroke-dashoffset:88;animation:gBWYLghX_draw 666ms linear 196ms forwards;}.gBWYLghX_40{stroke-dasharray:38 40;stroke-dashoffset:39;animation:gBWYLghX_draw 666ms linear 202ms forwards;}.gBWYLghX_41{stroke-dasharray:67 69;stroke-dashoffset:68;animation:gBWYLghX_draw 666ms linear 207ms forwards;}.gBWYLghX_42{stroke-dasharray:76 78;stroke-dashoffset:77;animation:gBWYLghX_draw 666ms linear 212ms forwards;}.gBWYLghX_43{stroke-dasharray:125 127;stroke-dashoffset:126;animation:gBWYLghX_draw 666ms linear 217ms forwards;}.gBWYLghX_44{stroke-dasharray:74 76;stroke-dashoffset:75;animation:gBWYLghX_draw 666ms linear 222ms forwards;}.gBWYLghX_45{stroke-dasharray:105 107;stroke-dashoffset:106;animation:gBWYLghX_draw 666ms linear 227ms forwards;}.gBWYLghX_46{stroke-dasharray:142 144;stroke-dashoffset:143;animation:gBWYLghX_draw 666ms linear 232ms forwards;}.gBWYLghX_47{stroke-dasharray:273 275;stroke-dashoffset:274;animation:gBWYLghX_draw 666ms linear 237ms forwards;}.gBWYLghX_48{stroke-dasharray:122 124;stroke-dashoffset:123;animation:gBWYLghX_draw 666ms linear 242ms forwards;}.gBWYLghX_49{stroke-dasharray:151 153;stroke-dashoffset:152;animation:gBWYLghX_draw 666ms linear 247ms forwards;}.gBWYLghX_50{stroke-dasharray:56 58;stroke-dashoffset:57;animation:gBWYLghX_draw 666ms linear 252ms forwards;}.gBWYLghX_51{stroke-dasharray:203 205;stroke-dashoffset:204;animation:gBWYLghX_draw 666ms linear 257ms forwards;}.gBWYLghX_52{stroke-dasharray:248 250;stroke-dashoffset:249;animation:gBWYLghX_draw 666ms linear 262ms forwards;}.gBWYLghX_53{stroke-dasharray:39 41;stroke-dashoffset:40;animation:gBWYLghX_draw 666ms linear 267ms forwards;}.gBWYLghX_54{stroke-dasharray:69 71;stroke-dashoffset:70;animation:gBWYLghX_draw 666ms linear 272ms forwards;}.gBWYLghX_55{stroke-dasharray:61 63;stroke-dashoffset:62;animation:gBWYLghX_draw 666ms linear 277ms forwards;}.gBWYLghX_56{stroke-dasharray:39 41;stroke-dashoffset:40;animation:gBWYLghX_draw 666ms linear 282ms forwards;}.gBWYLghX_57{stroke-dasharray:93 95;stroke-dashoffset:94;animation:gBWYLghX_draw 666ms linear 287ms forwards;}.gBWYLghX_58{stroke-dasharray:332 334;stroke-dashoffset:333;animation:gBWYLghX_draw 666ms linear 292ms forwards;}.gBWYLghX_59{stroke-dasharray:162 164;stroke-dashoffset:163;animation:gBWYLghX_draw 666ms linear 297ms forwards;}.gBWYLghX_60{stroke-dasharray:24 26;stroke-dashoffset:25;animation:gBWYLghX_draw 666ms linear 303ms forwards;}.gBWYLghX_61{stroke-dasharray:24 26;stroke-dashoffset:25;animation:gBWYLghX_draw 666ms linear 308ms forwards;}.gBWYLghX_62{stroke-dasharray:15 17;stroke-dashoffset:16;animation:gBWYLghX_draw 666ms linear 313ms forwards;}.gBWYLghX_63{stroke-dasharray:15 17;stroke-dashoffset:16;animation:gBWYLghX_draw 666ms linear 318ms forwards;}.gBWYLghX_64{stroke-dasharray:9 11;stroke-dashoffset:10;animation:gBWYLghX_draw 666ms linear 323ms forwards;}.gBWYLghX_65{stroke-dasharray:15 17;stroke-dashoffset:16;animation:gBWYLghX_draw 666ms linear 328ms forwards;}.gBWYLghX_66{stroke-dasharray:12 14;stroke-dashoffset:13;animation:gBWYLghX_draw 666ms linear 333ms forwards;}@keyframes gBWYLghX_draw{100%{stroke-dashoffset:0;}}@keyframes gBWYLghX_fade{0%{stroke-opacity:1;}92.3076923076923%{stroke-opacity:1;}100%{stroke-opacity:0;}}</style></svg>