<svg width="493" height="245" viewBox="0 0 493 245" fill="none" xmlns="http://www.w3.org/2000/svg">
<path d="M170.062 0.34375H170.625C176.75 0.34375 179.812 4.1875 179.812 11.875V13.0938C179.812 25.0312 172.062 51.875 156.562 93.625C147.25 119.875 140.281 141.125 135.656 157.375C128.344 182.438 124.688 202.781 124.688 218.406V219.344C124.688 228.094 126.062 235.875 128.812 242.688V242.969C128.188 243.969 127.344 244.469 126.281 244.469H125.156C124.031 244.469 122.969 242.25 121.969 237.812C120.469 232.875 119.719 226.688 119.719 219.25C119.719 195.062 128.938 157.375 147.375 106.188C157.875 77.0625 165.625 54.1875 170.625 37.5625C173.688 26.8125 175.219 18.625 175.219 13V12.4375C175.219 6.375 173 3.34375 168.562 3.34375C157.312 3.34375 137.25 31.9687 108.375 89.2188C98.75 108.094 90.9375 122.344 84.9375 131.969C80.4375 138.719 76.7188 142.094 73.7812 142.094C71.2812 142.094 70.0312 138.031 70.0312 129.906C70.0312 124.281 71.25 106.094 73.6875 75.3438C73.9375 69.5938 74.0625 64.4375 74.0625 59.875V59.7812C74.0625 48.2188 73 40.9062 70.875 37.8438C70.3125 37.0938 69.4688 36.7188 68.3438 36.7188H68.0625C60.6875 36.7188 49.2188 59.0938 33.6562 103.844L13.125 163.281C8.9375 174.906 5.59375 180.719 3.09375 180.719C2.78125 180.719 2.53125 180.75 2.34375 180.812C0.78125 180.5 0 180.125 0 179.688V179.594C0 176.531 4.59375 157.406 13.7812 122.219C17.7812 108.156 21.9688 91.4062 26.3438 71.9688C25.1562 71.9062 24.5625 71.4062 24.5625 70.4688C24.5625 66.7188 25.4375 63.6875 27.1875 61.375C28.3125 60.625 29.2812 60.25 30.0938 60.25C31.7188 60.5625 32.5312 61.75 32.5312 63.8125C32.5938 63.9375 32.625 64.2188 32.625 64.6562C31.0625 73.6562 28.2812 85.9375 24.2812 101.5C17.2812 127.375 12.0625 147.406 8.625 161.594V161.688H8.8125C19.875 129.125 28.375 104.719 34.3125 88.4688C48.3125 51.9062 59.9062 33.625 69.0938 33.625H70.2188C76.1562 33.625 79.125 42.25 79.125 59.5C79.125 70.1875 77.7812 90.4375 75.0938 120.25C74.9062 123.938 74.8125 127.219 74.8125 130.094V130.375C74.9375 135.438 75.3438 137.969 76.0312 137.969C77.3438 136.844 79.0312 134.531 81.0938 131.031C88.3438 118.219 98.75 98.5938 112.312 72.1562C121.062 55.4688 130.094 40.2188 139.406 26.4062C151.656 9.03125 161.875 0.34375 170.062 0.34375ZM8.15625 154.562V154.844H8.25V154.562H8.15625ZM168 125.031H168.844C169.844 125.031 170.344 125.469 170.344 126.344C168.469 132.594 167.531 137.219 167.531 140.219V141.344C167.594 143.094 167.781 144.031 168.094 144.156C169.406 143.719 173.062 139.562 179.062 131.688C180 131.375 180.719 131.219 181.219 131.219C182.344 131.531 182.906 131.844 182.906 132.156V132.812C175.781 141.625 170.906 146.781 168.281 148.281L165.75 148.375C163.812 147.375 162.781 145.281 162.656 142.094C162.656 141.719 162.594 141.438 162.469 141.25L162.844 137.406C158.844 141.719 155.781 143.875 153.656 143.875C151.406 143.5 150.281 142.375 150.281 140.5V138.719C150.281 135.906 151.719 132.562 154.594 128.688C156.656 126.688 158.562 125.688 160.312 125.688H161.531C162.406 125.688 163.562 126.125 165 127C166.062 125.688 167.062 125.031 168 125.031ZM154.969 139.562C155.094 140.438 155.25 140.875 155.438 140.875C157.375 139.125 159.219 136.688 160.969 133.562C161.406 133.125 162.25 131.812 163.5 129.625L162.656 129.812C161.281 129.375 160.406 129.156 160.031 129.156C158.594 129.156 157.062 131.5 155.438 136.188C155.125 138.188 154.969 139.312 154.969 139.562ZM183.75 124.562L184.688 124.656C185.812 124.844 186.219 125.625 185.906 127V127.281C184.156 132.531 183.281 136.469 183.281 139.094V139.188C183.281 140.438 183.5 141.344 183.938 141.906H184.031C185.219 140.906 186.344 139.469 187.406 137.594C188.594 135.531 190.062 132.906 191.812 129.719C192.375 128.969 192.969 128.594 193.594 128.594H193.781C195.531 128.781 196.406 129.219 196.406 129.906L196.5 130.094C195.312 133.719 194.719 136.594 194.719 138.719V138.906C194.719 140.594 195.125 141.594 195.938 141.906C197.375 141.906 199.875 140.406 203.438 137.406C205.938 134.656 207.312 133.281 207.562 133.281C208.25 133.031 208.844 132.906 209.344 132.906C210.219 132.906 210.875 133.25 211.312 133.938V134.406C211 135.344 208.75 137.594 204.562 141.156C200.875 143.844 197.719 145.188 195.094 145.188H194.719C192.156 145.188 190.5 143.938 189.75 141.438V141.062H189.656C187.344 143.812 185.062 145.188 182.812 145.188H182.344C180.469 145.188 179.156 144.219 178.406 142.281C178.219 141.656 178.125 140.938 178.125 140.125V139.094C178.125 136.594 179.062 132.656 180.938 127.281C181.688 125.281 182.625 124.375 183.75 124.562ZM230.531 68.6875H231.844C232.406 68.75 232.688 69.0312 232.688 69.5312V70.8438C232.688 74.4688 231.25 77.0625 228.375 78.625C215.688 117 209.344 140.344 209.344 148.656V150.344L209.812 153.438H211.125C214.875 150.188 220.469 142.812 227.906 131.312L228.844 130.938H231C231.562 130.938 231.844 131.375 231.844 132.25C221.594 148.938 214.375 157.281 210.188 157.281H207.656C205.906 156.344 205.031 154.75 205.031 152.5V148.188C205.031 138.5 211.5 114.438 224.438 76C226.188 71.125 228.219 68.6875 230.531 68.6875ZM243.75 125.031H244.594C245.594 125.031 246.094 125.469 246.094 126.344C244.219 132.594 243.281 137.219 243.281 140.219V141.344C243.344 143.094 243.531 144.031 243.844 144.156C245.156 143.719 248.812 139.562 254.812 131.688C255.75 131.375 256.469 131.219 256.969 131.219C258.094 131.531 258.656 131.844 258.656 132.156V132.812C251.531 141.625 246.656 146.781 244.031 148.281L241.5 148.375C239.562 147.375 238.531 145.281 238.406 142.094C238.406 141.719 238.344 141.438 238.219 141.25L238.594 137.406C234.594 141.719 231.531 143.875 229.406 143.875C227.156 143.5 226.031 142.375 226.031 140.5V138.719C226.031 135.906 227.469 132.562 230.344 128.688C232.406 126.688 234.312 125.688 236.062 125.688H237.281C238.156 125.688 239.312 126.125 240.75 127C241.812 125.688 242.812 125.031 243.75 125.031ZM230.719 139.562C230.844 140.438 231 140.875 231.188 140.875C233.125 139.125 234.969 136.688 236.719 133.562C237.156 133.125 238 131.812 239.25 129.625L238.406 129.812C237.031 129.375 236.156 129.156 235.781 129.156C234.344 129.156 232.812 131.5 231.188 136.188C230.875 138.188 230.719 139.312 230.719 139.562ZM271.031 123.625H271.125C273.25 123.75 274.281 124.531 274.219 125.969V126.625C274.156 127.625 272.906 133 270.469 142.75C270.344 143.688 270.25 144.469 270.188 145.094C270.25 146.031 270.438 146.531 270.75 146.594C272.312 145.531 275.594 142.062 280.594 136.188C283.594 132.062 285.438 130.656 286.125 131.969C286.688 132.781 286.906 133.281 286.781 133.469C285.844 135.094 282.625 138.969 277.125 145.094C274.062 148.406 271.312 149.812 268.875 149.312H268.406C266.406 149.188 265.469 147.625 265.594 144.625C266.344 140.375 267.719 134.531 269.719 127.094V126.906C267.094 130.469 264 135.375 260.438 141.625C258.812 143.875 257.5 145 256.5 145L255.656 144.906C254.094 144.594 253.344 143.781 253.406 142.469L253.5 141.531C254.875 132.531 256.312 128.062 257.812 128.125C258.312 127.938 258.844 127.844 259.406 127.844C260.469 128.219 261 128.562 261 128.875V129.062C259.875 132.938 259.281 135.062 259.219 135.438C263.969 127.438 267.906 123.5 271.031 123.625ZM297.75 125.031H298.594C299.594 125.031 300.094 125.469 300.094 126.344C298.219 132.594 297.281 137.219 297.281 140.219V141.344C297.344 143.094 297.531 144.031 297.844 144.156C299.156 143.719 302.812 139.562 308.812 131.688C309.75 131.375 310.469 131.219 310.969 131.219C312.094 131.531 312.656 131.844 312.656 132.156V132.812C305.531 141.625 300.656 146.781 298.031 148.281L295.5 148.375C293.562 147.375 292.531 145.281 292.406 142.094C292.406 141.719 292.344 141.438 292.219 141.25L292.594 137.406C288.594 141.719 285.531 143.875 283.406 143.875C281.156 143.5 280.031 142.375 280.031 140.5V138.719C280.031 135.906 281.469 132.562 284.344 128.688C286.406 126.688 288.312 125.688 290.062 125.688H291.281C292.156 125.688 293.312 126.125 294.75 127C295.812 125.688 296.812 125.031 297.75 125.031ZM284.719 139.562C284.844 140.438 285 140.875 285.188 140.875C287.125 139.125 288.969 136.688 290.719 133.562C291.156 133.125 292 131.812 293.25 129.625L292.406 129.812C291.031 129.375 290.156 129.156 289.781 129.156C288.344 129.156 286.812 131.5 285.188 136.188C284.875 138.188 284.719 139.312 284.719 139.562ZM318.75 102.344H319.406C320.219 102.344 320.781 102.688 321.094 103.375L317.531 117.438C353.281 117.312 380.688 117.25 399.75 117.25H475.5C486.375 117.25 491.812 117.594 491.812 118.281C492.25 118.406 492.469 118.844 492.469 119.594V119.969C492.469 121.219 489.781 121.938 484.406 122.125H481.031C479.844 122 479.25 121.5 479.25 120.625C475.562 120.5 473.031 120.438 471.656 120.438C433.531 120.438 381.781 120.5 316.406 120.625C311.906 136.25 301.938 168.844 286.5 218.406C286.5 224.469 284.656 228.375 280.969 230.125H279.469C278.969 230 278.688 229.375 278.625 228.25C278.75 226.875 281.094 219.125 285.656 205C298.531 163.875 307.156 135.75 311.531 120.625H265.031C263.906 120.625 263.188 120.281 262.875 119.594V118.938C263.562 117.938 264.344 117.438 265.219 117.438H312.188C312.5 117.438 313.844 112.75 316.219 103.375C317.094 102.688 317.938 102.344 318.75 102.344ZM334.875 125.031H335.719C336.719 125.031 337.219 125.469 337.219 126.344C335.344 132.594 334.406 137.219 334.406 140.219V141.344C334.469 143.094 334.656 144.031 334.969 144.156C336.281 143.719 339.938 139.562 345.938 131.688C346.875 131.375 347.594 131.219 348.094 131.219C349.219 131.531 349.781 131.844 349.781 132.156V132.812C342.656 141.625 337.781 146.781 335.156 148.281L332.625 148.375C330.688 147.375 329.656 145.281 329.531 142.094C329.531 141.719 329.469 141.438 329.344 141.25L329.719 137.406C325.719 141.719 322.656 143.875 320.531 143.875C318.281 143.5 317.156 142.375 317.156 140.5V138.719C317.156 135.906 318.594 132.562 321.469 128.688C323.531 126.688 325.438 125.688 327.188 125.688H328.406C329.281 125.688 330.438 126.125 331.875 127C332.938 125.688 333.938 125.031 334.875 125.031ZM321.844 139.562C321.969 140.438 322.125 140.875 322.312 140.875C324.25 139.125 326.094 136.688 327.844 133.562C328.281 133.125 329.125 131.812 330.375 129.625L329.531 129.812C328.156 129.375 327.281 129.156 326.906 129.156C325.469 129.156 323.938 131.5 322.312 136.188C322 138.188 321.844 139.312 321.844 139.562ZM362.156 125.219C364.781 125.219 366.094 125.875 366.094 127.188C366.094 127.5 364.312 129.188 360.75 132.25C360.75 132.438 359.062 134.312 355.688 137.875L350.25 144.344H350.438C352.938 144.344 358.438 144.125 366.938 143.688C367.688 143.875 368.094 144.156 368.156 144.531V145.281C368.156 146.531 363.469 147.156 354.094 147.156C354.094 147.281 351.812 147.344 347.25 147.344H345.469C344.906 147.031 344.625 146.812 344.625 146.688V146.125C344.688 144.75 349.844 138.781 360.094 128.219H357.469C355.906 128.219 353.906 128.281 351.469 128.406C350.781 128.094 350.438 127.688 350.438 127.188C350.438 125.875 353.312 125.219 359.062 125.219H362.156ZM389.719 122.969C390.969 123.594 391.594 124.062 391.594 124.375V125.688C390.906 126.312 388.625 133.156 384.75 146.219C376.188 176.156 370.906 194.844 368.906 202.281C369.844 202.281 370.312 202.938 370.312 204.25C370.312 207.062 368.281 209.875 364.219 212.688H363.188C362.625 212.5 362.344 211.938 362.344 211V209.969C362.344 207.719 368.625 185.094 381.188 142.094C377.875 145.406 375.156 147.062 373.031 147.062C369.719 146.5 368.062 144.844 368.062 142.094C368.062 137.094 370.906 131.812 376.594 126.25C378.156 125.188 380.25 124.469 382.875 124.094C384.25 124.281 385.531 124.625 386.719 125.125C387.719 123.688 388.719 122.969 389.719 122.969ZM373.031 141.812C373.156 142.75 373.438 143.219 373.875 143.219H374.344C377.469 140.781 380.656 136.594 383.906 130.656C383.906 130.219 384.188 129.656 384.75 128.969V128.406C384.438 128.406 383.438 128.062 381.75 127.375C379.438 128.062 377.344 130.25 375.469 133.938C373.844 137.125 373.031 139.75 373.031 141.812ZM398.625 125.969H399.656C400.594 125.969 401.125 126.375 401.25 127.188C398.688 134.5 397.406 139.25 397.406 141.438C397.406 142 397.531 142.281 397.781 142.281C398.906 141.469 402.719 138.312 409.219 132.812C409.594 132.438 410.281 132.25 411.281 132.25C412.219 132.25 412.812 132.562 413.062 133.188V133.844C411.75 135.406 408.344 138.344 402.844 142.656C400.219 144.531 398.062 145.469 396.375 145.469H395.812C393.938 145.469 393 144.281 393 141.906V141.062C393 137.75 394.219 133 396.656 126.812C397.531 126.25 398.188 125.969 398.625 125.969ZM405.656 110.594C406.094 110.406 406.5 110.031 406.875 109.469L406.5 108.156C405.312 107.219 402.375 108.125 397.688 110.875L396.75 111.625L396.562 112.938C398.25 114.625 401.156 113.969 405.281 110.969L405.656 110.594Z" fill="#4131FF"/>
</svg>
