<svg width="576" height="164" viewBox="0 0 576 164" fill="none" xmlns="http://www.w3.org/2000/svg">
<path d="M113.375 0.5625H113.75C117.833 0.5625 119.875 3.125 119.875 8.25V9.0625C119.875 17.0208 114.708 34.9167 104.375 62.75C98.1667 80.25 93.5208 94.4167 90.4375 105.25C85.5625 121.958 83.125 135.521 83.125 145.938V146.562C83.125 152.396 84.0417 157.583 85.875 162.125V162.312C85.4583 162.979 84.8958 163.312 84.1875 163.312H83.4375C82.6875 163.312 81.9792 161.833 81.3125 158.875C80.3125 155.583 79.8125 151.458 79.8125 146.5C79.8125 130.375 85.9583 105.25 98.25 71.125C105.25 51.7083 110.417 36.4583 113.75 25.375C115.792 18.2083 116.812 12.75 116.812 9V8.625C116.812 4.58333 115.333 2.5625 112.375 2.5625C104.875 2.5625 91.5 21.6458 72.25 59.8125C65.8333 72.3958 60.625 81.8958 56.625 88.3125C53.625 92.8125 51.1458 95.0625 49.1875 95.0625C47.5208 95.0625 46.6875 92.3542 46.6875 86.9375C46.6875 83.1875 47.5 71.0625 49.125 50.5625C49.2917 46.7292 49.375 43.2917 49.375 40.25V40.1875C49.375 32.4792 48.6667 27.6042 47.25 25.5625C46.875 25.0625 46.3125 24.8125 45.5625 24.8125H45.375C40.4583 24.8125 32.8125 39.7292 22.4375 69.5625L8.75 109.188C5.95833 116.938 3.72917 120.812 2.0625 120.812C1.85417 120.812 1.6875 120.833 1.5625 120.875C0.520833 120.667 0 120.417 0 120.125V120.062C0 118.021 3.0625 105.271 9.1875 81.8125C11.8542 72.4375 14.6458 61.2708 17.5625 48.3125C16.7708 48.2708 16.375 47.9375 16.375 47.3125C16.375 44.8125 16.9583 42.7917 18.125 41.25C18.875 40.75 19.5208 40.5 20.0625 40.5C21.1458 40.7083 21.6875 41.5 21.6875 42.875C21.7292 42.9583 21.75 43.1458 21.75 43.4375C20.7083 49.4375 18.8542 57.625 16.1875 68C11.5208 85.25 8.04167 98.6042 5.75 108.062V108.125H5.875C13.25 86.4167 18.9167 70.1458 22.875 59.3125C32.2083 34.9375 39.9375 22.75 46.0625 22.75H46.8125C50.7708 22.75 52.75 28.5 52.75 40C52.75 47.125 51.8542 60.625 50.0625 80.5C49.9375 82.9583 49.875 85.1458 49.875 87.0625V87.25C49.9583 90.625 50.2292 92.3125 50.6875 92.3125C51.5625 91.5625 52.6875 90.0208 54.0625 87.6875C58.8958 79.1458 65.8333 66.0625 74.875 48.4375C80.7083 37.3125 86.7292 27.1458 92.9375 17.9375C101.104 6.35417 107.917 0.5625 113.375 0.5625ZM5.4375 103.375V103.562H5.5V103.375H5.4375Z" fill="#4131FF"/>
<path d="M112 83.6875H112.562C113.229 83.6875 113.562 83.9792 113.562 84.5625C112.312 88.7292 111.688 91.8125 111.688 93.8125V94.5625C111.729 95.7292 111.854 96.3542 112.062 96.4375C112.938 96.1458 115.375 93.375 119.375 88.125C120 87.9167 120.479 87.8125 120.812 87.8125C121.562 88.0208 121.938 88.2292 121.938 88.4375V88.875C117.188 94.75 113.938 98.1875 112.188 99.1875L110.5 99.25C109.208 98.5833 108.521 97.1875 108.438 95.0625C108.438 94.8125 108.396 94.625 108.312 94.5L108.562 91.9375C105.896 94.8125 103.854 96.25 102.438 96.25C100.938 96 100.188 95.25 100.188 94V92.8125C100.188 90.9375 101.146 88.7083 103.062 86.125C104.438 84.7917 105.708 84.125 106.875 84.125H107.688C108.271 84.125 109.042 84.4167 110 85C110.708 84.125 111.375 83.6875 112 83.6875ZM103.312 93.375C103.396 93.9583 103.5 94.25 103.625 94.25C104.917 93.0833 106.146 91.4583 107.312 89.375C107.604 89.0833 108.167 88.2083 109 86.75L108.438 86.875C107.521 86.5833 106.938 86.4375 106.688 86.4375C105.729 86.4375 104.708 88 103.625 91.125C103.417 92.4583 103.312 93.2083 103.312 93.375Z" fill="#4131FF"/>
<path d="M122.5 83.375L123.125 83.4375C123.875 83.5625 124.146 84.0833 123.938 85V85.1875C122.771 88.6875 122.188 91.3125 122.188 93.0625V93.125C122.188 93.9583 122.333 94.5625 122.625 94.9375H122.688C123.479 94.2708 124.229 93.3125 124.938 92.0625C125.729 90.6875 126.708 88.9375 127.875 86.8125C128.25 86.3125 128.646 86.0625 129.062 86.0625H129.188C130.354 86.1875 130.938 86.4792 130.938 86.9375L131 87.0625C130.208 89.4792 129.812 91.3958 129.812 92.8125V92.9375C129.812 94.0625 130.083 94.7292 130.625 94.9375C131.583 94.9375 133.25 93.9375 135.625 91.9375C137.292 90.1042 138.208 89.1875 138.375 89.1875C138.833 89.0208 139.229 88.9375 139.562 88.9375C140.146 88.9375 140.583 89.1667 140.875 89.625V89.9375C140.667 90.5625 139.167 92.0625 136.375 94.4375C133.917 96.2292 131.812 97.125 130.062 97.125H129.812C128.104 97.125 127 96.2917 126.5 94.625V94.375H126.438C124.896 96.2083 123.375 97.125 121.875 97.125H121.562C120.312 97.125 119.438 96.4792 118.938 95.1875C118.812 94.7708 118.75 94.2917 118.75 93.75V93.0625C118.75 91.3958 119.375 88.7708 120.625 85.1875C121.125 83.8542 121.75 83.25 122.5 83.375Z" fill="#4131FF"/>
<path d="M153.688 46.125H154.562C154.938 46.1667 155.125 46.3542 155.125 46.6875V47.5625C155.125 49.9792 154.167 51.7083 152.25 52.75C143.792 78.3333 139.562 93.8958 139.562 99.4375V100.562L139.875 102.625H140.75C143.25 100.458 146.979 95.5417 151.938 87.875L152.562 87.625H154C154.375 87.625 154.562 87.9167 154.562 88.5C147.729 99.625 142.917 105.188 140.125 105.188H138.438C137.271 104.562 136.688 103.5 136.688 102V99.125C136.688 92.6667 141 76.625 149.625 51C150.792 47.75 152.146 46.125 153.688 46.125Z" fill="#4131FF"/>
<path d="M162.5 83.6875H163.062C163.729 83.6875 164.062 83.9792 164.062 84.5625C162.812 88.7292 162.188 91.8125 162.188 93.8125V94.5625C162.229 95.7292 162.354 96.3542 162.562 96.4375C163.438 96.1458 165.875 93.375 169.875 88.125C170.5 87.9167 170.979 87.8125 171.312 87.8125C172.062 88.0208 172.438 88.2292 172.438 88.4375V88.875C167.688 94.75 164.438 98.1875 162.688 99.1875L161 99.25C159.708 98.5833 159.021 97.1875 158.938 95.0625C158.938 94.8125 158.896 94.625 158.812 94.5L159.062 91.9375C156.396 94.8125 154.354 96.25 152.938 96.25C151.438 96 150.688 95.25 150.688 94V92.8125C150.688 90.9375 151.646 88.7083 153.562 86.125C154.938 84.7917 156.208 84.125 157.375 84.125H158.188C158.771 84.125 159.542 84.4167 160.5 85C161.208 84.125 161.875 83.6875 162.5 83.6875ZM153.812 93.375C153.896 93.9583 154 94.25 154.125 94.25C155.417 93.0833 156.646 91.4583 157.812 89.375C158.104 89.0833 158.667 88.2083 159.5 86.75L158.938 86.875C158.021 86.5833 157.438 86.4375 157.188 86.4375C156.229 86.4375 155.208 88 154.125 91.125C153.917 92.4583 153.812 93.2083 153.812 93.375Z" fill="#4131FF"/>
<path d="M180.688 82.75H180.75C182.167 82.8333 182.854 83.3542 182.812 84.3125V84.75C182.771 85.4167 181.938 89 180.312 95.5C180.229 96.125 180.167 96.6458 180.125 97.0625C180.167 97.6875 180.292 98.0208 180.5 98.0625C181.542 97.3542 183.729 95.0417 187.062 91.125C189.062 88.375 190.292 87.4375 190.75 88.3125C191.125 88.8542 191.271 89.1875 191.188 89.3125C190.562 90.3958 188.417 92.9792 184.75 97.0625C182.708 99.2708 180.875 100.208 179.25 99.875H178.938C177.604 99.7917 176.979 98.75 177.062 96.75C177.562 93.9167 178.479 90.0208 179.812 85.0625V84.9375C178.062 87.3125 176 90.5833 173.625 94.75C172.542 96.25 171.667 97 171 97L170.438 96.9375C169.396 96.7292 168.896 96.1875 168.938 95.3125L169 94.6875C169.917 88.6875 170.875 85.7083 171.875 85.75C172.208 85.625 172.562 85.5625 172.938 85.5625C173.646 85.8125 174 86.0417 174 86.25V86.375C173.25 88.9583 172.854 90.375 172.812 90.625C175.979 85.2917 178.604 82.6667 180.688 82.75Z" fill="#4131FF"/>
<path d="M198.5 83.6875H199.062C199.729 83.6875 200.062 83.9792 200.062 84.5625C198.812 88.7292 198.188 91.8125 198.188 93.8125V94.5625C198.229 95.7292 198.354 96.3542 198.562 96.4375C199.438 96.1458 201.875 93.375 205.875 88.125C206.5 87.9167 206.979 87.8125 207.312 87.8125C208.062 88.0208 208.438 88.2292 208.438 88.4375V88.875C203.688 94.75 200.438 98.1875 198.688 99.1875L197 99.25C195.708 98.5833 195.021 97.1875 194.938 95.0625C194.938 94.8125 194.896 94.625 194.812 94.5L195.062 91.9375C192.396 94.8125 190.354 96.25 188.938 96.25C187.438 96 186.688 95.25 186.688 94V92.8125C186.688 90.9375 187.646 88.7083 189.562 86.125C190.938 84.7917 192.208 84.125 193.375 84.125H194.188C194.771 84.125 195.542 84.4167 196.5 85C197.208 84.125 197.875 83.6875 198.5 83.6875ZM189.812 93.375C189.896 93.9583 190 94.25 190.125 94.25C191.417 93.0833 192.646 91.4583 193.812 89.375C194.104 89.0833 194.667 88.2083 195.5 86.75L194.938 86.875C194.021 86.5833 193.438 86.4375 193.188 86.4375C192.229 86.4375 191.208 88 190.125 91.125C189.917 92.4583 189.812 93.2083 189.812 93.375Z" fill="#4131FF"/>
<path d="M212.5 68.5625H212.938C213.479 68.5625 213.854 68.7917 214.062 69.25L211.688 78.625C235.521 78.5417 253.792 78.5 266.5 78.5H317C324.25 78.5 327.875 78.7292 327.875 79.1875C328.167 79.2708 328.312 79.5625 328.312 80.0625V80.3125C328.312 81.1458 326.521 81.625 322.938 81.75H320.688C319.896 81.6667 319.5 81.3333 319.5 80.75C317.042 80.6667 315.354 80.625 314.438 80.625C289.021 80.625 254.521 80.6667 210.938 80.75C207.938 91.1667 201.292 112.896 191 145.938C191 149.979 189.771 152.583 187.312 153.75H186.312C185.979 153.667 185.792 153.25 185.75 152.5C185.833 151.583 187.396 146.417 190.438 137C199.021 109.583 204.771 90.8333 207.688 80.75H176.688C175.938 80.75 175.458 80.5208 175.25 80.0625V79.625C175.708 78.9583 176.229 78.625 176.812 78.625H208.125C208.333 78.625 209.229 75.5 210.812 69.25C211.396 68.7917 211.958 68.5625 212.5 68.5625Z" fill="#4131FF"/>
<path d="M223.25 83.6875H223.812C224.479 83.6875 224.812 83.9792 224.812 84.5625C223.562 88.7292 222.938 91.8125 222.938 93.8125V94.5625C222.979 95.7292 223.104 96.3542 223.312 96.4375C224.188 96.1458 226.625 93.375 230.625 88.125C231.25 87.9167 231.729 87.8125 232.062 87.8125C232.812 88.0208 233.188 88.2292 233.188 88.4375V88.875C228.438 94.75 225.188 98.1875 223.438 99.1875L221.75 99.25C220.458 98.5833 219.771 97.1875 219.688 95.0625C219.688 94.8125 219.646 94.625 219.562 94.5L219.812 91.9375C217.146 94.8125 215.104 96.25 213.688 96.25C212.188 96 211.438 95.25 211.438 94V92.8125C211.438 90.9375 212.396 88.7083 214.312 86.125C215.688 84.7917 216.958 84.125 218.125 84.125H218.938C219.521 84.125 220.292 84.4167 221.25 85C221.958 84.125 222.625 83.6875 223.25 83.6875ZM214.562 93.375C214.646 93.9583 214.75 94.25 214.875 94.25C216.167 93.0833 217.396 91.4583 218.562 89.375C218.854 89.0833 219.417 88.2083 220.25 86.75L219.688 86.875C218.771 86.5833 218.188 86.4375 217.938 86.4375C216.979 86.4375 215.958 88 214.875 91.125C214.667 92.4583 214.562 93.2083 214.562 93.375Z" fill="#4131FF"/>
<path d="M241.438 83.8125C243.188 83.8125 244.062 84.25 244.062 85.125C244.062 85.3333 242.875 86.4583 240.5 88.5C240.5 88.625 239.375 89.875 237.125 92.25L233.5 96.5625H233.625C235.292 96.5625 238.958 96.4167 244.625 96.125C245.125 96.25 245.396 96.4375 245.438 96.6875V97.1875C245.438 98.0208 242.312 98.4375 236.062 98.4375C236.062 98.5208 234.542 98.5625 231.5 98.5625H230.312C229.938 98.3542 229.75 98.2083 229.75 98.125V97.75C229.792 96.8333 233.229 92.8542 240.062 85.8125H238.312C237.271 85.8125 235.938 85.8542 234.312 85.9375C233.854 85.7292 233.625 85.4583 233.625 85.125C233.625 84.25 235.542 83.8125 239.375 83.8125H241.438Z" fill="#4131FF"/>
<path d="M259.812 82.3125C260.646 82.7292 261.062 83.0417 261.062 83.25V84.125C260.604 84.5417 259.083 89.1042 256.5 97.8125C250.792 117.771 247.271 130.229 245.938 135.188C246.562 135.188 246.875 135.625 246.875 136.5C246.875 138.375 245.521 140.25 242.812 142.125H242.125C241.75 142 241.562 141.625 241.562 141V140.312C241.562 138.812 245.75 123.729 254.125 95.0625C251.917 97.2708 250.104 98.375 248.688 98.375C246.479 98 245.375 96.8958 245.375 95.0625C245.375 91.7292 247.271 88.2083 251.062 84.5C252.104 83.7917 253.5 83.3125 255.25 83.0625C256.167 83.1875 257.021 83.4167 257.812 83.75C258.479 82.7917 259.146 82.3125 259.812 82.3125ZM248.688 94.875C248.771 95.5 248.958 95.8125 249.25 95.8125H249.562C251.646 94.1875 253.771 91.3958 255.938 87.4375C255.938 87.1458 256.125 86.7708 256.5 86.3125V85.9375C256.292 85.9375 255.625 85.7083 254.5 85.25C252.958 85.7083 251.562 87.1667 250.312 89.625C249.229 91.75 248.688 93.5 248.688 94.875Z" fill="#4131FF"/>
<path d="M265.75 84.3125H266.438C267.062 84.3125 267.417 84.5833 267.5 85.125C265.792 90 264.938 93.1667 264.938 94.625C264.938 95 265.021 95.1875 265.188 95.1875C265.938 94.6458 268.479 92.5417 272.812 88.875C273.062 88.625 273.521 88.5 274.188 88.5C274.812 88.5 275.208 88.7083 275.375 89.125V89.5625C274.5 90.6042 272.229 92.5625 268.562 95.4375C266.812 96.6875 265.375 97.3125 264.25 97.3125H263.875C262.625 97.3125 262 96.5208 262 94.9375V94.375C262 92.1667 262.812 89 264.438 84.875C265.021 84.5 265.458 84.3125 265.75 84.3125ZM270.438 74.0625C270.729 73.9375 271 73.6875 271.25 73.3125L271 72.4375C270.208 71.8125 268.25 72.4167 265.125 74.25L264.5 74.75L264.375 75.625C265.5 76.75 267.438 76.3125 270.188 74.3125L270.438 74.0625Z" fill="#4131FF"/>
<path d="M389.125 1H390.25C395.042 1 397.833 4 398.625 10C398.667 10.5833 398.688 11.1667 398.688 11.75V13.8125C398.688 23.4375 393.021 43.7292 381.688 74.6875C374.979 92.6042 369.354 109.5 364.812 125.375C362.312 135.083 361.062 142.667 361.062 148.125C361.062 155.167 363.146 159.271 367.312 160.438C368.354 160.562 368.875 160.896 368.875 161.438C368.583 162.229 367.875 162.625 366.75 162.625C364.917 162.5 363 161.521 361 159.688C358.875 157.104 357.812 153.354 357.812 148.438V147.875C357.812 136.208 364.021 113.729 376.438 80.4375C383.729 60.3958 389.083 44.2292 392.5 31.9375C394.458 23.9375 395.438 17.75 395.438 13.375C395.438 6.5 393.146 3.0625 388.562 3.0625C380.271 3.0625 368.146 14.8542 352.188 38.4375C342.271 53.0208 333 68.0417 324.375 83.5C321.542 88.4583 316.354 97.7083 308.812 111.25C308.146 112.25 307.354 112.75 306.438 112.75C305.646 112.583 305.25 112.25 305.25 111.75C305.25 110 308.562 99.3333 315.188 79.75C319.146 68.125 322.5 57.2708 325.25 47.1875C326.042 44.0208 326.646 41.1042 327.062 38.4375C325.979 38.4375 325.438 38.0417 325.438 37.25C325.354 37 325.312 36.6458 325.312 36.1875C325.312 34.4375 325.812 33.2917 326.812 32.75C327.229 32.5 327.688 32.375 328.188 32.375C329.479 32.375 330.25 33.3333 330.5 35.25V35.5625C330.5 41.8958 324.562 62.4167 312.688 97.125C312.646 97.25 312.333 98.1875 311.75 99.9375C311.958 99.8125 314.104 96.0417 318.188 88.625C327.979 71.0833 338.312 54.2292 349.188 38.0625C353.688 31.2708 359.708 23.5208 367.25 14.8125C372.333 9.60417 375.812 6.41667 377.688 5.25C381.646 2.41667 385.458 1 389.125 1Z" fill="#4131FF"/>
<path d="M490.625 0.375H493.688C500.854 0.375 508.417 2.85417 516.375 7.8125C516.583 8.60417 516.688 9.10417 516.688 9.3125V9.625C516.688 10.6667 515.604 11.1875 513.438 11.1875C512.479 11.1875 511.562 10.3542 510.688 8.6875V8.5625C510.688 8.3125 510.792 8.02083 511 7.6875C504.375 4.1875 498.229 2.4375 492.562 2.4375H490.312C479.062 2.4375 468.042 7.79167 457.25 18.5C451.375 25.4583 447.229 32.1042 444.812 38.4375C442.271 45.5625 441 52.0417 441 57.875V60.6875C441 67.8542 443.938 78.7292 449.812 93.3125C450.771 96.0625 451.25 97.5625 451.25 97.8125C458.708 94.0208 466.729 91 475.312 88.75L478.438 88.375C480.104 88.1667 481.292 88.2292 482 88.5625C482.125 89.8958 481.271 90.4792 479.438 90.3125C477.229 90.4792 474.875 90.9167 472.375 91.625C466.125 93.8333 459.333 96.5417 452 99.75V100C454.167 107.375 455.25 114.271 455.25 120.688C455.25 135.854 449.771 146.521 438.812 152.688C435.229 154.479 431.812 155.375 428.562 155.375H427C421.875 155.375 417.958 153.167 415.25 148.75C414.292 146.917 413.812 144.729 413.812 142.188C413.812 133.021 419.562 122.625 431.062 111C437.854 105.208 443.562 101.25 448.188 99.125L440.562 77.5C438.646 71.25 437.688 65.4375 437.688 60.0625V59.0625C437.688 44.1458 443.479 30.25 455.062 17.375C460.812 11.7917 465.312 8.27083 468.562 6.8125C476.229 2.52083 483.583 0.375 490.625 0.375ZM417.188 141.562V142.438C417.188 147.604 419.771 151.083 424.938 152.875C425.938 153.167 426.958 153.312 428 153.312H429.438C435.062 153.312 440.396 150.229 445.438 144.062C449.729 137.979 451.875 130.271 451.875 120.938C451.875 115.104 450.896 108.521 448.938 101.188C446.771 101.979 442.333 104.958 435.625 110.125C429.083 116.458 425.229 120.854 424.062 123.312C419.479 130.188 417.188 136.271 417.188 141.562Z" fill="#4131FF"/>
<path d="M484.938 83.375C486.521 83.375 487.896 84.2083 489.062 85.875C489.229 86.0833 489.438 86.9167 489.688 88.375C489.604 89.3333 489.479 90.1875 489.312 90.9375H489.438C490.062 90.9375 492.167 90.125 495.75 88.5C495.917 88.4167 496.083 88.375 496.25 88.375C497 88.5417 497.375 88.7292 497.375 88.9375V89.0625C497.375 90.1042 494.812 91.3958 489.688 92.9375C488.729 92.9375 488.104 93.4375 487.812 94.4375C486.062 96.7708 484.292 97.9375 482.5 97.9375H482C480.25 97.9375 479.25 96.5208 479 93.6875V92.1875C479 87.5625 480.708 84.625 484.125 83.375H484.938ZM484.312 85.375C483.771 86.125 483.5 86.875 483.5 87.625C483.75 89.8333 484.688 90.9375 486.312 90.9375C486.479 90.3125 486.562 89.7292 486.562 89.1875C486.562 87.3125 486.021 86.125 484.938 85.625L484.312 85.375ZM482 91.6875V92.1875C482.083 94.6875 482.417 95.9375 483 95.9375C483.792 95.5625 484.562 94.7292 485.312 93.4375V93.1875C484.271 93.1875 483.167 92.6875 482 91.6875Z" fill="#4131FF"/>
<path d="M512.312 48.8125H512.875C513.875 48.8542 514.417 49.5833 514.5 51C514.417 53.375 513.479 54.875 511.688 55.5H511L510.75 55.3125C506.375 65.6458 501.812 77.8333 497.062 91.875V92.1875H497.25C503.625 91.6458 507.604 90.8958 509.188 89.9375C510.354 89.0625 511.25 88.625 511.875 88.625C512.708 88.875 513.104 89.3125 513.062 89.9375C511.979 92.0208 506.812 93.4792 497.562 94.3125C496.479 94.2708 495.917 94.7708 495.875 95.8125C495.375 97.2708 495.125 98.1667 495.125 98.5C496.458 104.667 497.062 109.938 496.938 114.312C496.812 119.396 495.188 122.604 492.062 123.938L490.25 124.188C488.208 124.104 487.229 122.333 487.312 118.875C487.396 114.875 488.875 108.167 491.75 98.75C491.333 96.0833 491 94.75 490.75 94.75C489.917 94.6667 489.5 94.25 489.5 93.5C489.5 92.6667 490.667 92.2917 493 92.375H493.75C499.667 74.4167 505.146 60.2292 510.188 49.8125C510.896 49.1458 511.604 48.8125 512.312 48.8125ZM492.938 105.625C491.396 111.792 490.583 116.354 490.5 119.312C490.5 119.979 490.625 120.792 490.875 121.75H491.312C492.729 120.833 493.479 118.479 493.562 114.688L493.625 113.125C493.667 111.667 493.5 109.167 493.125 105.625H492.938Z" fill="#4131FF"/>
<path d="M527.438 48.8125H528C529 48.8542 529.542 49.5833 529.625 51C529.542 53.375 528.604 54.875 526.812 55.5H526.125L525.875 55.3125C521.5 65.6458 516.938 77.8333 512.188 91.875V92.1875H512.375C518.75 91.6458 522.729 90.8958 524.312 89.9375C525.479 89.0625 526.375 88.625 527 88.625C527.833 88.875 528.229 89.3125 528.188 89.9375C527.104 92.0208 521.938 93.4792 512.688 94.3125C511.604 94.2708 511.042 94.7708 511 95.8125C510.5 97.2708 510.25 98.1667 510.25 98.5C511.583 104.667 512.188 109.938 512.062 114.312C511.938 119.396 510.312 122.604 507.188 123.938L505.375 124.188C503.333 124.104 502.354 122.333 502.438 118.875C502.521 114.875 504 108.167 506.875 98.75C506.458 96.0833 506.125 94.75 505.875 94.75C505.042 94.6667 504.625 94.25 504.625 93.5C504.625 92.6667 505.792 92.2917 508.125 92.375H508.875C514.792 74.4167 520.271 60.2292 525.312 49.8125C526.021 49.1458 526.729 48.8125 527.438 48.8125ZM508.062 105.625C506.521 111.792 505.708 116.354 505.625 119.312C505.625 119.979 505.75 120.792 506 121.75H506.438C507.854 120.833 508.604 118.479 508.688 114.688L508.75 113.125C508.792 111.667 508.625 109.167 508.25 105.625H508.062Z" fill="#4131FF"/>
<path d="M528.875 84.3125H529.562C530.188 84.3125 530.542 84.5833 530.625 85.125C528.917 90 528.062 93.1667 528.062 94.625C528.062 95 528.146 95.1875 528.312 95.1875C529.062 94.6458 531.604 92.5417 535.938 88.875C536.188 88.625 536.646 88.5 537.312 88.5C537.938 88.5 538.333 88.7083 538.5 89.125V89.5625C537.625 90.6042 535.354 92.5625 531.688 95.4375C529.938 96.6875 528.5 97.3125 527.375 97.3125H527C525.75 97.3125 525.125 96.5208 525.125 94.9375V94.375C525.125 92.1667 525.938 89 527.562 84.875C528.146 84.5 528.583 84.3125 528.875 84.3125ZM533.562 74.0625C533.854 73.9375 534.125 73.6875 534.375 73.3125L534.125 72.4375C533.333 71.8125 531.375 72.4167 528.25 74.25L527.625 74.75L527.5 75.625C528.625 76.75 530.562 76.3125 533.312 74.3125L533.562 74.0625Z" fill="#4131FF"/>
<path d="M546.625 83.6875H547.188C547.854 83.6875 548.188 83.9792 548.188 84.5625C546.938 88.7292 546.312 91.8125 546.312 93.8125V94.5625C546.354 95.7292 546.479 96.3542 546.688 96.4375C547.562 96.1458 550 93.375 554 88.125C554.625 87.9167 555.104 87.8125 555.438 87.8125C556.188 88.0208 556.562 88.2292 556.562 88.4375V88.875C551.812 94.75 548.562 98.1875 546.812 99.1875L545.125 99.25C543.833 98.5833 543.146 97.1875 543.062 95.0625C543.062 94.8125 543.021 94.625 542.938 94.5L543.188 91.9375C540.521 94.8125 538.479 96.25 537.062 96.25C535.562 96 534.812 95.25 534.812 94V92.8125C534.812 90.9375 535.771 88.7083 537.688 86.125C539.062 84.7917 540.333 84.125 541.5 84.125H542.312C542.896 84.125 543.667 84.4167 544.625 85C545.333 84.125 546 83.6875 546.625 83.6875ZM537.938 93.375C538.021 93.9583 538.125 94.25 538.25 94.25C539.542 93.0833 540.771 91.4583 541.938 89.375C542.229 89.0833 542.792 88.2083 543.625 86.75L543.062 86.875C542.146 86.5833 541.562 86.4375 541.312 86.4375C540.354 86.4375 539.333 88 538.25 91.125C538.042 92.4583 537.938 93.2083 537.938 93.375Z" fill="#4131FF"/>
<path d="M564.812 82.75H564.875C566.292 82.8333 566.979 83.3542 566.938 84.3125V84.75C566.896 85.4167 566.062 89 564.438 95.5C564.354 96.125 564.292 96.6458 564.25 97.0625C564.292 97.6875 564.417 98.0208 564.625 98.0625C565.667 97.3542 567.854 95.0417 571.188 91.125C573.188 88.375 574.417 87.4375 574.875 88.3125C575.25 88.8542 575.396 89.1875 575.312 89.3125C574.688 90.3958 572.542 92.9792 568.875 97.0625C566.833 99.2708 565 100.208 563.375 99.875H563.062C561.729 99.7917 561.104 98.75 561.188 96.75C561.688 93.9167 562.604 90.0208 563.938 85.0625V84.9375C562.188 87.3125 560.125 90.5833 557.75 94.75C556.667 96.25 555.792 97 555.125 97L554.562 96.9375C553.521 96.7292 553.021 96.1875 553.062 95.3125L553.125 94.6875C554.042 88.6875 555 85.7083 556 85.75C556.333 85.625 556.688 85.5625 557.062 85.5625C557.771 85.8125 558.125 86.0417 558.125 86.25V86.375C557.375 88.9583 556.979 90.375 556.938 90.625C560.104 85.2917 562.729 82.6667 564.812 82.75Z" fill="#4131FF"/>
</svg>
