<svg width="56" height="56" viewBox="0 0 56 56" fill="none" xmlns="http://www.w3.org/2000/svg" style="">
<path width="56" height="56" fill="#1A46D0" d="M0 0 L56 0 L56 56 L0 56 Z" class="zDUxbcCL_0"></path>
<path stroke="white" d="M16,30A2,2 0,1,1 20,30A2,2 0,1,1 16,30" class="zDUxbcCL_1"></path>
<path stroke="white" d="M26,30A2,2 0,1,1 30,30A2,2 0,1,1 26,30" class="zDUxbcCL_2"></path>
<path stroke="white" d="M36,30A2,2 0,1,1 40,30A2,2 0,1,1 36,30" class="zDUxbcCL_3"></path>
<style data-made-with="vivus-instant">.zDUxbcCL_0{stroke-dasharray:224 226;stroke-dashoffset:225;animation:zDUxbcCL_draw 500ms ease-in-out 0ms forwards;}.zDUxbcCL_1{stroke-dasharray:13 15;stroke-dashoffset:14;animation:zDUxbcCL_draw 500ms ease-in-out 83ms forwards;}.zDUxbcCL_2{stroke-dasharray:13 15;stroke-dashoffset:14;animation:zDUxbcCL_draw 500ms ease-in-out 166ms forwards;}.zDUxbcCL_3{stroke-dasharray:13 15;stroke-dashoffset:14;animation:zDUxbcCL_draw 500ms ease-in-out 250ms forwards;}@keyframes zDUxbcCL_draw{100%{stroke-dashoffset:0;}}@keyframes zDUxbcCL_fade{0%{stroke-opacity:1;}91.91919191919192%{stroke-opacity:1;}100%{stroke-opacity:0;}}</style></svg>
