<svg width="330" height="164" viewBox="0 0 330 164" fill="none" xmlns="http://www.w3.org/2000/svg">
<path d="M113.375 0.5625H113.75C117.833 0.5625 119.875 3.125 119.875 8.25V9.0625C119.875 17.0208 114.708 34.9167 104.375 62.75C98.1667 80.25 93.5208 94.4167 90.4375 105.25C85.5625 121.958 83.125 135.521 83.125 145.938V146.562C83.125 152.396 84.0417 157.583 85.875 162.125V162.312C85.4583 162.979 84.8958 163.312 84.1875 163.312H83.4375C82.6875 163.312 81.9792 161.833 81.3125 158.875C80.3125 155.583 79.8125 151.458 79.8125 146.5C79.8125 130.375 85.9583 105.25 98.25 71.125C105.25 51.7083 110.417 36.4583 113.75 25.375C115.792 18.2083 116.812 12.75 116.812 9V8.625C116.812 4.58333 115.333 2.5625 112.375 2.5625C104.875 2.5625 91.5 21.6458 72.25 59.8125C65.8333 72.3958 60.625 81.8958 56.625 88.3125C53.625 92.8125 51.1458 95.0625 49.1875 95.0625C47.5208 95.0625 46.6875 92.3542 46.6875 86.9375C46.6875 83.1875 47.5 71.0625 49.125 50.5625C49.2917 46.7292 49.375 43.2917 49.375 40.25V40.1875C49.375 32.4792 48.6667 27.6042 47.25 25.5625C46.875 25.0625 46.3125 24.8125 45.5625 24.8125H45.375C40.4583 24.8125 32.8125 39.7292 22.4375 69.5625L8.75 109.188C5.95833 116.938 3.72917 120.812 2.0625 120.812C1.85417 120.812 1.6875 120.833 1.5625 120.875C0.520833 120.667 0 120.417 0 120.125V120.062C0 118.021 3.0625 105.271 9.1875 81.8125C11.8542 72.4375 14.6458 61.2708 17.5625 48.3125C16.7708 48.2708 16.375 47.9375 16.375 47.3125C16.375 44.8125 16.9583 42.7917 18.125 41.25C18.875 40.75 19.5208 40.5 20.0625 40.5C21.1458 40.7083 21.6875 41.5 21.6875 42.875C21.7292 42.9583 21.75 43.1458 21.75 43.4375C20.7083 49.4375 18.8542 57.625 16.1875 68C11.5208 85.25 8.04167 98.6042 5.75 108.062V108.125H5.875C13.25 86.4167 18.9167 70.1458 22.875 59.3125C32.2083 34.9375 39.9375 22.75 46.0625 22.75H46.8125C50.7708 22.75 52.75 28.5 52.75 40C52.75 47.125 51.8542 60.625 50.0625 80.5C49.9375 82.9583 49.875 85.1458 49.875 87.0625V87.25C49.9583 90.625 50.2292 92.3125 50.6875 92.3125C51.5625 91.5625 52.6875 90.0208 54.0625 87.6875C58.8958 79.1458 65.8333 66.0625 74.875 48.4375C80.7083 37.3125 86.7292 27.1458 92.9375 17.9375C101.104 6.35417 107.917 0.5625 113.375 0.5625ZM5.4375 103.375V103.562H5.5V103.375H5.4375Z" fill="#4131FF"/>
<path d="M105.25 83.125C106.042 83.1667 106.438 83.4167 106.438 83.875C105.021 88.125 104.312 91.3333 104.312 93.5C104.312 94.8333 104.604 95.6458 105.188 95.9375C106.021 95.9375 107.708 93.6667 110.25 89.125C111.042 87.7917 111.604 86.4583 111.938 85.125C112.229 83.7917 112.938 83.125 114.062 83.125H114.438C115.104 83.2083 115.438 83.4583 115.438 83.875C115.021 85.2917 114.771 86.2708 114.688 86.8125C114.521 86.8125 113.958 88.5208 113 91.9375C109.833 102.396 105.479 118.958 99.9375 141.625C100.688 141.583 100.771 142.625 100.188 144.75C99.2708 147.042 98.3333 148.208 97.375 148.25L96 148.312C95.5 147.854 95.25 147.438 95.25 147.062C95.25 146.938 96.5 142 99 132.25C102.667 117.792 105.896 105.667 108.688 95.875H108.625C106.5 98.0833 104.542 98.875 102.75 98.25C101.625 98.0833 101.062 96.5417 101.062 93.625C101.062 91.5833 101.812 88.375 103.312 84C103.771 83.4167 104.417 83.125 105.25 83.125Z" fill="#4131FF"/>
<path d="M230.562 2.625C248.479 2.625 266.708 3.1875 285.25 4.3125C285.542 4.5625 285.688 4.72917 285.688 4.8125V5C285.521 5.83333 284.958 6.25 284 6.25C263.417 5.20833 245.375 4.6875 229.875 4.6875C208.625 4.6875 194.479 5.47917 187.438 7.0625L187.562 7.25V7.625C187.062 8.29167 186.458 8.625 185.75 8.625H185.312C184.562 8.625 184.188 8.20833 184.188 7.375C184.188 4.20833 199.646 2.625 230.562 2.625ZM241.438 12.5H241.562C242.354 12.5 242.75 12.75 242.75 13.25C239.833 31.7917 236.417 48.0625 232.5 62.0625C230.917 67.6042 229.104 73.4792 227.062 79.6875H227.188C235.771 80.7708 240.062 81.6042 240.062 82.1875V82.625C239.604 83.2917 238.938 83.625 238.062 83.625C234.812 82.9583 230.896 82.3125 226.312 81.6875C221.646 95.2708 216.292 107.521 210.25 118.438C206.542 125.104 201.75 131.979 195.875 139.062C185.458 150.312 176.083 155.938 167.75 155.938C160.292 155.938 155.292 151.646 152.75 143.062C152 140.271 151.625 137.375 151.625 134.375C151.625 123 155.958 111.854 164.625 100.938C177.375 86.3958 194.646 79.125 216.438 79.125C219.438 79.125 221.938 79.2292 223.938 79.4375C228.521 66.7708 233.062 48.7708 237.562 25.4375L239.625 13.25C240.25 12.75 240.854 12.5 241.438 12.5ZM154.875 134C154.875 142.375 157.292 148.354 162.125 151.938C164 153.229 166.104 153.875 168.438 153.875C175.521 153.875 184 148.458 193.875 137.625C199.625 130.542 204.583 123.083 208.75 115.25C213.542 106.417 218.333 95.2708 223.125 81.8125C223.208 81.6875 223.25 81.5833 223.25 81.5H223.125C221.458 81.3333 219.042 81.2083 215.875 81.125C195.417 81.125 179.229 87.9792 167.312 101.688C159.021 112.104 154.875 122.875 154.875 134Z" fill="#4131FF"/>
<path d="M239.562 83.375C241.146 83.375 242.521 84.2083 243.688 85.875C243.854 86.0833 244.062 86.9167 244.312 88.375C244.229 89.3333 244.104 90.1875 243.938 90.9375H244.062C244.688 90.9375 246.792 90.125 250.375 88.5C250.542 88.4167 250.708 88.375 250.875 88.375C251.625 88.5417 252 88.7292 252 88.9375V89.0625C252 90.1042 249.438 91.3958 244.312 92.9375C243.354 92.9375 242.729 93.4375 242.438 94.4375C240.688 96.7708 238.917 97.9375 237.125 97.9375H236.625C234.875 97.9375 233.875 96.5208 233.625 93.6875V92.1875C233.625 87.5625 235.333 84.625 238.75 83.375H239.562ZM238.938 85.375C238.396 86.125 238.125 86.875 238.125 87.625C238.375 89.8333 239.312 90.9375 240.938 90.9375C241.104 90.3125 241.188 89.7292 241.188 89.1875C241.188 87.3125 240.646 86.125 239.562 85.625L238.938 85.375ZM236.625 91.6875V92.1875C236.708 94.6875 237.042 95.9375 237.625 95.9375C238.417 95.5625 239.188 94.7292 239.938 93.4375V93.1875C238.896 93.1875 237.792 92.6875 236.625 91.6875Z" fill="#4131FF"/>
<path d="M253.25 83.375L253.875 83.4375C254.625 83.5625 254.896 84.0833 254.688 85V85.1875C253.521 88.6875 252.938 91.3125 252.938 93.0625V93.125C252.938 93.9583 253.083 94.5625 253.375 94.9375H253.438C254.229 94.2708 254.979 93.3125 255.688 92.0625C256.479 90.6875 257.458 88.9375 258.625 86.8125C259 86.3125 259.396 86.0625 259.812 86.0625H259.938C261.104 86.1875 261.688 86.4792 261.688 86.9375L261.75 87.0625C260.958 89.4792 260.562 91.3958 260.562 92.8125V92.9375C260.562 94.0625 260.833 94.7292 261.375 94.9375C262.333 94.9375 264 93.9375 266.375 91.9375C268.042 90.1042 268.958 89.1875 269.125 89.1875C269.583 89.0208 269.979 88.9375 270.312 88.9375C270.896 88.9375 271.333 89.1667 271.625 89.625V89.9375C271.417 90.5625 269.917 92.0625 267.125 94.4375C264.667 96.2292 262.562 97.125 260.812 97.125H260.562C258.854 97.125 257.75 96.2917 257.25 94.625V94.375H257.188C255.646 96.2083 254.125 97.125 252.625 97.125H252.312C251.062 97.125 250.188 96.4792 249.688 95.1875C249.562 94.7708 249.5 94.2917 249.5 93.75V93.0625C249.5 91.3958 250.125 88.7708 251.375 85.1875C251.875 83.8542 252.5 83.25 253.25 83.375Z" fill="#4131FF"/>
<path d="M271.062 81H271.375C272.625 81 273.438 81.6667 273.812 83C273.854 83.375 273.896 83.75 273.938 84.125C273.896 84.625 273.812 85.2708 273.688 86.0625H273.812C275.562 86.0625 276.604 86.625 276.938 87.75C277.062 88.25 277.125 88.625 277.125 88.875C277.125 89.9167 276.75 91.625 276 94L275.938 94.3125C276.688 93.9792 278.042 93.0417 280 91.5C281.167 90.5 282.167 89.5 283 88.5C283.542 88.2083 284.042 88.0625 284.5 88.0625C285.125 88.0625 285.542 88.2917 285.75 88.75V89C285.708 89.4583 284.271 90.875 281.438 93.25C279.271 94.875 278.083 95.6875 277.875 95.6875C276.708 96.3125 275.646 96.625 274.688 96.625C273.688 96.625 273.062 96.25 272.812 95.5C272.771 95.2917 272.75 95.1042 272.75 94.9375V94.8125C272.75 94.3125 273.021 93.1458 273.562 91.3125C273.854 90.3542 274 89.5833 274 89C274 88.4167 273.75 88.125 273.25 88.125H273.125C272.167 91.0833 271.062 93.7292 269.812 96.0625C268.604 98.4792 267.5 100.521 266.5 102.188C266 102.646 265.479 102.875 264.938 102.875H264.688C263.896 102.792 263.5 102.542 263.5 102.125V102C263.5 101.917 264.271 100.479 265.812 97.6875C267.688 94.1875 269.083 91.0417 270 88.25C269.208 88.0833 268.604 87.8333 268.188 87.5C267.354 86.75 266.938 85.9167 266.938 85C266.938 83.4167 267.833 82.1875 269.625 81.3125C270.125 81.1042 270.604 81 271.062 81ZM270.438 83.125C270.354 83.4167 270.312 83.75 270.312 84.125C270.312 84.75 270.396 85.2708 270.562 85.6875C270.646 85.2292 270.688 84.8333 270.688 84.5C270.688 84.0417 270.625 83.5833 270.5 83.125H270.438Z" fill="#4131FF"/>
<path d="M294.562 82.75H294.625C296.042 82.8333 296.729 83.3542 296.688 84.3125V84.75C296.646 85.4167 295.812 89 294.188 95.5C294.104 96.125 294.042 96.6458 294 97.0625C294.042 97.6875 294.167 98.0208 294.375 98.0625C295.417 97.3542 297.604 95.0417 300.938 91.125C302.938 88.375 304.167 87.4375 304.625 88.3125C305 88.8542 305.146 89.1875 305.062 89.3125C304.438 90.3958 302.292 92.9792 298.625 97.0625C296.583 99.2708 294.75 100.208 293.125 99.875H292.812C291.479 99.7917 290.854 98.75 290.938 96.75C291.438 93.9167 292.354 90.0208 293.688 85.0625V84.9375C291.938 87.3125 289.875 90.5833 287.5 94.75C286.417 96.25 285.542 97 284.875 97L284.312 96.9375C283.271 96.7292 282.771 96.1875 282.812 95.3125L282.875 94.6875C283.792 88.6875 284.75 85.7083 285.75 85.75C286.083 85.625 286.438 85.5625 286.812 85.5625C287.521 85.8125 287.875 86.0417 287.875 86.25V86.375C287.125 88.9583 286.729 90.375 286.688 90.625C289.854 85.2917 292.479 82.6667 294.562 82.75Z" fill="#4131FF"/>
<path d="M307.812 83.6875H308.562C309.438 83.6875 309.979 84.3333 310.188 85.625V85.8125C310.188 87.1875 309.271 88.375 307.438 89.375C306.896 89.625 306.333 89.75 305.75 89.75H304.812L304.375 89.6875C303.625 91.5208 303.25 92.8958 303.25 93.8125V94.3125C303.333 95.6042 303.708 96.25 304.375 96.25C306.25 96.25 309.896 93.6458 315.312 88.4375C315.729 88.0625 316.229 87.8542 316.812 87.8125C317.312 87.8125 317.667 88.0208 317.875 88.4375V88.6875C317.875 89.1042 316.938 90.0833 315.062 91.625C310.271 96 306.604 98.1875 304.062 98.1875H303.375C301.333 97.8958 300.312 96.8333 300.312 95V94.3125C300.312 91.1875 301.896 88.0417 305.062 84.875C306.188 84.0833 307.104 83.6875 307.812 83.6875ZM305.562 87.75H305.812C306.812 87.75 307.312 87.1042 307.312 85.8125C306.521 86.5208 305.938 87.1667 305.562 87.75Z" fill="#4131FF"/>
<path d="M319.125 83.125C319.917 83.1667 320.312 83.4167 320.312 83.875C318.896 88.125 318.188 91.3333 318.188 93.5C318.188 94.8333 318.479 95.6458 319.062 95.9375C319.896 95.9375 321.583 93.6667 324.125 89.125C324.917 87.7917 325.479 86.4583 325.812 85.125C326.104 83.7917 326.812 83.125 327.938 83.125H328.312C328.979 83.2083 329.312 83.4583 329.312 83.875C328.896 85.2917 328.646 86.2708 328.562 86.8125C328.396 86.8125 327.833 88.5208 326.875 91.9375C323.708 102.396 319.354 118.958 313.812 141.625C314.562 141.583 314.646 142.625 314.062 144.75C313.146 147.042 312.208 148.208 311.25 148.25L309.875 148.312C309.375 147.854 309.125 147.438 309.125 147.062C309.125 146.938 310.375 142 312.875 132.25C316.542 117.792 319.771 105.667 322.562 95.875H322.5C320.375 98.0833 318.417 98.875 316.625 98.25C315.5 98.0833 314.938 96.5417 314.938 93.625C314.938 91.5833 315.688 88.375 317.188 84C317.646 83.4167 318.292 83.125 319.125 83.125Z" fill="#4131FF"/>
</svg>
