<svg width="424" height="164" viewBox="0 0 424 164" fill="none" xmlns="http://www.w3.org/2000/svg">
<path d="M113.375 0.5625H113.75C117.833 0.5625 119.875 3.125 119.875 8.25V9.0625C119.875 17.0208 114.708 34.9167 104.375 62.75C98.1667 80.25 93.5208 94.4167 90.4375 105.25C85.5625 121.958 83.125 135.521 83.125 145.938V146.562C83.125 152.396 84.0417 157.583 85.875 162.125V162.312C85.4583 162.979 84.8958 163.312 84.1875 163.312H83.4375C82.6875 163.312 81.9792 161.833 81.3125 158.875C80.3125 155.583 79.8125 151.458 79.8125 146.5C79.8125 130.375 85.9583 105.25 98.25 71.125C105.25 51.7083 110.417 36.4583 113.75 25.375C115.792 18.2083 116.812 12.75 116.812 9V8.625C116.812 4.58333 115.333 2.5625 112.375 2.5625C104.875 2.5625 91.5 21.6458 72.25 59.8125C65.8333 72.3958 60.625 81.8958 56.625 88.3125C53.625 92.8125 51.1458 95.0625 49.1875 95.0625C47.5208 95.0625 46.6875 92.3542 46.6875 86.9375C46.6875 83.1875 47.5 71.0625 49.125 50.5625C49.2917 46.7292 49.375 43.2917 49.375 40.25V40.1875C49.375 32.4792 48.6667 27.6042 47.25 25.5625C46.875 25.0625 46.3125 24.8125 45.5625 24.8125H45.375C40.4583 24.8125 32.8125 39.7292 22.4375 69.5625L8.75 109.188C5.95833 116.938 3.72917 120.812 2.0625 120.812C1.85417 120.812 1.6875 120.833 1.5625 120.875C0.520833 120.667 0 120.417 0 120.125V120.062C0 118.021 3.0625 105.271 9.1875 81.8125C11.8542 72.4375 14.6458 61.2708 17.5625 48.3125C16.7708 48.2708 16.375 47.9375 16.375 47.3125C16.375 44.8125 16.9583 42.7917 18.125 41.25C18.875 40.75 19.5208 40.5 20.0625 40.5C21.1458 40.7083 21.6875 41.5 21.6875 42.875C21.7292 42.9583 21.75 43.1458 21.75 43.4375C20.7083 49.4375 18.8542 57.625 16.1875 68C11.5208 85.25 8.04167 98.6042 5.75 108.062V108.125H5.875C13.25 86.4167 18.9167 70.1458 22.875 59.3125C32.2083 34.9375 39.9375 22.75 46.0625 22.75H46.8125C50.7708 22.75 52.75 28.5 52.75 40C52.75 47.125 51.8542 60.625 50.0625 80.5C49.9375 82.9583 49.875 85.1458 49.875 87.0625V87.25C49.9583 90.625 50.2292 92.3125 50.6875 92.3125C51.5625 91.5625 52.6875 90.0208 54.0625 87.6875C58.8958 79.1458 65.8333 66.0625 74.875 48.4375C80.7083 37.3125 86.7292 27.1458 92.9375 17.9375C101.104 6.35417 107.917 0.5625 113.375 0.5625ZM5.4375 103.375V103.562H5.5V103.375H5.4375Z" fill="#4131FF"/>
<path d="M105.25 83.125C106.042 83.1667 106.438 83.4167 106.438 83.875C105.021 88.125 104.312 91.3333 104.312 93.5C104.312 94.8333 104.604 95.6458 105.188 95.9375C106.021 95.9375 107.708 93.6667 110.25 89.125C111.042 87.7917 111.604 86.4583 111.938 85.125C112.229 83.7917 112.938 83.125 114.062 83.125H114.438C115.104 83.2083 115.438 83.4583 115.438 83.875C115.021 85.2917 114.771 86.2708 114.688 86.8125C114.521 86.8125 113.958 88.5208 113 91.9375C109.833 102.396 105.479 118.958 99.9375 141.625C100.688 141.583 100.771 142.625 100.188 144.75C99.2708 147.042 98.3333 148.208 97.375 148.25L96 148.312C95.5 147.854 95.25 147.438 95.25 147.062C95.25 146.938 96.5 142 99 132.25C102.667 117.792 105.896 105.667 108.688 95.875H108.625C106.5 98.0833 104.542 98.875 102.75 98.25C101.625 98.0833 101.062 96.5417 101.062 93.625C101.062 91.5833 101.812 88.375 103.312 84C103.771 83.4167 104.417 83.125 105.25 83.125Z" fill="#4131FF"/>
<path d="M226.125 0.375H229.188C236.354 0.375 243.917 2.85417 251.875 7.8125C252.083 8.60417 252.188 9.10417 252.188 9.3125V9.625C252.188 10.6667 251.104 11.1875 248.938 11.1875C247.979 11.1875 247.062 10.3542 246.188 8.6875V8.5625C246.188 8.3125 246.292 8.02083 246.5 7.6875C239.875 4.1875 233.729 2.4375 228.062 2.4375H225.812C214.562 2.4375 203.542 7.79167 192.75 18.5C186.875 25.4583 182.729 32.1042 180.312 38.4375C177.771 45.5625 176.5 52.0417 176.5 57.875V60.6875C176.5 67.8542 179.438 78.7292 185.312 93.3125C186.271 96.0625 186.75 97.5625 186.75 97.8125C194.208 94.0208 202.229 91 210.812 88.75L213.938 88.375C215.604 88.1667 216.792 88.2292 217.5 88.5625C217.625 89.8958 216.771 90.4792 214.938 90.3125C212.729 90.4792 210.375 90.9167 207.875 91.625C201.625 93.8333 194.833 96.5417 187.5 99.75V100C189.667 107.375 190.75 114.271 190.75 120.688C190.75 135.854 185.271 146.521 174.312 152.688C170.729 154.479 167.312 155.375 164.062 155.375H162.5C157.375 155.375 153.458 153.167 150.75 148.75C149.792 146.917 149.312 144.729 149.312 142.188C149.312 133.021 155.062 122.625 166.562 111C173.354 105.208 179.062 101.25 183.688 99.125L176.062 77.5C174.146 71.25 173.188 65.4375 173.188 60.0625V59.0625C173.188 44.1458 178.979 30.25 190.562 17.375C196.312 11.7917 200.812 8.27083 204.062 6.8125C211.729 2.52083 219.083 0.375 226.125 0.375ZM152.688 141.562V142.438C152.688 147.604 155.271 151.083 160.438 152.875C161.438 153.167 162.458 153.312 163.5 153.312H164.938C170.562 153.312 175.896 150.229 180.938 144.062C185.229 137.979 187.375 130.271 187.375 120.938C187.375 115.104 186.396 108.521 184.438 101.188C182.271 101.979 177.833 104.958 171.125 110.125C164.583 116.458 160.729 120.854 159.562 123.312C154.979 130.188 152.688 136.271 152.688 141.562Z" fill="#4131FF"/>
<path d="M235.5 32H235.938C237.146 32 237.75 32.6875 237.75 34.0625C236.917 38.2708 235.562 40.375 233.688 40.375C227.229 60.4583 222.042 77.375 218.125 91.125H218.562C222.312 84.6667 225.25 81.4375 227.375 81.4375H228.062C229.271 81.4375 230.021 82.2708 230.312 83.9375V85.0625C229.979 87.7708 226.812 90.8542 220.812 94.3125C222.562 96.1042 224.083 97 225.375 97H225.812C228.104 97 231.188 94.0625 235.062 88.1875L236.188 88H237.062C237.312 88 237.542 88.2292 237.75 88.6875V89.125C233.167 95.875 229.188 99.25 225.812 99.25H224.25C222.875 99.25 220.979 98.3542 218.562 96.5625C216.354 100.729 214.479 105.25 212.938 110.125C212.438 110.417 211.979 110.562 211.562 110.562H210.688C210.312 110.562 210.083 110.271 210 109.688C214.375 91.7292 221.75 66.7292 232.125 34.6875C232.125 33.3125 233.25 32.4167 235.5 32ZM226.5 84.375C223.625 88.3333 222.188 90.375 222.188 90.5V90.6875C225.354 88.6458 226.938 86.6875 226.938 84.8125V84.375H226.5Z" fill="#4131FF"/>
<path d="M238.5 84.3125H239.188C239.812 84.3125 240.167 84.5833 240.25 85.125C238.542 90 237.688 93.1667 237.688 94.625C237.688 95 237.771 95.1875 237.938 95.1875C238.688 94.6458 241.229 92.5417 245.562 88.875C245.812 88.625 246.271 88.5 246.938 88.5C247.562 88.5 247.958 88.7083 248.125 89.125V89.5625C247.25 90.6042 244.979 92.5625 241.312 95.4375C239.562 96.6875 238.125 97.3125 237 97.3125H236.625C235.375 97.3125 234.75 96.5208 234.75 94.9375V94.375C234.75 92.1667 235.562 89 237.188 84.875C237.771 84.5 238.208 84.3125 238.5 84.3125ZM243.188 74.0625C243.479 73.9375 243.75 73.6875 244 73.3125L243.75 72.4375C242.958 71.8125 241 72.4167 237.875 74.25L237.25 74.75L237.125 75.625C238.25 76.75 240.188 76.3125 242.938 74.3125L243.188 74.0625Z" fill="#4131FF"/>
<path d="M261.312 46.125H262.188C262.562 46.1667 262.75 46.3542 262.75 46.6875V47.5625C262.75 49.9792 261.792 51.7083 259.875 52.75C251.417 78.3333 247.188 93.8958 247.188 99.4375V100.562L247.5 102.625H248.375C250.875 100.458 254.604 95.5417 259.562 87.875L260.188 87.625H261.625C262 87.625 262.188 87.9167 262.188 88.5C255.354 99.625 250.542 105.188 247.75 105.188H246.062C244.896 104.562 244.312 103.5 244.312 102V99.125C244.312 92.6667 248.625 76.625 257.25 51C258.417 47.75 259.771 46.125 261.312 46.125Z" fill="#4131FF"/>
<path d="M275.188 46.125H276.062C276.438 46.1667 276.625 46.3542 276.625 46.6875V47.5625C276.625 49.9792 275.667 51.7083 273.75 52.75C265.292 78.3333 261.062 93.8958 261.062 99.4375V100.562L261.375 102.625H262.25C264.75 100.458 268.479 95.5417 273.438 87.875L274.062 87.625H275.5C275.875 87.625 276.062 87.9167 276.062 88.5C269.229 99.625 264.417 105.188 261.625 105.188H259.938C258.771 104.562 258.188 103.5 258.188 102V99.125C258.188 92.6667 262.5 76.625 271.125 51C272.292 47.75 273.646 46.125 275.188 46.125Z" fill="#4131FF"/>
<path d="M280.062 82.1875H280.875C281.708 82.1875 282.25 82.625 282.5 83.5V83.9375C282.5 85.3125 281.479 86.7708 279.438 88.3125C278.396 89.0208 277.708 89.375 277.375 89.375V89.4375C280 89.7292 281.438 90.0208 281.688 90.3125C282.021 90.6875 282.188 91 282.188 91.25V91.6875L282.125 92.25C286.25 89.75 288.229 88.5833 288.062 88.75C288.396 88.5833 288.729 88.5208 289.062 88.5625L289.438 89.5C289.104 90 288.729 90.375 288.312 90.625C287.688 90.9583 286.812 91.4792 285.688 92.1875C284.062 93.1875 282.062 94.7083 279.688 96.75C277.938 98.4167 276.438 100.042 275.188 101.625C274.771 102 274.292 102.188 273.75 102.188H273.438C273.021 102.188 272.708 102 272.5 101.625V101.375C272.5 101.083 273.75 99.5208 276.25 96.6875C278.208 94.3125 279.188 92.6875 279.188 91.8125C276.438 91.4792 274.646 91.0208 273.812 90.4375C273.062 89.8542 272.688 89.1875 272.688 88.4375V88.3125C272.688 86.4792 274.458 84.625 278 82.75C278.875 82.375 279.562 82.1875 280.062 82.1875ZM275.625 87.9375C276.542 87.9375 277.604 87.25 278.812 85.875C279.229 85.2917 279.458 84.7083 279.5 84.125H279.438C276.896 85.5833 275.625 86.8542 275.625 87.9375Z" fill="#4131FF"/>
<path d="M293.188 83.6875H293.938C294.812 83.6875 295.354 84.3333 295.562 85.625V85.8125C295.562 87.1875 294.646 88.375 292.812 89.375C292.271 89.625 291.708 89.75 291.125 89.75H290.188L289.75 89.6875C289 91.5208 288.625 92.8958 288.625 93.8125V94.3125C288.708 95.6042 289.083 96.25 289.75 96.25C291.625 96.25 295.271 93.6458 300.688 88.4375C301.104 88.0625 301.604 87.8542 302.188 87.8125C302.688 87.8125 303.042 88.0208 303.25 88.4375V88.6875C303.25 89.1042 302.312 90.0833 300.438 91.625C295.646 96 291.979 98.1875 289.438 98.1875H288.75C286.708 97.8958 285.688 96.8333 285.688 95V94.3125C285.688 91.1875 287.271 88.0417 290.438 84.875C291.562 84.0833 292.479 83.6875 293.188 83.6875ZM290.938 87.75H291.188C292.188 87.75 292.688 87.1042 292.688 85.8125C291.896 86.5208 291.312 87.1667 290.938 87.75Z" fill="#4131FF"/>
<path d="M307.75 68.5625H308.188C308.729 68.5625 309.104 68.7917 309.312 69.25L306.938 78.625C330.771 78.5417 349.042 78.5 361.75 78.5H412.25C419.5 78.5 423.125 78.7292 423.125 79.1875C423.417 79.2708 423.562 79.5625 423.562 80.0625V80.3125C423.562 81.1458 421.771 81.625 418.188 81.75H415.938C415.146 81.6667 414.75 81.3333 414.75 80.75C412.292 80.6667 410.604 80.625 409.688 80.625C384.271 80.625 349.771 80.6667 306.188 80.75C303.188 91.1667 296.542 112.896 286.25 145.938C286.25 149.979 285.021 152.583 282.562 153.75H281.562C281.229 153.667 281.042 153.25 281 152.5C281.083 151.583 282.646 146.417 285.688 137C294.271 109.583 300.021 90.8333 302.938 80.75H271.938C271.188 80.75 270.708 80.5208 270.5 80.0625V79.625C270.958 78.9583 271.479 78.625 272.062 78.625H303.375C303.583 78.625 304.479 75.5 306.062 69.25C306.646 68.7917 307.208 68.5625 307.75 68.5625Z" fill="#4131FF"/>
<path d="M314.562 82.1875H315.375C316.208 82.1875 316.75 82.625 317 83.5V83.9375C317 85.3125 315.979 86.7708 313.938 88.3125C312.896 89.0208 312.208 89.375 311.875 89.375V89.4375C314.5 89.7292 315.938 90.0208 316.188 90.3125C316.521 90.6875 316.688 91 316.688 91.25V91.6875L316.625 92.25C320.75 89.75 322.729 88.5833 322.562 88.75C322.896 88.5833 323.229 88.5208 323.562 88.5625L323.938 89.5C323.604 90 323.229 90.375 322.812 90.625C322.188 90.9583 321.312 91.4792 320.188 92.1875C318.562 93.1875 316.562 94.7083 314.188 96.75C312.438 98.4167 310.938 100.042 309.688 101.625C309.271 102 308.792 102.188 308.25 102.188H307.938C307.521 102.188 307.208 102 307 101.625V101.375C307 101.083 308.25 99.5208 310.75 96.6875C312.708 94.3125 313.688 92.6875 313.688 91.8125C310.938 91.4792 309.146 91.0208 308.312 90.4375C307.562 89.8542 307.188 89.1875 307.188 88.4375V88.3125C307.188 86.4792 308.958 84.625 312.5 82.75C313.375 82.375 314.062 82.1875 314.562 82.1875ZM310.125 87.9375C311.042 87.9375 312.104 87.25 313.312 85.875C313.729 85.2917 313.958 84.7083 314 84.125H313.938C311.396 85.5833 310.125 86.8542 310.125 87.9375Z" fill="#4131FF"/>
</svg>
