<svg width="329" height="181" viewBox="0 0 329 181" fill="none" xmlns="http://www.w3.org/2000/svg">
<path d="M113.375 17.5625H113.75C117.833 17.5625 119.875 20.125 119.875 25.25V26.0625C119.875 34.0208 114.708 51.9167 104.375 79.75C98.1667 97.25 93.5208 111.417 90.4375 122.25C85.5625 138.958 83.125 152.521 83.125 162.938V163.562C83.125 169.396 84.0417 174.583 85.875 179.125V179.312C85.4583 179.979 84.8958 180.312 84.1875 180.312H83.4375C82.6875 180.312 81.9792 178.833 81.3125 175.875C80.3125 172.583 79.8125 168.458 79.8125 163.5C79.8125 147.375 85.9583 122.25 98.25 88.125C105.25 68.7083 110.417 53.4583 113.75 42.375C115.792 35.2083 116.812 29.75 116.812 26V25.625C116.812 21.5833 115.333 19.5625 112.375 19.5625C104.875 19.5625 91.5 38.6458 72.25 76.8125C65.8333 89.3958 60.625 98.8958 56.625 105.312C53.625 109.812 51.1458 112.062 49.1875 112.062C47.5208 112.062 46.6875 109.354 46.6875 103.938C46.6875 100.188 47.5 88.0625 49.125 67.5625C49.2917 63.7292 49.375 60.2917 49.375 57.25V57.1875C49.375 49.4792 48.6667 44.6042 47.25 42.5625C46.875 42.0625 46.3125 41.8125 45.5625 41.8125H45.375C40.4583 41.8125 32.8125 56.7292 22.4375 86.5625L8.75 126.188C5.95833 133.938 3.72917 137.812 2.0625 137.812C1.85417 137.812 1.6875 137.833 1.5625 137.875C0.520833 137.667 0 137.417 0 137.125V137.062C0 135.021 3.0625 122.271 9.1875 98.8125C11.8542 89.4375 14.6458 78.2708 17.5625 65.3125C16.7708 65.2708 16.375 64.9375 16.375 64.3125C16.375 61.8125 16.9583 59.7917 18.125 58.25C18.875 57.75 19.5208 57.5 20.0625 57.5C21.1458 57.7083 21.6875 58.5 21.6875 59.875C21.7292 59.9583 21.75 60.1458 21.75 60.4375C20.7083 66.4375 18.8542 74.625 16.1875 85C11.5208 102.25 8.04167 115.604 5.75 125.062V125.125H5.875C13.25 103.417 18.9167 87.1458 22.875 76.3125C32.2083 51.9375 39.9375 39.75 46.0625 39.75H46.8125C50.7708 39.75 52.75 45.5 52.75 57C52.75 64.125 51.8542 77.625 50.0625 97.5C49.9375 99.9583 49.875 102.146 49.875 104.062V104.25C49.9583 107.625 50.2292 109.312 50.6875 109.312C51.5625 108.562 52.6875 107.021 54.0625 104.688C58.8958 96.1458 65.8333 83.0625 74.875 65.4375C80.7083 54.3125 86.7292 44.1458 92.9375 34.9375C101.104 23.3542 107.917 17.5625 113.375 17.5625ZM5.4375 120.375V120.562H5.5V120.375H5.4375ZM105.25 100.125C106.042 100.167 106.438 100.417 106.438 100.875C105.021 105.125 104.312 108.333 104.312 110.5C104.312 111.833 104.604 112.646 105.188 112.938C106.021 112.938 107.708 110.667 110.25 106.125C111.042 104.792 111.604 103.458 111.938 102.125C112.229 100.792 112.938 100.125 114.062 100.125H114.438C115.104 100.208 115.438 100.458 115.438 100.875C115.021 102.292 114.771 103.271 114.688 103.812C114.521 103.812 113.958 105.521 113 108.938C109.833 119.396 105.479 135.958 99.9375 158.625C100.688 158.583 100.771 159.625 100.188 161.75C99.2708 164.042 98.3333 165.208 97.375 165.25L96 165.312C95.5 164.854 95.25 164.438 95.25 164.062C95.25 163.938 96.5 159 99 149.25C102.667 134.792 105.896 122.667 108.688 112.875H108.625C106.5 115.083 104.542 115.875 102.75 115.25C101.625 115.083 101.062 113.542 101.062 110.625C101.062 108.583 101.812 105.375 103.312 101C103.771 100.417 104.417 100.125 105.25 100.125ZM312.812 19.8125H314.375C315.375 19.9375 315.875 20.2083 315.875 20.625V20.875C315.875 21.7083 313.479 22.3125 308.688 22.6875C300.771 25.5625 290.875 36.5625 279 55.6875C266.917 75.6458 252.729 101.958 236.438 134.625C223.604 158.833 214.854 170.938 210.188 170.938H208.375C206.708 170.938 205.75 167.083 205.5 159.375C205.5 151.75 207.646 128.625 211.938 90C212.146 89.4167 212.25 87.6042 212.25 84.5625V82.5C210.25 84.2083 208.083 86.875 205.75 90.5C192 112 181.083 128.583 173 140.25C165.5 150.083 159.75 155 155.75 155C154.208 155 153.354 153.958 153.188 151.875V150.562C153.188 138.646 159.375 114.062 171.75 76.8125C172.208 76.3125 172.708 75.2083 173.25 73.5C172.583 73.2083 172.25 72.9375 172.25 72.6875V72.4375C173.333 69.5208 175.229 68.0625 177.938 68.0625C178.604 68.3125 178.938 68.5625 178.938 68.8125V69.625C176.896 73.9167 174.75 79.1458 172.5 85.3125C162 119.604 156.75 141.188 156.75 150.062V151.875C156.75 152.125 157.021 152.375 157.562 152.625C160.479 151.458 164.438 147.25 169.438 140C175.688 131 186.417 114.667 201.625 91C207.125 83.625 211.25 79.9375 214 79.9375C215.208 79.9375 215.812 81.9167 215.812 85.875C215.812 89.375 213.667 111.458 209.375 152.125C209.208 156.25 209.125 159.521 209.125 161.938C209.125 164.688 209.479 166.917 210.188 168.625H210.438C213.188 168.625 219.979 158.479 230.812 138.188C249.854 99.6042 266.521 69.2708 280.812 47.1875C293.562 28.9375 304.229 19.8125 312.812 19.8125ZM267.938 100.375C269.521 100.375 270.896 101.208 272.062 102.875C272.229 103.083 272.438 103.917 272.688 105.375C272.604 106.333 272.479 107.188 272.312 107.938H272.438C273.062 107.938 275.167 107.125 278.75 105.5C278.917 105.417 279.083 105.375 279.25 105.375C280 105.542 280.375 105.729 280.375 105.938V106.062C280.375 107.104 277.812 108.396 272.688 109.938C271.729 109.938 271.104 110.438 270.812 111.438C269.062 113.771 267.292 114.938 265.5 114.938H265C263.25 114.938 262.25 113.521 262 110.688V109.188C262 104.562 263.708 101.625 267.125 100.375H267.938ZM267.312 102.375C266.771 103.125 266.5 103.875 266.5 104.625C266.75 106.833 267.688 107.938 269.312 107.938C269.479 107.312 269.562 106.729 269.562 106.188C269.562 104.312 269.021 103.125 267.938 102.625L267.312 102.375ZM265 108.688V109.188C265.083 111.688 265.417 112.938 266 112.938C266.792 112.562 267.562 111.729 268.312 110.438V110.188C267.271 110.188 266.167 109.688 265 108.688ZM280.312 98H280.625C281.875 98 282.688 98.6667 283.062 100C283.104 100.375 283.146 100.75 283.188 101.125C283.146 101.625 283.062 102.271 282.938 103.062H283.062C284.812 103.062 285.854 103.625 286.188 104.75C286.312 105.25 286.375 105.625 286.375 105.875C286.375 106.917 286 108.625 285.25 111L285.188 111.312C285.938 110.979 287.292 110.042 289.25 108.5C290.417 107.5 291.417 106.5 292.25 105.5C292.792 105.208 293.292 105.062 293.75 105.062C294.375 105.062 294.792 105.292 295 105.75V106C294.958 106.458 293.521 107.875 290.688 110.25C288.521 111.875 287.333 112.688 287.125 112.688C285.958 113.312 284.896 113.625 283.938 113.625C282.938 113.625 282.312 113.25 282.062 112.5C282.021 112.292 282 112.104 282 111.938V111.812C282 111.312 282.271 110.146 282.812 108.312C283.104 107.354 283.25 106.583 283.25 106C283.25 105.417 283 105.125 282.5 105.125H282.375C281.417 108.083 280.312 110.729 279.062 113.062C277.854 115.479 276.75 117.521 275.75 119.188C275.25 119.646 274.729 119.875 274.188 119.875H273.938C273.146 119.792 272.75 119.542 272.75 119.125V119C272.75 118.917 273.521 117.479 275.062 114.688C276.938 111.188 278.333 108.042 279.25 105.25C278.458 105.083 277.854 104.833 277.438 104.5C276.604 103.75 276.188 102.917 276.188 102C276.188 100.417 277.083 99.1875 278.875 98.3125C279.375 98.1042 279.854 98 280.312 98ZM279.688 100.125C279.604 100.417 279.562 100.75 279.562 101.125C279.562 101.75 279.646 102.271 279.812 102.688C279.896 102.229 279.938 101.833 279.938 101.5C279.938 101.042 279.875 100.583 279.75 100.125H279.688ZM313 49H313.438C314.646 49 315.25 49.6875 315.25 51.0625C314.417 55.2708 313.062 57.375 311.188 57.375C304.729 77.4583 299.542 94.375 295.625 108.125H296.062C299.812 101.667 302.75 98.4375 304.875 98.4375H305.562C306.771 98.4375 307.521 99.2708 307.812 100.938V102.062C307.479 104.771 304.312 107.854 298.312 111.312C300.062 113.104 301.583 114 302.875 114H303.312C305.604 114 308.688 111.062 312.562 105.188L313.688 105H314.562C314.812 105 315.042 105.229 315.25 105.688V106.125C310.667 112.875 306.688 116.25 303.312 116.25H301.75C300.375 116.25 298.479 115.354 296.062 113.562C293.854 117.729 291.979 122.25 290.438 127.125C289.938 127.417 289.479 127.562 289.062 127.562H288.188C287.812 127.562 287.583 127.271 287.5 126.688C291.875 108.729 299.25 83.7292 309.625 51.6875C309.625 50.3125 310.75 49.4167 313 49ZM304 101.375C301.125 105.333 299.688 107.375 299.688 107.5V107.688C302.854 105.646 304.438 103.688 304.438 101.812V101.375H304ZM319.062 99.1875H319.875C320.708 99.1875 321.25 99.625 321.5 100.5V100.938C321.5 102.312 320.479 103.771 318.438 105.312C317.396 106.021 316.708 106.375 316.375 106.375V106.438C319 106.729 320.438 107.021 320.688 107.312C321.021 107.688 321.188 108 321.188 108.25V108.688L321.125 109.25C325.25 106.75 327.229 105.583 327.062 105.75C327.396 105.583 327.729 105.521 328.062 105.562L328.438 106.5C328.104 107 327.729 107.375 327.312 107.625C326.688 107.958 325.812 108.479 324.688 109.188C323.062 110.188 321.062 111.708 318.688 113.75C316.938 115.417 315.438 117.042 314.188 118.625C313.771 119 313.292 119.188 312.75 119.188H312.438C312.021 119.188 311.708 119 311.5 118.625V118.375C311.5 118.083 312.75 116.521 315.25 113.688C317.208 111.312 318.188 109.688 318.188 108.812C315.438 108.479 313.646 108.021 312.812 107.438C312.062 106.854 311.688 106.188 311.688 105.438V105.312C311.688 103.479 313.458 101.625 317 99.75C317.875 99.375 318.562 99.1875 319.062 99.1875ZM314.625 104.938C315.542 104.938 316.604 104.25 317.812 102.875C318.229 102.292 318.458 101.708 318.5 101.125H318.438C315.896 102.583 314.625 103.854 314.625 104.938Z" fill="#4131FF"/>
</svg>
