<svg width="199" height="81" viewBox="0 0 199 81" fill="none" xmlns="http://www.w3.org/2000/svg">
<path d="M42.5 0H43.0625C45.4583 0 46.8542 1.5 47.25 4.5C47.2708 4.79167 47.2812 5.08333 47.2812 5.375V6.40625C47.2812 11.2188 44.4479 21.3646 38.7812 36.8438C35.4271 45.8021 32.6146 54.25 30.3438 62.1875C29.0938 67.0417 28.4688 70.8333 28.4688 73.5625C28.4688 77.0833 29.5104 79.1354 31.5938 79.7188C32.1146 79.7812 32.375 79.9479 32.375 80.2188C32.2292 80.6146 31.875 80.8125 31.3125 80.8125C30.3958 80.75 29.4375 80.2604 28.4375 79.3438C27.375 78.0521 26.8438 76.1771 26.8438 73.7188V73.4375C26.8438 67.6042 29.9479 56.3646 36.1562 39.7188C39.8021 29.6979 42.4792 21.6146 44.1875 15.4688C45.1667 11.4688 45.6562 8.375 45.6562 6.1875C45.6562 2.75 44.5104 1.03125 42.2188 1.03125C38.0729 1.03125 32.0104 6.92708 24.0312 18.7188C19.0729 26.0104 14.4375 33.5208 10.125 41.25C8.70833 43.7292 6.11458 48.3542 2.34375 55.125C2.01042 55.625 1.61458 55.875 1.15625 55.875C0.760417 55.7917 0.5625 55.625 0.5625 55.375C0.5625 54.5 2.21875 49.1667 5.53125 39.375C7.51042 33.5625 9.1875 28.1354 10.5625 23.0938C10.9583 21.5104 11.2604 20.0521 11.4688 18.7188C10.9271 18.7188 10.6562 18.5208 10.6562 18.125C10.6146 18 10.5938 17.8229 10.5938 17.5938C10.5938 16.7188 10.8438 16.1458 11.3438 15.875C11.5521 15.75 11.7812 15.6875 12.0312 15.6875C12.6771 15.6875 13.0625 16.1667 13.1875 17.125V17.2812C13.1875 20.4479 10.2188 30.7083 4.28125 48.0625C4.26042 48.125 4.10417 48.5938 3.8125 49.4688C3.91667 49.4062 4.98958 47.5208 7.03125 43.8125C11.9271 35.0417 17.0938 26.6146 22.5312 18.5312C24.7812 15.1354 27.7917 11.2604 31.5625 6.90625C34.1042 4.30208 35.8438 2.70833 36.7812 2.125C38.7604 0.708333 40.6667 0 42.5 0ZM42.3438 41.3438H42.7188C43.1562 41.3438 43.4271 41.6667 43.5312 42.3125V42.4062C43.5312 43.0938 43.0729 43.6875 42.1562 44.1875C41.8854 44.3125 41.6042 44.375 41.3125 44.375H40.8438L40.625 44.3438C40.25 45.2604 40.0625 45.9479 40.0625 46.4062V46.6562C40.1042 47.3021 40.2917 47.625 40.625 47.625C41.5625 47.625 43.3854 46.3229 46.0938 43.7188C46.3021 43.5312 46.5521 43.4271 46.8438 43.4062C47.0938 43.4062 47.2708 43.5104 47.375 43.7188V43.8438C47.375 44.0521 46.9062 44.5417 45.9688 45.3125C43.5729 47.5 41.7396 48.5938 40.4688 48.5938H40.125C39.1042 48.4479 38.5938 47.9167 38.5938 47V46.6562C38.5938 45.0938 39.3854 43.5208 40.9688 41.9375C41.5312 41.5417 41.9896 41.3438 42.3438 41.3438ZM41.2188 43.375H41.3438C41.8438 43.375 42.0938 43.0521 42.0938 42.4062C41.6979 42.7604 41.4062 43.0833 41.2188 43.375ZM49.0938 41.3438H49.4688C49.9062 41.3438 50.1771 41.6667 50.2812 42.3125V42.4062C50.2812 43.0938 49.8229 43.6875 48.9062 44.1875C48.6354 44.3125 48.3542 44.375 48.0625 44.375H47.5938L47.375 44.3438C47 45.2604 46.8125 45.9479 46.8125 46.4062V46.6562C46.8542 47.3021 47.0417 47.625 47.375 47.625C48.3125 47.625 50.1354 46.3229 52.8438 43.7188C53.0521 43.5312 53.3021 43.4271 53.5938 43.4062C53.8438 43.4062 54.0208 43.5104 54.125 43.7188V43.8438C54.125 44.0521 53.6562 44.5417 52.7188 45.3125C50.3229 47.5 48.4896 48.5938 47.2188 48.5938H46.875C45.8542 48.4479 45.3438 47.9167 45.3438 47V46.6562C45.3438 45.0938 46.1354 43.5208 47.7188 41.9375C48.2812 41.5417 48.7396 41.3438 49.0938 41.3438ZM47.9688 43.375H48.0938C48.5938 43.375 48.8438 43.0521 48.8438 42.4062C48.4479 42.7604 48.1562 43.0833 47.9688 43.375ZM66.7812 22.8125H67.0312C67.2188 22.8958 67.3125 23.1042 67.3125 23.4375C67.0833 24.4375 65.8125 27.7188 63.5 33.2812C61.3125 39.2396 59.7396 44.8854 58.7812 50.2188C58.5312 51.5312 58.3021 53.3646 58.0938 55.7188C57.8021 55.9688 57.5417 56.0938 57.3125 56.0938H56.9375C56.6667 56.0938 56.4896 55.9896 56.4062 55.7812V55.7188C56.4062 53.1771 56.9896 49.5312 58.1562 44.7812V44.7188H58.0938C56.5729 47.6771 55.3229 49.1562 54.3438 49.1562H54.2812C53.4062 49.1562 52.8958 48.5417 52.75 47.3125V46.5625C52.75 44.2917 53.7396 42.5312 55.7188 41.2812C56.2604 41.0729 56.7917 40.9688 57.3125 40.9688C57.3958 40.9688 57.7083 41 58.25 41.0625C60.9167 35.1042 63.2292 29.6042 65.1875 24.5625C65.75 23.3958 66.2812 22.8125 66.7812 22.8125ZM54.5 46.625C54.5 46.8542 54.5521 47.2604 54.6562 47.8438H54.7188C55.2396 47.1354 56.2083 45.2812 57.625 42.2812L57.25 42.1875H57.0312C55.7396 42.1875 54.8958 43.5938 54.5 46.4062V46.625ZM83.875 41.3438H84.1562C84.4896 41.3438 84.6562 41.4896 84.6562 41.7812C84.0312 43.8646 83.7188 45.4062 83.7188 46.4062V46.7812C83.7396 47.3646 83.8021 47.6771 83.9062 47.7188C84.3438 47.5729 85.5625 46.1875 87.5625 43.5625C87.875 43.4583 88.1146 43.4062 88.2812 43.4062C88.6562 43.5104 88.8438 43.6146 88.8438 43.7188V43.9375C86.4688 46.875 84.8438 48.5938 83.9688 49.0938L83.125 49.125C82.4792 48.7917 82.1354 48.0938 82.0938 47.0312C82.0938 46.9062 82.0729 46.8125 82.0312 46.75L82.1562 45.4688C80.8229 46.9062 79.8021 47.625 79.0938 47.625C78.3438 47.5 77.9688 47.125 77.9688 46.5V45.9062C77.9688 44.9688 78.4479 43.8542 79.4062 42.5625C80.0938 41.8958 80.7292 41.5625 81.3125 41.5625H81.7188C82.0104 41.5625 82.3958 41.7083 82.875 42C83.2292 41.5625 83.5625 41.3438 83.875 41.3438ZM79.5312 46.1875C79.5729 46.4792 79.625 46.625 79.6875 46.625C80.3333 46.0417 80.9479 45.2292 81.5312 44.1875C81.6771 44.0417 81.9583 43.6042 82.375 42.875L82.0938 42.9375C81.6354 42.7917 81.3438 42.7188 81.2188 42.7188C80.7396 42.7188 80.2292 43.5 79.6875 45.0625C79.5833 45.7292 79.5312 46.1042 79.5312 46.1875ZM106.75 33.7812H106.969C107.24 33.7812 107.427 33.8958 107.531 34.125L106.344 38.8125C118.26 38.7708 127.396 38.75 133.75 38.75H159C162.625 38.75 164.438 38.8646 164.438 39.0938C164.583 39.1354 164.656 39.2812 164.656 39.5312V39.6562C164.656 40.0729 163.76 40.3125 161.969 40.375H160.844C160.448 40.3333 160.25 40.1667 160.25 39.875C159.021 39.8333 158.177 39.8125 157.719 39.8125C145.01 39.8125 127.76 39.8333 105.969 39.875C104.469 45.0833 101.146 55.9479 96 72.4688C96 74.4896 95.3854 75.7917 94.1562 76.375H93.6562C93.4896 76.3333 93.3958 76.125 93.375 75.75C93.4167 75.2917 94.1979 72.7083 95.7188 68C100.01 54.2917 102.885 44.9167 104.344 39.875H88.8438C88.4688 39.875 88.2292 39.7604 88.125 39.5312V39.3125C88.3542 38.9792 88.6146 38.8125 88.9062 38.8125H104.562C104.667 38.8125 105.115 37.25 105.906 34.125C106.198 33.8958 106.479 33.7812 106.75 33.7812ZM112.125 41.3438H112.406C112.74 41.3438 112.906 41.4896 112.906 41.7812C112.281 43.8646 111.969 45.4062 111.969 46.4062V46.7812C111.99 47.3646 112.052 47.6771 112.156 47.7188C112.594 47.5729 113.812 46.1875 115.812 43.5625C116.125 43.4583 116.365 43.4062 116.531 43.4062C116.906 43.5104 117.094 43.6146 117.094 43.7188V43.9375C114.719 46.875 113.094 48.5938 112.219 49.0938L111.375 49.125C110.729 48.7917 110.385 48.0938 110.344 47.0312C110.344 46.9062 110.323 46.8125 110.281 46.75L110.406 45.4688C109.073 46.9062 108.052 47.625 107.344 47.625C106.594 47.5 106.219 47.125 106.219 46.5V45.9062C106.219 44.9688 106.698 43.8542 107.656 42.5625C108.344 41.8958 108.979 41.5625 109.562 41.5625H109.969C110.26 41.5625 110.646 41.7083 111.125 42C111.479 41.5625 111.812 41.3438 112.125 41.3438ZM107.781 46.1875C107.823 46.4792 107.875 46.625 107.938 46.625C108.583 46.0417 109.198 45.2292 109.781 44.1875C109.927 44.0417 110.208 43.6042 110.625 42.875L110.344 42.9375C109.885 42.7917 109.594 42.7188 109.469 42.7188C108.99 42.7188 108.479 43.5 107.938 45.0625C107.833 45.7292 107.781 46.1042 107.781 46.1875ZM125.812 15.5H126.031C126.635 15.5 126.938 15.8438 126.938 16.5312C126.521 18.6354 125.844 19.6875 124.906 19.6875C121.677 29.7292 119.083 38.1875 117.125 45.0625H117.344C119.219 41.8333 120.688 40.2188 121.75 40.2188H122.094C122.698 40.2188 123.073 40.6354 123.219 41.4688V42.0312C123.052 43.3854 121.469 44.9271 118.469 46.6562C119.344 47.5521 120.104 48 120.75 48H120.969C122.115 48 123.656 46.5312 125.594 43.5938L126.156 43.5H126.594C126.719 43.5 126.833 43.6146 126.938 43.8438V44.0625C124.646 47.4375 122.656 49.125 120.969 49.125H120.188C119.5 49.125 118.552 48.6771 117.344 47.7812C116.24 49.8646 115.302 52.125 114.531 54.5625C114.281 54.7083 114.052 54.7812 113.844 54.7812H113.406C113.219 54.7812 113.104 54.6354 113.062 54.3438C115.25 45.3646 118.938 32.8646 124.125 16.8438C124.125 16.1562 124.688 15.7083 125.812 15.5ZM121.312 41.6875C119.875 43.6667 119.156 44.6875 119.156 44.75V44.8438C120.74 43.8229 121.531 42.8438 121.531 41.9062V41.6875H121.312ZM128.531 41.3438H128.906C129.344 41.3438 129.615 41.6667 129.719 42.3125V42.4062C129.719 43.0938 129.26 43.6875 128.344 44.1875C128.073 44.3125 127.792 44.375 127.5 44.375H127.031L126.812 44.3438C126.438 45.2604 126.25 45.9479 126.25 46.4062V46.6562C126.292 47.3021 126.479 47.625 126.812 47.625C127.75 47.625 129.573 46.3229 132.281 43.7188C132.49 43.5312 132.74 43.4271 133.031 43.4062C133.281 43.4062 133.458 43.5104 133.562 43.7188V43.8438C133.562 44.0521 133.094 44.5417 132.156 45.3125C129.76 47.5 127.927 48.5938 126.656 48.5938H126.312C125.292 48.4479 124.781 47.9167 124.781 47V46.6562C124.781 45.0938 125.573 43.5208 127.156 41.9375C127.719 41.5417 128.177 41.3438 128.531 41.3438ZM127.406 43.375H127.531C128.031 43.375 128.281 43.0521 128.281 42.4062C127.885 42.7604 127.594 43.0833 127.406 43.375ZM153.438 41.3438H153.719C154.052 41.3438 154.219 41.4896 154.219 41.7812C153.594 43.8646 153.281 45.4062 153.281 46.4062V46.7812C153.302 47.3646 153.365 47.6771 153.469 47.7188C153.906 47.5729 155.125 46.1875 157.125 43.5625C157.438 43.4583 157.677 43.4062 157.844 43.4062C158.219 43.5104 158.406 43.6146 158.406 43.7188V43.9375C156.031 46.875 154.406 48.5938 153.531 49.0938L152.688 49.125C152.042 48.7917 151.698 48.0938 151.656 47.0312C151.656 46.9062 151.635 46.8125 151.594 46.75L151.719 45.4688C150.385 46.9062 149.365 47.625 148.656 47.625C147.906 47.5 147.531 47.125 147.531 46.5V45.9062C147.531 44.9688 148.01 43.8542 148.969 42.5625C149.656 41.8958 150.292 41.5625 150.875 41.5625H151.281C151.573 41.5625 151.958 41.7083 152.438 42C152.792 41.5625 153.125 41.3438 153.438 41.3438ZM149.094 46.1875C149.135 46.4792 149.188 46.625 149.25 46.625C149.896 46.0417 150.51 45.2292 151.094 44.1875C151.24 44.0417 151.521 43.6042 151.938 42.875L151.656 42.9375C151.198 42.7917 150.906 42.7188 150.781 42.7188C150.302 42.7188 149.792 43.5 149.25 45.0625C149.146 45.7292 149.094 46.1042 149.094 46.1875ZM158.812 41.2188H159.062C159.292 41.2188 159.458 41.3125 159.562 41.5V41.5938C159.167 42.4271 158.781 43.5208 158.406 44.875L158.156 46.3438C159.219 44.4896 159.896 43.5104 160.188 43.4062L160.594 43.3438C160.948 43.3438 161.198 43.4896 161.344 43.7812C161.51 44.4479 161.667 45.5833 161.812 47.1875H161.875C162.396 45.2292 162.792 44.0833 163.062 43.75C163.208 43.3958 163.458 43.2188 163.812 43.2188C163.979 43.2188 164.354 43.5938 164.938 44.3438C165.271 44.5521 165.531 44.6562 165.719 44.6562H165.969C166.198 44.6562 166.656 44.4375 167.344 44C167.49 43.9792 167.615 43.9688 167.719 43.9688H167.844C168.177 43.9688 168.344 44.0938 168.344 44.3438V44.4688C168.344 44.5938 167.938 44.8958 167.125 45.375C166.542 45.7083 165.969 45.875 165.406 45.875H165.375C164.833 45.875 164.292 45.6562 163.75 45.2188C163.729 45.2188 163.719 45.2292 163.719 45.25C163.198 47.1875 162.479 48.1562 161.562 48.1562C160.75 48.1562 160.281 47.625 160.156 46.5625C160.094 46.3125 160.062 46.0521 160.062 45.7812C158.917 47.8021 158.198 48.8333 157.906 48.875L157.5 48.9062H157.281C156.781 48.9062 156.531 48.4479 156.531 47.5312V47.3125C156.531 46.0417 156.948 44.3333 157.781 42.1875C158.052 41.5417 158.396 41.2188 158.812 41.2188ZM172.375 41.3438H172.656C172.99 41.3438 173.156 41.4896 173.156 41.7812C172.531 43.8646 172.219 45.4062 172.219 46.4062V46.7812C172.24 47.3646 172.302 47.6771 172.406 47.7188C172.844 47.5729 174.062 46.1875 176.062 43.5625C176.375 43.4583 176.615 43.4062 176.781 43.4062C177.156 43.5104 177.344 43.6146 177.344 43.7188V43.9375C174.969 46.875 173.344 48.5938 172.469 49.0938L171.625 49.125C170.979 48.7917 170.635 48.0938 170.594 47.0312C170.594 46.9062 170.573 46.8125 170.531 46.75L170.656 45.4688C169.323 46.9062 168.302 47.625 167.594 47.625C166.844 47.5 166.469 47.125 166.469 46.5V45.9062C166.469 44.9688 166.948 43.8542 167.906 42.5625C168.594 41.8958 169.229 41.5625 169.812 41.5625H170.219C170.51 41.5625 170.896 41.7083 171.375 42C171.729 41.5625 172.062 41.3438 172.375 41.3438ZM168.031 46.1875C168.073 46.4792 168.125 46.625 168.188 46.625C168.833 46.0417 169.448 45.2292 170.031 44.1875C170.177 44.0417 170.458 43.6042 170.875 42.875L170.594 42.9375C170.135 42.7917 169.844 42.7188 169.719 42.7188C169.24 42.7188 168.729 43.5 168.188 45.0625C168.083 45.7292 168.031 46.1042 168.031 46.1875ZM177.75 41.0625C178.146 41.0833 178.344 41.2083 178.344 41.4375C177.635 43.5625 177.281 45.1667 177.281 46.25C177.281 46.9167 177.427 47.3229 177.719 47.4688C178.135 47.4688 178.979 46.3333 180.25 44.0625C180.646 43.3958 180.927 42.7292 181.094 42.0625C181.24 41.3958 181.594 41.0625 182.156 41.0625H182.344C182.677 41.1042 182.844 41.2292 182.844 41.4375C182.635 42.1458 182.51 42.6354 182.469 42.9062C182.385 42.9062 182.104 43.7604 181.625 45.4688C180.042 50.6979 177.865 58.9792 175.094 70.3125C175.469 70.2917 175.51 70.8125 175.219 71.875C174.76 73.0208 174.292 73.6042 173.812 73.625L173.125 73.6562C172.875 73.4271 172.75 73.2188 172.75 73.0312C172.75 72.9688 173.375 70.5 174.625 65.625C176.458 58.3958 178.073 52.3333 179.469 47.4375H179.438C178.375 48.5417 177.396 48.9375 176.5 48.625C175.938 48.5417 175.656 47.7708 175.656 46.3125C175.656 45.2917 176.031 43.6875 176.781 41.5C177.01 41.2083 177.333 41.0625 177.75 41.0625ZM192.594 30.5H193.156C194.865 30.5 196.26 31.3333 197.344 33C197.802 33.8958 198.031 34.7708 198.031 35.625V36.2812C198.031 38.3229 196.417 41.2396 193.188 45.0312C190.062 48.9062 188.156 52.3854 187.469 55.4688C187.281 55.7188 187.073 55.8438 186.844 55.8438H186.562C186.396 55.8438 186.271 55.7604 186.188 55.5938V55.5C186.771 52.625 188.573 49.2396 191.594 45.3438C194.74 41.5521 196.385 38.9792 196.531 37.625C196.615 37.375 196.688 36.8958 196.75 36.1875C196.75 33.9167 195.792 32.3646 193.875 31.5312C193.5 31.4062 193.115 31.3438 192.719 31.3438H192.438C191.104 31.3438 189.75 32 188.375 33.3125C187.479 34.3542 187.031 35.4896 187.031 36.7188V37C187.031 38 187.333 38.8125 187.938 39.4375V39.625C187.75 39.8958 187.5 40.0312 187.188 40.0312C186.438 40.0312 185.938 39.1042 185.688 37.25V37.1562C185.688 34.1562 187.385 32.0521 190.781 30.8438C191.427 30.6146 192.031 30.5 192.594 30.5ZM185.281 59.4062C186.031 59.6354 186.615 59.3333 187.031 58.5C187.24 57.4792 186.812 57.0938 185.75 57.3438C184.812 57.9688 184.656 58.6562 185.281 59.4062Z" fill="#4131FF"/>
</svg>
