<svg width="365" height="157" viewBox="0 0 365 157" fill="none" xmlns="http://www.w3.org/2000/svg">
<path d="M63 0.875H65C73.7917 0.875 81.0417 4.35417 86.75 11.3125C92.2917 19.1875 95.0625 29.25 95.0625 41.5V45C95.0625 60.5 91.1458 78.75 83.3125 99.75C78.9375 110.833 73.6875 120.958 67.5625 130.125C55.4792 147.458 43.6458 156.125 32.0625 156.125C25.6875 156.125 20.0625 153.667 15.1875 148.75C9.64583 142.167 6.875 132.688 6.875 120.312C6.875 105.312 10.6042 89.2708 18.0625 72.1875C20.3125 67.1875 23.375 61.9167 27.25 56.375C32.7083 49.375 37.7083 45.1042 42.25 43.5625L42.75 43.4375C43.5417 43.5625 43.9375 43.8333 43.9375 44.25C43.9375 44.6667 42.7292 45.4583 40.3125 46.625C32.2292 52.0833 25.0208 62.5208 18.6875 77.9375C12.9375 92.8542 10.0625 106.938 10.0625 120.188C10.0625 134.604 13.7917 144.667 21.25 150.375C24.9167 152.875 28.7708 154.125 32.8125 154.125H33.0625C43.7708 154.125 55.0625 144.917 66.9375 126.5C72.3958 117.5 76.8958 108.354 80.4375 99.0625C88.1042 78.7292 91.9375 60.25 91.9375 43.625C91.9375 26.5 87.6042 14.5 78.9375 7.625C74.3958 4.41667 69.2292 2.8125 63.4375 2.8125C50.8542 2.8125 37.9167 9.85417 24.625 23.9375C14.9583 35.3958 8.25 46.8125 4.5 58.1875C4.83333 58.4375 5 58.8333 5 59.375C4.41667 63.0833 3.0625 64.9375 0.9375 64.9375C0.3125 64.9375 0 64.5417 0 63.75V63C0.25 60.375 0.604167 59.0625 1.0625 59.0625C3.0625 53.3542 5.41667 47.9583 8.125 42.875C11.0417 37.5833 14.9375 31.875 19.8125 25.75C24.2708 20.75 28.1042 16.9375 31.3125 14.3125C42.6875 5.35417 53.25 0.875 63 0.875Z" fill="#4131FF"/>
<path d="M106.875 68.5625H107.312C107.854 68.5625 108.229 68.7917 108.438 69.25L106.062 78.625C129.896 78.5417 148.167 78.5 160.875 78.5H211.375C218.625 78.5 222.25 78.7292 222.25 79.1875C222.542 79.2708 222.688 79.5625 222.688 80.0625V80.3125C222.688 81.1458 220.896 81.625 217.312 81.75H215.062C214.271 81.6667 213.875 81.3333 213.875 80.75C211.417 80.6667 209.729 80.625 208.812 80.625C183.396 80.625 148.896 80.6667 105.312 80.75C102.312 91.1667 95.6667 112.896 85.375 145.938C85.375 149.979 84.1458 152.583 81.6875 153.75H80.6875C80.3542 153.667 80.1667 153.25 80.125 152.5C80.2083 151.583 81.7708 146.417 84.8125 137C93.3958 109.583 99.1458 90.8333 102.062 80.75H71.0625C70.3125 80.75 69.8333 80.5208 69.625 80.0625V79.625C70.0833 78.9583 70.6042 78.625 71.1875 78.625H102.5C102.708 78.625 103.604 75.5 105.188 69.25C105.771 68.7917 106.333 68.5625 106.875 68.5625Z" fill="#4131FF"/>
<path d="M121.188 49.6875H122.438C123.271 50.1875 123.688 50.8542 123.688 51.6875C123.354 55.1875 122.271 56.9375 120.438 56.9375C114.271 74.6875 110.354 86.6042 108.688 92.6875C111.729 88.3958 114.146 85.4792 115.938 83.9375C116.812 83.7708 117.312 83.6875 117.438 83.6875C119.104 84.3125 119.938 85.4792 119.938 87.1875C118.604 92.3125 117.938 95.2292 117.938 95.9375V96.4375H118.188C118.646 96.4375 121.562 93.5208 126.938 87.6875C127.229 87.5208 127.562 87.4375 127.938 87.4375H128.688C129.021 87.4792 129.188 87.6458 129.188 87.9375V88.4375C122.938 95.6042 118.604 99.1875 116.188 99.1875C115.021 99.1875 114.438 98.5208 114.438 97.1875C115.938 91.0208 116.688 87.5208 116.688 86.6875L108.438 97.9375C107.979 98.8125 107.292 99.25 106.375 99.25C105.375 99.3333 104.708 99.25 104.375 99L104.062 98.9375C104.646 95.2708 109.688 79.1875 119.188 50.6875C119.896 50.0208 120.562 49.6875 121.188 49.6875Z" fill="#4131FF"/>
<path d="M132.438 83.6875H133.188C134.062 83.6875 134.604 84.3333 134.812 85.625V85.8125C134.812 87.1875 133.896 88.375 132.062 89.375C131.521 89.625 130.958 89.75 130.375 89.75H129.438L129 89.6875C128.25 91.5208 127.875 92.8958 127.875 93.8125V94.3125C127.958 95.6042 128.333 96.25 129 96.25C130.875 96.25 134.521 93.6458 139.938 88.4375C140.354 88.0625 140.854 87.8542 141.438 87.8125C141.938 87.8125 142.292 88.0208 142.5 88.4375V88.6875C142.5 89.1042 141.562 90.0833 139.688 91.625C134.896 96 131.229 98.1875 128.688 98.1875H128C125.958 97.8958 124.938 96.8333 124.938 95V94.3125C124.938 91.1875 126.521 88.0417 129.688 84.875C130.812 84.0833 131.729 83.6875 132.438 83.6875ZM130.188 87.75H130.438C131.438 87.75 131.938 87.1042 131.938 85.8125C131.146 86.5208 130.562 87.1667 130.188 87.75Z" fill="#4131FF"/>
<path d="M142.188 81H142.5C143.75 81 144.562 81.6667 144.938 83C144.979 83.375 145.021 83.75 145.062 84.125C145.021 84.625 144.938 85.2708 144.812 86.0625H144.938C146.688 86.0625 147.729 86.625 148.062 87.75C148.188 88.25 148.25 88.625 148.25 88.875C148.25 89.9167 147.875 91.625 147.125 94L147.062 94.3125C147.812 93.9792 149.167 93.0417 151.125 91.5C152.292 90.5 153.292 89.5 154.125 88.5C154.667 88.2083 155.167 88.0625 155.625 88.0625C156.25 88.0625 156.667 88.2917 156.875 88.75V89C156.833 89.4583 155.396 90.875 152.562 93.25C150.396 94.875 149.208 95.6875 149 95.6875C147.833 96.3125 146.771 96.625 145.812 96.625C144.812 96.625 144.188 96.25 143.938 95.5C143.896 95.2917 143.875 95.1042 143.875 94.9375V94.8125C143.875 94.3125 144.146 93.1458 144.688 91.3125C144.979 90.3542 145.125 89.5833 145.125 89C145.125 88.4167 144.875 88.125 144.375 88.125H144.25C143.292 91.0833 142.188 93.7292 140.938 96.0625C139.729 98.4792 138.625 100.521 137.625 102.188C137.125 102.646 136.604 102.875 136.062 102.875H135.812C135.021 102.792 134.625 102.542 134.625 102.125V102C134.625 101.917 135.396 100.479 136.938 97.6875C138.812 94.1875 140.208 91.0417 141.125 88.25C140.333 88.0833 139.729 87.8333 139.312 87.5C138.479 86.75 138.062 85.9167 138.062 85C138.062 83.4167 138.958 82.1875 140.75 81.3125C141.25 81.1042 141.729 81 142.188 81ZM141.562 83.125C141.479 83.4167 141.438 83.75 141.438 84.125C141.438 84.75 141.521 85.2708 141.688 85.6875C141.771 85.2292 141.812 84.8333 141.812 84.5C141.812 84.0417 141.75 83.5833 141.625 83.125H141.562Z" fill="#4131FF"/>
<path d="M348.938 2.8125H350.5C351.5 2.9375 352 3.20833 352 3.625V3.875C352 4.70833 349.604 5.3125 344.812 5.6875C336.896 8.5625 327 19.5625 315.125 38.6875C303.042 58.6458 288.854 84.9583 272.562 117.625C259.729 141.833 250.979 153.938 246.312 153.938H244.5C242.833 153.938 241.875 150.083 241.625 142.375C241.625 134.75 243.771 111.625 248.062 73C248.271 72.4167 248.375 70.6042 248.375 67.5625V65.5C246.375 67.2083 244.208 69.875 241.875 73.5C228.125 95 217.208 111.583 209.125 123.25C201.625 133.083 195.875 138 191.875 138C190.333 138 189.479 136.958 189.312 134.875V133.562C189.312 121.646 195.5 97.0625 207.875 59.8125C208.333 59.3125 208.833 58.2083 209.375 56.5C208.708 56.2083 208.375 55.9375 208.375 55.6875V55.4375C209.458 52.5208 211.354 51.0625 214.062 51.0625C214.729 51.3125 215.062 51.5625 215.062 51.8125V52.625C213.021 56.9167 210.875 62.1458 208.625 68.3125C198.125 102.604 192.875 124.188 192.875 133.062V134.875C192.875 135.125 193.146 135.375 193.688 135.625C196.604 134.458 200.562 130.25 205.562 123C211.812 114 222.542 97.6667 237.75 74C243.25 66.625 247.375 62.9375 250.125 62.9375C251.333 62.9375 251.938 64.9167 251.938 68.875C251.938 72.375 249.792 94.4583 245.5 135.125C245.333 139.25 245.25 142.521 245.25 144.938C245.25 147.688 245.604 149.917 246.312 151.625H246.562C249.312 151.625 256.104 141.479 266.938 121.188C285.979 82.6042 302.646 52.2708 316.938 30.1875C329.688 11.9375 340.354 2.8125 348.938 2.8125Z" fill="#4131FF"/>
<path d="M304.062 83.375C305.646 83.375 307.021 84.2083 308.188 85.875C308.354 86.0833 308.562 86.9167 308.812 88.375C308.729 89.3333 308.604 90.1875 308.438 90.9375H308.562C309.188 90.9375 311.292 90.125 314.875 88.5C315.042 88.4167 315.208 88.375 315.375 88.375C316.125 88.5417 316.5 88.7292 316.5 88.9375V89.0625C316.5 90.1042 313.938 91.3958 308.812 92.9375C307.854 92.9375 307.229 93.4375 306.938 94.4375C305.188 96.7708 303.417 97.9375 301.625 97.9375H301.125C299.375 97.9375 298.375 96.5208 298.125 93.6875V92.1875C298.125 87.5625 299.833 84.625 303.25 83.375H304.062ZM303.438 85.375C302.896 86.125 302.625 86.875 302.625 87.625C302.875 89.8333 303.812 90.9375 305.438 90.9375C305.604 90.3125 305.688 89.7292 305.688 89.1875C305.688 87.3125 305.146 86.125 304.062 85.625L303.438 85.375ZM301.125 91.6875V92.1875C301.208 94.6875 301.542 95.9375 302.125 95.9375C302.917 95.5625 303.688 94.7292 304.438 93.4375V93.1875C303.396 93.1875 302.292 92.6875 301.125 91.6875Z" fill="#4131FF"/>
<path d="M316.438 81H316.75C318 81 318.812 81.6667 319.188 83C319.229 83.375 319.271 83.75 319.312 84.125C319.271 84.625 319.188 85.2708 319.062 86.0625H319.188C320.938 86.0625 321.979 86.625 322.312 87.75C322.438 88.25 322.5 88.625 322.5 88.875C322.5 89.9167 322.125 91.625 321.375 94L321.312 94.3125C322.062 93.9792 323.417 93.0417 325.375 91.5C326.542 90.5 327.542 89.5 328.375 88.5C328.917 88.2083 329.417 88.0625 329.875 88.0625C330.5 88.0625 330.917 88.2917 331.125 88.75V89C331.083 89.4583 329.646 90.875 326.812 93.25C324.646 94.875 323.458 95.6875 323.25 95.6875C322.083 96.3125 321.021 96.625 320.062 96.625C319.062 96.625 318.438 96.25 318.188 95.5C318.146 95.2917 318.125 95.1042 318.125 94.9375V94.8125C318.125 94.3125 318.396 93.1458 318.938 91.3125C319.229 90.3542 319.375 89.5833 319.375 89C319.375 88.4167 319.125 88.125 318.625 88.125H318.5C317.542 91.0833 316.438 93.7292 315.188 96.0625C313.979 98.4792 312.875 100.521 311.875 102.188C311.375 102.646 310.854 102.875 310.312 102.875H310.062C309.271 102.792 308.875 102.542 308.875 102.125V102C308.875 101.917 309.646 100.479 311.188 97.6875C313.062 94.1875 314.458 91.0417 315.375 88.25C314.583 88.0833 313.979 87.8333 313.562 87.5C312.729 86.75 312.312 85.9167 312.312 85C312.312 83.4167 313.208 82.1875 315 81.3125C315.5 81.1042 315.979 81 316.438 81ZM315.812 83.125C315.729 83.4167 315.688 83.75 315.688 84.125C315.688 84.75 315.771 85.2708 315.938 85.6875C316.021 85.2292 316.062 84.8333 316.062 84.5C316.062 84.0417 316 83.5833 315.875 83.125H315.812Z" fill="#4131FF"/>
<path d="M349.125 32H349.562C350.771 32 351.375 32.6875 351.375 34.0625C350.542 38.2708 349.188 40.375 347.312 40.375C340.854 60.4583 335.667 77.375 331.75 91.125H332.188C335.938 84.6667 338.875 81.4375 341 81.4375H341.688C342.896 81.4375 343.646 82.2708 343.938 83.9375V85.0625C343.604 87.7708 340.438 90.8542 334.438 94.3125C336.188 96.1042 337.708 97 339 97H339.438C341.729 97 344.812 94.0625 348.688 88.1875L349.812 88H350.688C350.938 88 351.167 88.2292 351.375 88.6875V89.125C346.792 95.875 342.812 99.25 339.438 99.25H337.875C336.5 99.25 334.604 98.3542 332.188 96.5625C329.979 100.729 328.104 105.25 326.562 110.125C326.062 110.417 325.604 110.562 325.188 110.562H324.312C323.938 110.562 323.708 110.271 323.625 109.688C328 91.7292 335.375 66.7292 345.75 34.6875C345.75 33.3125 346.875 32.4167 349.125 32ZM340.125 84.375C337.25 88.3333 335.812 90.375 335.812 90.5V90.6875C338.979 88.6458 340.562 86.6875 340.562 84.8125V84.375H340.125Z" fill="#4131FF"/>
<path d="M355.188 82.1875H356C356.833 82.1875 357.375 82.625 357.625 83.5V83.9375C357.625 85.3125 356.604 86.7708 354.562 88.3125C353.521 89.0208 352.833 89.375 352.5 89.375V89.4375C355.125 89.7292 356.562 90.0208 356.812 90.3125C357.146 90.6875 357.312 91 357.312 91.25V91.6875L357.25 92.25C361.375 89.75 363.354 88.5833 363.188 88.75C363.521 88.5833 363.854 88.5208 364.188 88.5625L364.562 89.5C364.229 90 363.854 90.375 363.438 90.625C362.812 90.9583 361.938 91.4792 360.812 92.1875C359.188 93.1875 357.188 94.7083 354.812 96.75C353.062 98.4167 351.562 100.042 350.312 101.625C349.896 102 349.417 102.188 348.875 102.188H348.562C348.146 102.188 347.833 102 347.625 101.625V101.375C347.625 101.083 348.875 99.5208 351.375 96.6875C353.333 94.3125 354.312 92.6875 354.312 91.8125C351.562 91.4792 349.771 91.0208 348.938 90.4375C348.188 89.8542 347.812 89.1875 347.812 88.4375V88.3125C347.812 86.4792 349.583 84.625 353.125 82.75C354 82.375 354.688 82.1875 355.188 82.1875ZM350.75 87.9375C351.667 87.9375 352.729 87.25 353.938 85.875C354.354 85.2917 354.583 84.7083 354.625 84.125H354.562C352.021 85.5833 350.75 86.8542 350.75 87.9375Z" fill="#4131FF"/>
</svg>
