<svg width="229" height="98" viewBox="0 0 229 98" fill="none" xmlns="http://www.w3.org/2000/svg">
<path d="M48.5121 0.836121H50.4262C54.9054 0.836121 59.6319 2.3856 64.6059 5.48456C64.7361 5.97935 64.8012 6.29185 64.8012 6.42206V6.61737C64.8012 7.26841 64.1241 7.59393 62.77 7.59393C62.171 7.59393 61.5981 7.0731 61.0512 6.03143V5.95331C61.0512 5.79706 61.1163 5.61477 61.2465 5.40643C57.1059 3.21893 53.2648 2.12518 49.7231 2.12518H48.3168C41.2856 2.12518 34.3976 5.47154 27.6528 12.1642C23.9809 16.5132 21.3898 20.6668 19.8793 24.6252C18.2908 29.0783 17.4965 33.1278 17.4965 36.7736V38.5314C17.4965 43.0106 19.3325 49.8075 23.0043 58.9221C23.6033 60.6408 23.9028 61.5783 23.9028 61.7346C28.5642 59.3648 33.5773 57.4767 38.9418 56.0705L40.895 55.8361C41.9366 55.7059 42.6788 55.745 43.1215 55.9533C43.1996 56.7866 42.6658 57.1512 41.52 57.0471C40.1398 57.1512 38.6684 57.4247 37.1059 57.8674C33.1996 59.2476 28.9549 60.9403 24.3715 62.9455V63.1017C25.7257 67.7111 26.4028 72.021 26.4028 76.0314C26.4028 85.5106 22.9783 92.1773 16.1293 96.0314C13.8898 97.1512 11.7543 97.7111 9.72308 97.7111H8.74652C5.5434 97.7111 3.09548 96.3309 1.40277 93.5705C0.803813 92.4247 0.504333 91.0575 0.504333 89.4689C0.504333 83.7398 4.09808 77.2424 11.2856 69.9767C15.5304 66.357 19.0981 63.883 21.9887 62.5549L17.2231 49.0392C16.0252 45.133 15.4262 41.5002 15.4262 38.1408V37.5158C15.4262 28.1929 19.046 19.508 26.2856 11.4611C29.8793 7.97154 32.6918 5.77102 34.7231 4.85956C39.5148 2.17727 44.1111 0.836121 48.5121 0.836121ZM2.61371 89.0783V89.6252C2.61371 92.8543 4.22829 95.0288 7.45746 96.1486C8.08246 96.3309 8.72048 96.4221 9.37152 96.4221H10.27C13.7856 96.4221 17.1189 94.495 20.27 90.6408C22.9523 86.8387 24.2934 82.021 24.2934 76.1877C24.2934 72.5418 23.6814 68.4273 22.4575 63.8439C21.1033 64.3387 18.3299 66.2007 14.1371 69.4299C10.0486 73.3882 7.63975 76.1356 6.91058 77.6721C4.046 81.9689 2.61371 85.771 2.61371 89.0783ZM45.7387 52.2814L46.4418 52.3205C46.9627 52.3465 47.4054 52.607 47.77 53.1017C47.6137 53.6747 47.2621 53.9481 46.7153 53.9221C45.9861 53.8439 45.5564 53.8049 45.4262 53.8049C43.7595 55.5757 42.8871 57.3856 42.809 59.2346L42.77 59.7814C42.8481 60.4325 42.9783 60.758 43.1606 60.758L43.434 60.7971C44.1371 60.8231 46.0382 59.2866 49.1371 56.1877L50.1918 55.2892L50.6606 55.5236C50.947 55.6017 51.1293 55.8231 51.2075 56.1877L50.5825 56.8908C47.171 60.5106 44.5929 62.2814 42.8481 62.2033H42.5746C41.2986 61.9689 40.6866 61.3049 40.7387 60.2111L40.7778 59.2346C40.8559 57.2293 41.9106 55.159 43.9418 53.0236C44.7231 52.5028 45.322 52.2554 45.7387 52.2814ZM51.2075 51.2267H51.4028C52.184 51.2267 52.6918 51.6434 52.9262 52.4767C52.9523 52.7111 52.9783 52.9455 53.0043 53.1799C52.9783 53.4924 52.9262 53.896 52.8481 54.3908H52.9262C54.02 54.3908 54.671 54.7424 54.8793 55.4455C54.9575 55.758 54.9965 55.9924 54.9965 56.1486C54.9965 56.7997 54.7621 57.8674 54.2934 59.3517L54.2543 59.5471C54.7231 59.3387 55.5694 58.7528 56.7934 57.7892C57.5226 57.1642 58.1476 56.5392 58.6684 55.9142C59.0069 55.732 59.3194 55.6408 59.6059 55.6408C59.9965 55.6408 60.2569 55.784 60.3871 56.0705V56.2267C60.3611 56.5132 59.4627 57.3986 57.6918 58.883C56.3377 59.8986 55.5955 60.4064 55.4653 60.4064C54.7361 60.7971 54.072 60.9924 53.4731 60.9924C52.8481 60.9924 52.4575 60.758 52.3012 60.2892C52.2752 60.159 52.2621 60.0418 52.2621 59.9377V59.8596C52.2621 59.5471 52.4314 58.8179 52.77 57.6721C52.9523 57.0731 53.0434 56.5913 53.0434 56.2267C53.0434 55.8622 52.8871 55.6799 52.5746 55.6799H52.4965C51.8976 57.5288 51.2075 59.1825 50.4262 60.6408C49.671 62.1512 48.9809 63.4273 48.3559 64.4689C48.0434 64.7554 47.7179 64.8986 47.3793 64.8986H47.2231C46.7283 64.8465 46.4809 64.6903 46.4809 64.4299V64.3517C46.4809 64.2997 46.9627 63.4012 47.9262 61.6564C49.0981 59.4689 49.9705 57.5028 50.5434 55.758C50.0486 55.6538 49.671 55.4976 49.4106 55.2892C48.8898 54.8205 48.6293 54.2997 48.6293 53.7267C48.6293 52.7372 49.1892 51.9689 50.309 51.4221C50.6215 51.2918 50.921 51.2267 51.2075 51.2267ZM50.8168 52.5549C50.7648 52.7372 50.7387 52.9455 50.7387 53.1799C50.7387 53.5705 50.7908 53.896 50.895 54.1564C50.947 53.87 50.9731 53.6226 50.9731 53.4142C50.9731 53.1278 50.934 52.8413 50.8559 52.5549H50.8168ZM62.2231 52.7111C63.2127 52.7111 64.072 53.232 64.8012 54.2736C64.9054 54.4038 65.0356 54.9247 65.1918 55.8361C65.1398 56.4351 65.0616 56.9689 64.9575 57.4377H65.0356C65.4262 57.4377 66.7413 56.9299 68.9809 55.9142C69.0851 55.8622 69.1892 55.8361 69.2934 55.8361C69.7621 55.9403 69.9965 56.0575 69.9965 56.1877V56.2658C69.9965 56.9168 68.395 57.7241 65.1918 58.6877C64.5929 58.6877 64.2023 59.0002 64.02 59.6252C62.9262 61.0835 61.8194 61.8127 60.6996 61.8127H60.3871C59.2934 61.8127 58.6684 60.9273 58.5121 59.1564V58.2189C58.5121 55.3283 59.5799 53.4924 61.7153 52.7111H62.2231ZM61.8325 53.9611C61.4939 54.4299 61.3246 54.8986 61.3246 55.3674C61.4809 56.7476 62.0668 57.4377 63.0825 57.4377C63.1866 57.0471 63.2387 56.6825 63.2387 56.3439C63.2387 55.1721 62.9002 54.4299 62.2231 54.1174L61.8325 53.9611ZM60.3871 57.9064V58.2189C60.4392 59.7814 60.6476 60.5627 61.0121 60.5627C61.5069 60.3283 61.9887 59.8075 62.4575 59.0002V58.8439C61.8064 58.8439 61.1163 58.5314 60.3871 57.9064ZM78.3168 29.4299H78.8637C79.0981 29.4559 79.2153 29.5731 79.2153 29.7814V30.3283C79.2153 31.8387 78.6163 32.9195 77.4184 33.5705C72.1319 49.5601 69.4887 59.2866 69.4887 62.7502V63.4533L69.684 64.7424H70.2309C71.7934 63.3882 74.1241 60.3153 77.2231 55.5236L77.6137 55.3674H78.5121C78.7465 55.3674 78.8637 55.5497 78.8637 55.9142C74.5929 62.8674 71.5851 66.3439 69.8403 66.3439H68.7856C68.0564 65.9533 67.6918 65.2892 67.6918 64.3517V62.5549C67.6918 58.5184 70.3871 48.4924 75.7778 32.4767C76.5069 30.4455 77.3533 29.4299 78.3168 29.4299ZM86.9887 29.4299H87.5356C87.77 29.4559 87.8871 29.5731 87.8871 29.7814V30.3283C87.8871 31.8387 87.2882 32.9195 86.0903 33.5705C80.8038 49.5601 78.1606 59.2866 78.1606 62.7502V63.4533L78.3559 64.7424H78.9028C80.4653 63.3882 82.796 60.3153 85.895 55.5236L86.2856 55.3674H87.184C87.4184 55.3674 87.5356 55.5497 87.5356 55.9142C83.2648 62.8674 80.2569 66.3439 78.5121 66.3439H77.4575C76.7283 65.9533 76.3637 65.2892 76.3637 64.3517V62.5549C76.3637 58.5184 79.059 48.4924 84.4496 32.4767C85.1788 30.4455 86.0252 29.4299 86.9887 29.4299ZM182.301 2.39862H184.489C192.275 2.39862 197.692 5.94029 200.739 13.0236C201.52 15.5497 201.911 18.0497 201.911 20.5236C201.911 28.9872 198.069 39.8596 190.387 53.1408C187.444 58.2971 182.679 64.482 176.09 71.6955C158.929 88.909 140.452 97.5158 120.661 97.5158C115.817 97.5158 111.247 96.9689 106.95 95.8752L106.793 95.6017V95.2892C106.793 95.0288 107.184 94.8335 107.965 94.7033C112.757 95.5887 116.741 96.0314 119.918 96.0314H122.848C136.181 96.0314 149.853 90.8752 163.864 80.5627C171.468 74.3908 177.705 68.0497 182.575 61.5392C192.392 47.5028 197.952 35.3543 199.254 25.0939C199.437 24.5991 199.528 23.4793 199.528 21.7346V19.508C199.528 12.633 196.39 7.7632 190.114 4.89862C187.848 4.11737 185.491 3.72675 183.043 3.72675H182.731C173.017 3.72675 163.135 8.59654 153.082 18.3361C148.03 24.0913 143.512 30.3804 139.528 37.2033C138.148 39.2085 135.843 45.0549 132.614 54.7424C127.64 68.2059 123.851 77.4507 121.247 82.4767C120.726 82.9715 120.283 83.2189 119.918 83.2189H119.332C119.124 83.1668 118.929 82.9195 118.747 82.4767C119.502 76.5653 123.72 65.159 131.403 48.258C134.58 42.633 136.598 38.1538 137.457 34.8205C142.171 22.008 144.528 15.5236 144.528 15.3674C144.345 15.3674 144.254 15.2762 144.254 15.0939V14.7814C144.385 13.2971 144.97 12.5549 146.012 12.5549C146.793 12.5549 147.236 13.0497 147.34 14.0392C145.283 19.3517 143.265 24.8596 141.286 30.5627H141.598C144.28 25.8491 148.408 20.732 153.981 15.2111C160.205 9.1955 168.122 5.06789 177.731 2.82831C179.58 2.54185 181.103 2.39862 182.301 2.39862ZM130.934 55.4064V55.758H131.09V55.4064H130.934ZM126.247 67.9064C126.481 67.9064 127.757 64.6382 130.075 58.1017C129.267 59.4559 127.991 62.7241 126.247 67.9064ZM125.739 69.0783V69.2346C125.973 69.2346 126.09 69.1174 126.09 68.883V68.7267C125.856 68.7528 125.739 68.87 125.739 69.0783ZM125.27 70.4064V70.7189H125.426V70.4064H125.27ZM195.504 52.7111C196.494 52.7111 197.353 53.232 198.082 54.2736C198.187 54.4038 198.317 54.9247 198.473 55.8361C198.421 56.4351 198.343 56.9689 198.239 57.4377H198.317C198.707 57.4377 200.023 56.9299 202.262 55.9142C202.366 55.8622 202.47 55.8361 202.575 55.8361C203.043 55.9403 203.278 56.0575 203.278 56.1877V56.2658C203.278 56.9168 201.676 57.7241 198.473 58.6877C197.874 58.6877 197.484 59.0002 197.301 59.6252C196.207 61.0835 195.101 61.8127 193.981 61.8127H193.668C192.575 61.8127 191.95 60.9273 191.793 59.1564V58.2189C191.793 55.3283 192.861 53.4924 194.997 52.7111H195.504ZM195.114 53.9611C194.775 54.4299 194.606 54.8986 194.606 55.3674C194.762 56.7476 195.348 57.4377 196.364 57.4377C196.468 57.0471 196.52 56.6825 196.52 56.3439C196.52 55.1721 196.181 54.4299 195.504 54.1174L195.114 53.9611ZM193.668 57.9064V58.2189C193.72 59.7814 193.929 60.5627 194.293 60.5627C194.788 60.3283 195.27 59.8075 195.739 59.0002V58.8439C195.088 58.8439 194.398 58.5314 193.668 57.9064ZM204.215 52.7502H204.528C204.814 52.7502 205.023 52.8674 205.153 53.1017V53.2189C204.658 54.2606 204.176 55.6278 203.707 57.3205L203.395 59.1564C204.723 56.8387 205.569 55.6148 205.934 55.4846L206.442 55.4064C206.885 55.4064 207.197 55.5887 207.379 55.9533C207.588 56.7866 207.783 58.2059 207.965 60.2111H208.043C208.694 57.7632 209.189 56.3309 209.528 55.9142C209.71 55.4715 210.023 55.2502 210.465 55.2502C210.674 55.2502 211.142 55.7189 211.872 56.6564C212.288 56.9168 212.614 57.0471 212.848 57.0471H213.161C213.447 57.0471 214.02 56.7736 214.879 56.2267C215.062 56.2007 215.218 56.1877 215.348 56.1877H215.504C215.921 56.1877 216.129 56.3439 216.129 56.6564V56.8127C216.129 56.9689 215.622 57.3465 214.606 57.9455C213.877 58.3622 213.161 58.5705 212.457 58.5705H212.418C211.741 58.5705 211.064 58.2971 210.387 57.7502C210.361 57.7502 210.348 57.7632 210.348 57.7892C209.697 60.2111 208.799 61.4221 207.653 61.4221C206.637 61.4221 206.051 60.758 205.895 59.4299C205.817 59.1174 205.778 58.7918 205.778 58.4533C204.345 60.9793 203.447 62.2684 203.082 62.3205L202.575 62.3596H202.301C201.676 62.3596 201.364 61.7866 201.364 60.6408V60.3674C201.364 58.7788 201.885 56.6434 202.926 53.9611C203.265 53.1538 203.694 52.7502 204.215 52.7502ZM221.598 52.3205H221.637C222.523 52.3726 222.952 52.6981 222.926 53.2971V53.5705C222.9 53.9872 222.379 56.2267 221.364 60.2892C221.312 60.6799 221.273 61.0054 221.247 61.2658C221.273 61.6564 221.351 61.8648 221.481 61.8908C222.132 61.4481 223.499 60.0028 225.582 57.5549C226.832 55.8361 227.601 55.2502 227.887 55.7971C228.122 56.1356 228.213 56.3439 228.161 56.4221C227.77 57.0991 226.429 58.7137 224.137 61.2658C222.861 62.646 221.715 63.232 220.7 63.0236H220.504C219.671 62.9715 219.28 62.3205 219.332 61.0705C219.645 59.2997 220.218 56.8648 221.051 53.7658V53.6877C219.957 55.1721 218.668 57.2163 217.184 59.8205C216.507 60.758 215.96 61.2267 215.543 61.2267L215.192 61.1877C214.541 61.0575 214.228 60.7189 214.254 60.1721L214.293 59.7814C214.866 56.0314 215.465 54.1695 216.09 54.1955C216.299 54.1174 216.52 54.0783 216.754 54.0783C217.197 54.2346 217.418 54.3778 217.418 54.508V54.5861C216.95 56.2007 216.702 57.0861 216.676 57.2424C218.655 53.909 220.296 52.2684 221.598 52.3205Z" fill="#4131FF"/>
</svg>
