<svg width="56" height="128" viewBox="0 0 56 128" fill="none" xmlns="http://www.w3.org/2000/svg">
<path d="M26.804 109.772C27.204 109.772 27.576 109.868 27.92 110.06C28.264 110.252 28.544 110.544 28.76 110.936C28.976 111.328 29.084 111.812 29.084 112.388C29.084 112.948 28.984 113.448 28.784 113.888C28.576 114.32 28.296 114.668 27.944 114.932C27.584 115.188 27.176 115.336 26.72 115.376L26.72 114.212C26.96 114.188 27.196 114.108 27.428 113.972C27.652 113.828 27.84 113.628 27.992 113.372C28.136 113.108 28.208 112.792 28.208 112.424C28.208 111.944 28.08 111.576 27.824 111.32C27.568 111.064 27.24 110.936 26.84 110.936C26.496 110.936 26.216 111.028 26 111.212C25.784 111.388 25.616 111.608 25.496 111.872C25.368 112.136 25.232 112.496 25.088 112.952C24.912 113.488 24.748 113.92 24.596 114.248C24.436 114.568 24.2 114.844 23.888 115.076C23.576 115.3 23.164 115.412 22.652 115.412C22.212 115.412 21.824 115.308 21.488 115.1C21.152 114.884 20.892 114.58 20.708 114.188C20.524 113.788 20.432 113.32 20.432 112.784C20.432 111.952 20.636 111.292 21.044 110.804C21.444 110.316 21.956 110.032 22.58 109.952L22.58 111.128C22.244 111.192 21.948 111.364 21.692 111.644C21.436 111.924 21.308 112.304 21.308 112.784C21.308 113.224 21.424 113.576 21.656 113.84C21.88 114.104 22.2 114.236 22.616 114.236C22.944 114.236 23.212 114.152 23.42 113.984C23.62 113.808 23.78 113.592 23.9 113.336C24.012 113.08 24.14 112.728 24.284 112.28C24.46 111.736 24.628 111.3 24.788 110.972C24.948 110.636 25.192 110.352 25.52 110.12C25.84 109.888 26.268 109.772 26.804 109.772ZM22.412 99.2557L29 101.152L29 102.328L23.636 104.14L29 105.964L29 107.152L22.412 109.024L22.412 107.92L27.956 106.516L22.412 104.692L22.412 103.552L27.944 101.716L22.412 100.3L22.412 99.2557ZM20.48 98.4293C20.28 98.4293 20.12 98.3613 20 98.2253C19.872 98.0893 19.808 97.9093 19.808 97.6853C19.808 97.4613 19.872 97.2813 20 97.1453C20.12 97.0093 20.28 96.9413 20.48 96.9413C20.68 96.9413 20.844 97.0093 20.972 97.1453C21.092 97.2813 21.152 97.4613 21.152 97.6853C21.152 97.9093 21.092 98.0893 20.972 98.2253C20.844 98.3613 20.68 98.4293 20.48 98.4293ZM22.412 97.1453L29 97.1453L29 98.2373L22.412 98.2373L22.412 97.1453ZM22.328 91.7536C22.328 91.1696 22.464 90.6496 22.736 90.1936C23.008 89.7376 23.4 89.3816 23.912 89.1256C24.424 88.8616 25.024 88.7296 25.712 88.7296C26.4 88.7296 27 88.8616 27.512 89.1256C28.016 89.3816 28.404 89.7376 28.676 90.1936C28.948 90.6496 29.084 91.1696 29.084 91.7536C29.084 92.3936 28.924 92.9376 28.604 93.3856C28.276 93.8256 27.848 94.1296 27.32 94.2976L32.12 94.2976L32.12 95.3896L22.412 95.3896L22.412 94.2976L24.092 94.2976C23.564 94.1296 23.14 93.8256 22.82 93.3856C22.492 92.9376 22.328 92.3936 22.328 91.7536ZM23.3 92.0656C23.3 92.4896 23.4 92.8736 23.6 93.2176C23.792 93.5616 24.072 93.8296 24.44 94.0216C24.808 94.2136 25.232 94.3096 25.712 94.3096C26.192 94.3096 26.616 94.2136 26.984 94.0216C27.344 93.8296 27.624 93.5616 27.824 93.2176C28.024 92.8736 28.124 92.4896 28.124 92.0656C28.124 91.3856 27.912 90.8456 27.488 90.4456C27.056 90.0376 26.464 89.8336 25.712 89.8336C24.96 89.8336 24.372 90.0376 23.948 90.4456C23.516 90.8456 23.3 91.3856 23.3 92.0656ZM25.34 81.2437C25.572 81.2437 25.772 81.2597 25.94 81.2917L25.94 86.5597C26.692 86.5357 27.256 86.3237 27.632 85.9237C28.008 85.5157 28.196 85.0197 28.196 84.4357C28.196 83.9077 28.064 83.4677 27.8 83.1157C27.528 82.7557 27.168 82.5357 26.72 82.4557L26.72 81.2917C27.176 81.3717 27.584 81.5517 27.944 81.8317C28.304 82.1037 28.584 82.4597 28.784 82.8997C28.984 83.3397 29.084 83.8357 29.084 84.3877C29.084 85.0197 28.948 85.5797 28.676 86.0677C28.404 86.5557 28.016 86.9397 27.512 87.2197C27 87.4917 26.4 87.6277 25.712 87.6277C25.024 87.6277 24.424 87.4917 23.912 87.2197C23.4 86.9397 23.008 86.5557 22.736 86.0677C22.464 85.5797 22.328 85.0197 22.328 84.3877C22.328 83.7477 22.464 83.1917 22.736 82.7197C23.008 82.2397 23.372 81.8757 23.828 81.6277C24.284 81.3717 24.788 81.2437 25.34 81.2437ZM25.412 82.3477C24.924 82.3237 24.516 82.4037 24.188 82.5877C23.86 82.7717 23.616 83.0237 23.456 83.3437C23.296 83.6637 23.216 84.0117 23.216 84.3877C23.216 84.9877 23.404 85.4917 23.78 85.8997C24.148 86.3077 24.692 86.5277 25.412 86.5597L25.412 82.3477ZM20.54 75.8186L25.616 75.8186C26.448 75.8186 27.064 75.6346 27.464 75.2666C27.856 74.8986 28.052 74.3906 28.052 73.7426C28.052 73.1026 27.852 72.6026 27.452 72.2426C27.052 71.8826 26.44 71.7026 25.616 71.7026L20.54 71.7026L20.54 70.6106L25.616 70.6106C26.768 70.6106 27.636 70.8986 28.22 71.4746C28.796 72.0426 29.084 72.8066 29.084 73.7666C29.084 74.7186 28.796 75.4826 28.22 76.0586C27.636 76.6266 26.768 76.9106 25.616 76.9106L20.54 76.9106L20.54 75.8186ZM22.328 65.281C22.328 64.697 22.464 64.177 22.736 63.721C23.008 63.265 23.4 62.909 23.912 62.653C24.424 62.389 25.024 62.257 25.712 62.257C26.4 62.257 27 62.389 27.512 62.653C28.016 62.909 28.404 63.265 28.676 63.721C28.948 64.177 29.084 64.697 29.084 65.281C29.084 65.921 28.924 66.465 28.604 66.913C28.276 67.353 27.848 67.657 27.32 67.825L32.12 67.825L32.12 68.917L22.412 68.917L22.412 67.825L24.092 67.825C23.564 67.657 23.14 67.353 22.82 66.913C22.492 66.465 22.328 65.921 22.328 65.281ZM23.3 65.593C23.3 66.017 23.4 66.401 23.6 66.745C23.792 67.089 24.072 67.357 24.44 67.549C24.808 67.741 25.232 67.837 25.712 67.837C26.192 67.837 26.616 67.741 26.984 67.549C27.344 67.357 27.624 67.089 27.824 66.745C28.024 66.401 28.124 66.017 28.124 65.593C28.124 64.913 27.912 64.373 27.488 63.973C27.056 63.565 26.464 63.361 25.712 63.361C24.96 63.361 24.372 63.565 23.948 63.973C23.516 64.373 23.3 64.913 23.3 65.593Z" fill="#8C96B8"/>
<path d="M25 47V13M25 13L29 19.5M25 13L21 19.5" stroke="#8C96B8"/>
</svg>
