<svg width="384" height="154" viewBox="0 0 384 154" fill="none" xmlns="http://www.w3.org/2000/svg">
<path d="M159.688 0.8125H161.25C162.25 0.9375 162.75 1.20833 162.75 1.625V1.875C162.75 2.70833 160.354 3.3125 155.562 3.6875C147.646 6.5625 137.75 17.5625 125.875 36.6875C113.792 56.6458 99.6042 82.9583 83.3125 115.625C70.4792 139.833 61.7292 151.938 57.0625 151.938H55.25C53.5833 151.938 52.625 148.083 52.375 140.375C52.375 132.75 54.5208 109.625 58.8125 71C59.0208 70.4167 59.125 68.6042 59.125 65.5625V63.5C57.125 65.2083 54.9583 67.875 52.625 71.5C38.875 93 27.9583 109.583 19.875 121.25C12.375 131.083 6.625 136 2.625 136C1.08333 136 0.229167 134.958 0.0625 132.875V131.562C0.0625 119.646 6.25 95.0625 18.625 57.8125C19.0833 57.3125 19.5833 56.2083 20.125 54.5C19.4583 54.2083 19.125 53.9375 19.125 53.6875V53.4375C20.2083 50.5208 22.1042 49.0625 24.8125 49.0625C25.4792 49.3125 25.8125 49.5625 25.8125 49.8125V50.625C23.7708 54.9167 21.625 60.1458 19.375 66.3125C8.875 100.604 3.625 122.188 3.625 131.062V132.875C3.625 133.125 3.89583 133.375 4.4375 133.625C7.35417 132.458 11.3125 128.25 16.3125 121C22.5625 112 33.2917 95.6667 48.5 72C54 64.625 58.125 60.9375 60.875 60.9375C62.0833 60.9375 62.6875 62.9167 62.6875 66.875C62.6875 70.375 60.5417 92.4583 56.25 133.125C56.0833 137.25 56 140.521 56 142.938C56 145.688 56.3542 147.917 57.0625 149.625H57.3125C60.0625 149.625 66.8542 139.479 77.6875 119.188C96.7292 80.6042 113.396 50.2708 127.688 28.1875C140.438 9.9375 151.104 0.8125 159.688 0.8125ZM123.562 47.6875H124.812C125.646 48.1875 126.062 48.8542 126.062 49.6875C125.729 53.1875 124.646 54.9375 122.812 54.9375C116.646 72.6875 112.729 84.6042 111.062 90.6875C114.104 86.3958 116.521 83.4792 118.312 81.9375C119.188 81.7708 119.688 81.6875 119.812 81.6875C121.479 82.3125 122.312 83.4792 122.312 85.1875C120.979 90.3125 120.312 93.2292 120.312 93.9375V94.4375H120.562C121.021 94.4375 123.938 91.5208 129.312 85.6875C129.604 85.5208 129.938 85.4375 130.312 85.4375H131.062C131.396 85.4792 131.562 85.6458 131.562 85.9375V86.4375C125.312 93.6042 120.979 97.1875 118.562 97.1875C117.396 97.1875 116.812 96.5208 116.812 95.1875C118.312 89.0208 119.062 85.5208 119.062 84.6875L110.812 95.9375C110.354 96.8125 109.667 97.25 108.75 97.25C107.75 97.3333 107.083 97.25 106.75 97L106.438 96.9375C107.021 93.2708 112.062 77.1875 121.562 48.6875C122.271 48.0208 122.938 47.6875 123.562 47.6875ZM139.375 81.6875H139.938C140.604 81.6875 140.938 81.9792 140.938 82.5625C139.688 86.7292 139.062 89.8125 139.062 91.8125V92.5625C139.104 93.7292 139.229 94.3542 139.438 94.4375C140.312 94.1458 142.75 91.375 146.75 86.125C147.375 85.9167 147.854 85.8125 148.188 85.8125C148.938 86.0208 149.312 86.2292 149.312 86.4375V86.875C144.562 92.75 141.312 96.1875 139.562 97.1875L137.875 97.25C136.583 96.5833 135.896 95.1875 135.812 93.0625C135.812 92.8125 135.771 92.625 135.688 92.5L135.938 89.9375C133.271 92.8125 131.229 94.25 129.812 94.25C128.312 94 127.562 93.25 127.562 92V90.8125C127.562 88.9375 128.521 86.7083 130.438 84.125C131.812 82.7917 133.083 82.125 134.25 82.125H135.062C135.646 82.125 136.417 82.4167 137.375 83C138.083 82.125 138.75 81.6875 139.375 81.6875ZM130.688 91.375C130.771 91.9583 130.875 92.25 131 92.25C132.292 91.0833 133.521 89.4583 134.688 87.375C134.979 87.0833 135.542 86.2083 136.375 84.75L135.812 84.875C134.896 84.5833 134.312 84.4375 134.062 84.4375C133.104 84.4375 132.083 86 131 89.125C130.792 90.4583 130.688 91.2083 130.688 91.375ZM153.375 66.5625H153.812C154.354 66.5625 154.729 66.7917 154.938 67.25L152.562 76.625C176.396 76.5417 194.667 76.5 207.375 76.5H257.875C265.125 76.5 268.75 76.7292 268.75 77.1875C269.042 77.2708 269.188 77.5625 269.188 78.0625V78.3125C269.188 79.1458 267.396 79.625 263.812 79.75H261.562C260.771 79.6667 260.375 79.3333 260.375 78.75C257.917 78.6667 256.229 78.625 255.312 78.625C229.896 78.625 195.396 78.6667 151.812 78.75C148.812 89.1667 142.167 110.896 131.875 143.938C131.875 147.979 130.646 150.583 128.188 151.75H127.188C126.854 151.667 126.667 151.25 126.625 150.5C126.708 149.583 128.271 144.417 131.312 135C139.896 107.583 145.646 88.8333 148.562 78.75H117.562C116.812 78.75 116.333 78.5208 116.125 78.0625V77.625C116.583 76.9583 117.104 76.625 117.688 76.625H149C149.208 76.625 150.104 73.5 151.688 67.25C152.271 66.7917 152.833 66.5625 153.375 66.5625ZM188.875 82.3125H189.562C190.188 82.3125 190.542 82.5833 190.625 83.125C188.917 88 188.062 91.1667 188.062 92.625C188.062 93 188.146 93.1875 188.312 93.1875C189.062 92.6458 191.604 90.5417 195.938 86.875C196.188 86.625 196.646 86.5 197.312 86.5C197.938 86.5 198.333 86.7083 198.5 87.125V87.5625C197.625 88.6042 195.354 90.5625 191.688 93.4375C189.938 94.6875 188.5 95.3125 187.375 95.3125H187C185.75 95.3125 185.125 94.5208 185.125 92.9375V92.375C185.125 90.1667 185.938 87 187.562 82.875C188.146 82.5 188.583 82.3125 188.875 82.3125ZM193.562 72.0625C193.854 71.9375 194.125 71.6875 194.375 71.3125L194.125 70.4375C193.333 69.8125 191.375 70.4167 188.25 72.25L187.625 72.75L187.5 73.625C188.625 74.75 190.562 74.3125 193.312 72.3125L193.562 72.0625ZM350.312 0.875H353.812C366.271 0.875 374.938 6.54167 379.812 17.875C381.062 21.9167 381.688 25.9167 381.688 29.875C381.688 43.4167 375.542 60.8125 363.25 82.0625C358.542 90.3125 350.917 100.208 340.375 111.75C312.917 139.292 283.354 153.062 251.688 153.062C243.938 153.062 236.625 152.188 229.75 150.438L229.5 150V149.5C229.5 149.083 230.125 148.771 231.375 148.562C239.042 149.979 245.417 150.688 250.5 150.688H255.188C276.521 150.688 298.396 142.438 320.812 125.938C332.979 116.062 342.958 105.917 350.75 95.5C366.458 73.0417 375.354 53.6042 377.438 37.1875C377.729 36.3958 377.875 34.6042 377.875 31.8125V28.25C377.875 17.25 372.854 9.45833 362.812 4.875C359.188 3.625 355.417 3 351.5 3H351C335.458 3 319.646 10.7917 303.562 26.375C295.479 35.5833 288.25 45.6458 281.875 56.5625C279.667 59.7708 275.979 69.125 270.812 84.625C262.854 106.167 256.792 120.958 252.625 129C251.792 129.792 251.083 130.188 250.5 130.188H249.562C249.229 130.104 248.917 129.708 248.625 129C249.833 119.542 256.583 101.292 268.875 74.25C273.958 65.25 277.188 58.0833 278.562 52.75C286.104 32.25 289.875 21.875 289.875 21.625C289.583 21.625 289.438 21.4792 289.438 21.1875V20.6875C289.646 18.3125 290.583 17.125 292.25 17.125C293.5 17.125 294.208 17.9167 294.375 19.5C291.083 28 287.854 36.8125 284.688 45.9375H285.188C289.479 38.3958 296.083 30.2083 305 21.375C314.958 11.75 327.625 5.14583 343 1.5625C345.958 1.10417 348.396 0.875 350.312 0.875ZM268.125 85.6875V86.25H268.375V85.6875H268.125ZM260.625 105.688C261 105.688 263.042 100.458 266.75 90C265.458 92.1667 263.417 97.3958 260.625 105.688ZM259.812 107.562V107.812C260.188 107.812 260.375 107.625 260.375 107.25V107C260 107.042 259.812 107.229 259.812 107.562ZM259.062 109.688V110.188H259.312V109.688H259.062ZM371.438 81.375C373.021 81.375 374.396 82.2083 375.562 83.875C375.729 84.0833 375.938 84.9167 376.188 86.375C376.104 87.3333 375.979 88.1875 375.812 88.9375H375.938C376.562 88.9375 378.667 88.125 382.25 86.5C382.417 86.4167 382.583 86.375 382.75 86.375C383.5 86.5417 383.875 86.7292 383.875 86.9375V87.0625C383.875 88.1042 381.312 89.3958 376.188 90.9375C375.229 90.9375 374.604 91.4375 374.312 92.4375C372.562 94.7708 370.792 95.9375 369 95.9375H368.5C366.75 95.9375 365.75 94.5208 365.5 91.6875V90.1875C365.5 85.5625 367.208 82.625 370.625 81.375H371.438ZM370.812 83.375C370.271 84.125 370 84.875 370 85.625C370.25 87.8333 371.188 88.9375 372.812 88.9375C372.979 88.3125 373.062 87.7292 373.062 87.1875C373.062 85.3125 372.521 84.125 371.438 83.625L370.812 83.375ZM368.5 89.6875V90.1875C368.583 92.6875 368.917 93.9375 369.5 93.9375C370.292 93.5625 371.062 92.7292 371.812 91.4375V91.1875C370.771 91.1875 369.667 90.6875 368.5 89.6875Z" fill="#4131FF"/>
</svg>
